{"glyphs":{"0":{"ha":885,"x_min":35,"x_max":850,"o":"m 442 0 q 274 38 349 0 q 145 142 199 75 q 63 298 92 210 q 35 486 35 386 q 63 667 35 581 q 144 823 90 754 q 272 932 197 892 q 442 972 347 972 q 657 908 565 972 q 799 733 749 843 q 850 486 850 624 q 822 308 850 394 q 740 151 793 221 q 611 41 686 82 q 442 0 536 0 m 442 260 q 528 290 496 260 q 576 369 561 321 q 592 472 592 418 q 577 574 592 526 q 529 652 563 622 q 442 682 496 682 q 355 652 388 682 q 307 574 322 622 q 292 472 292 526 q 306 380 292 429 q 353 295 321 331 q 442 260 386 260 z "},"1":{"ha":761,"x_min":35,"x_max":726,"o":"m 389 3 q 263 3 324 3 q 155 12 203 3 q 79 47 107 21 q 51 125 51 74 q 81 208 51 179 q 162 247 111 236 q 276 261 213 258 q 275 412 276 349 q 273 530 274 475 q 272 644 272 585 q 193 642 235 639 q 116 658 151 644 q 58 698 81 671 q 35 768 35 725 q 80 869 35 822 q 200 944 125 915 q 361 972 275 972 q 501 920 447 972 q 556 767 556 868 l 556 257 q 678 222 631 250 q 726 125 726 194 q 699 47 726 74 q 623 12 671 21 q 515 3 575 3 q 389 3 454 3 z "},"2":{"ha":808,"x_min":35,"x_max":774,"o":"m 421 -1 q 350 -2 383 -1 q 286 -3 317 -3 q 176 5 222 -3 q 105 36 129 13 q 81 110 81 60 q 103 190 81 160 q 163 247 125 221 q 243 311 200 274 q 339 397 292 353 q 417 485 386 440 q 449 574 449 531 q 427 635 449 610 q 372 660 406 660 q 324 647 340 660 q 300 615 308 635 q 282 574 292 596 q 231 522 265 535 q 167 508 197 508 q 75 546 115 508 q 35 667 35 583 q 65 789 35 733 q 147 886 96 844 q 264 950 199 928 q 400 972 329 972 q 531 951 467 972 q 646 886 594 929 q 728 780 697 843 q 760 633 760 717 q 732 500 760 568 q 656 374 704 432 q 547 278 608 315 q 714 249 654 278 q 774 144 774 221 q 737 51 774 82 q 622 10 700 21 q 421 -1 544 0 z "},"3":{"ha":731,"x_min":29,"x_max":696,"o":"m 371 1 q 262 11 318 1 q 156 40 206 21 q 74 90 107 60 q 36 163 42 121 q 60 244 29 215 q 140 272 90 272 q 197 258 175 272 q 243 231 219 244 q 304 217 267 217 q 401 290 401 217 q 376 343 401 322 q 297 364 351 364 q 245 372 272 364 q 199 399 218 379 q 179 456 179 419 q 199 510 179 492 q 246 536 218 529 q 300 543 274 543 q 369 561 338 543 q 401 614 401 579 q 376 668 401 646 q 311 690 351 690 q 255 683 275 690 q 220 667 235 676 q 189 651 206 658 q 143 644 172 644 q 65 673 93 644 q 38 758 38 701 q 76 856 38 807 q 187 939 114 906 q 363 972 260 972 q 536 930 461 972 q 653 821 611 888 q 696 682 696 754 q 674 571 696 632 q 601 465 651 510 q 644 423 624 447 q 680 360 665 399 q 694 263 694 322 q 652 133 694 193 q 537 38 610 74 q 371 1 464 1 z "},"4":{"ha":886,"x_min":35,"x_max":851,"o":"m 576 0 q 485 39 517 0 q 454 131 454 78 q 454 153 454 138 q 454 190 454 168 q 377 189 414 189 q 310 189 340 189 q 214 191 263 189 q 125 209 165 193 q 60 265 85 225 q 35 379 35 304 q 59 481 35 422 q 123 603 83 540 q 207 722 163 667 q 340 873 285 818 q 442 950 396 928 q 533 972 488 972 q 655 919 621 972 q 689 747 689 867 q 689 685 689 732 q 689 574 689 639 q 689 442 689 510 q 722 442 715 442 q 794 423 765 442 q 837 376 822 404 q 851 321 851 349 q 824 242 851 278 q 713 199 796 206 q 690 197 703 197 q 690 131 690 143 q 661 40 690 79 q 576 0 632 0 m 456 639 q 399 567 422 596 q 354 510 375 539 q 310 436 333 481 q 356 437 315 436 q 451 438 397 438 q 452 551 451 499 q 456 639 453 604 z "},"5":{"ha":769,"x_min":35,"x_max":735,"o":"m 328 1 q 217 20 272 1 q 125 73 161 39 q 89 151 89 107 q 113 215 89 185 q 192 244 138 244 q 242 234 225 244 q 276 213 258 224 q 329 201 293 201 q 417 232 388 201 q 446 296 446 263 q 413 380 446 349 q 314 411 379 411 q 261 399 283 411 q 217 374 239 388 q 170 352 196 360 q 107 353 144 344 q 52 395 67 363 q 37 478 38 428 q 36 586 36 528 q 36 667 36 619 q 36 757 36 714 q 35 819 36 800 q 83 924 35 885 q 206 968 132 963 q 306 972 251 971 q 404 972 361 972 q 517 970 460 972 q 621 958 574 968 q 697 922 668 947 q 725 850 725 897 q 671 760 725 786 q 518 730 617 735 q 286 725 419 725 l 286 608 q 410 624 351 624 q 578 585 506 624 q 693 478 651 547 q 735 317 735 408 q 706 183 735 239 q 628 92 676 128 q 526 37 581 57 q 419 9 471 17 q 328 1 367 1 z "},"6":{"ha":833,"x_min":35,"x_max":799,"o":"m 436 1 q 247 42 324 1 q 123 150 169 83 q 56 296 76 217 q 35 453 35 375 q 96 728 35 613 q 262 908 157 844 q 500 972 367 972 q 656 953 600 972 q 734 906 711 935 q 757 846 757 878 q 725 774 757 807 q 628 740 693 740 q 497 731 561 740 q 383 692 433 721 q 303 604 332 663 q 357 631 325 619 q 422 647 389 642 q 476 653 454 653 q 651 613 579 653 q 760 501 722 572 q 799 339 799 431 q 751 163 799 239 q 621 44 703 88 q 436 1 539 1 m 444 214 q 521 247 489 214 q 553 322 553 279 q 521 399 553 367 q 444 431 489 431 q 369 399 401 431 q 336 322 336 367 q 369 247 336 279 q 444 214 401 214 z "},"7":{"ha":911,"x_min":28,"x_max":876,"o":"m 510 0 q 450 19 475 0 q 412 65 425 38 q 399 118 399 93 q 410 193 399 144 q 441 303 422 242 q 481 429 460 364 q 524 557 503 494 q 561 668 546 619 l 324 668 q 327 576 326 626 q 319 478 328 525 q 288 401 311 431 q 218 371 264 371 q 111 418 147 371 q 60 549 75 465 q 36 743 46 633 q 62 895 28 846 q 170 960 96 944 q 357 975 244 975 q 414 974 374 975 q 501 974 454 974 q 586 973 547 974 q 639 972 625 972 q 812 928 747 972 q 876 765 876 883 q 851 615 876 700 q 785 426 825 531 q 697 200 744 322 q 659 110 681 157 q 603 32 638 64 q 510 0 568 0 z "},"8":{"ha":779,"x_min":35,"x_max":747,"o":"m 382 1 q 208 33 288 0 q 82 132 129 67 q 35 293 35 197 q 72 436 35 374 q 164 538 108 499 q 99 617 121 571 q 76 725 76 663 q 112 843 76 785 q 219 940 147 901 q 401 978 292 978 q 552 946 485 978 q 660 858 619 914 q 700 728 700 801 q 682 622 700 674 q 632 542 664 569 q 717 435 688 500 q 744 303 747 371 q 690 144 742 213 q 558 39 639 76 q 382 1 476 1 m 388 592 q 449 617 424 592 q 475 678 475 643 q 449 738 475 713 q 388 764 424 764 q 327 738 353 764 q 301 678 301 713 q 327 617 301 643 q 388 592 353 592 m 381 219 q 450 249 421 219 q 479 318 479 278 q 450 388 479 358 q 381 417 421 417 q 311 388 340 417 q 282 318 282 358 q 311 249 282 278 q 381 219 340 219 z "},"9":{"ha":790,"x_min":35,"x_max":756,"o":"m 322 6 q 262 12 296 6 q 200 37 228 18 q 167 93 172 56 q 189 174 161 147 q 271 201 217 200 q 364 227 322 207 q 426 294 406 247 q 233 316 322 288 q 90 417 144 344 q 35 608 35 489 q 80 799 35 718 q 205 926 125 881 q 386 972 285 972 q 569 931 497 972 q 681 821 640 889 q 739 672 722 753 q 756 511 756 590 q 721 323 756 414 q 626 160 686 232 q 488 47 565 89 q 322 6 410 6 m 386 496 q 463 528 431 496 q 496 604 496 561 q 463 681 496 649 q 386 714 431 714 q 310 681 343 714 q 278 604 278 649 q 310 528 278 561 q 386 496 343 496 z "},"A":{"ha":971,"x_min":25,"x_max":947,"o":"m 251 -3 q 101 90 156 -3 q 36 335 46 183 q 77 666 25 522 q 235 890 129 810 q 486 971 340 971 q 738 890 633 971 q 895 667 843 810 q 935 335 947 524 q 870 89 925 179 q 719 -1 815 -1 q 636 19 665 -1 q 595 70 607 39 q 583 134 583 101 q 588 190 583 167 q 483 188 543 189 q 383 190 424 188 q 388 134 388 167 q 376 70 388 101 q 335 18 364 39 q 251 -3 306 -3 m 374 438 q 593 438 483 442 q 592 531 600 486 q 557 603 583 575 q 482 631 531 631 q 408 603 433 631 q 374 531 382 575 q 374 438 367 488 z "},"Á":{"ha":972,"x_min":25,"x_max":947,"o":"m 251 -3 q 101 90 156 -3 q 36 335 46 183 q 77 666 25 522 q 235 890 129 810 q 486 971 340 971 q 738 890 633 971 q 895 667 843 810 q 935 335 947 524 q 870 89 925 179 q 719 -1 815 -1 q 636 19 665 -1 q 595 70 607 39 q 583 134 583 101 q 588 190 583 167 q 483 188 543 189 q 383 190 424 188 q 388 134 388 167 q 376 70 388 101 q 335 18 364 39 q 251 -3 306 -3 m 374 438 q 593 438 483 442 q 592 531 600 486 q 557 603 583 575 q 482 631 531 631 q 408 603 433 631 q 374 531 382 575 q 374 438 367 488 m 436 1006 q 387 1027 406 1006 q 368 1071 368 1049 q 385 1117 368 1090 q 426 1172 401 1144 q 479 1217 451 1199 q 528 1235 507 1235 q 593 1206 571 1235 q 614 1150 615 1178 q 594 1106 614 1131 q 544 1059 574 1082 q 486 1021 515 1036 q 436 1006 457 1006 z "},"Ă":{"ha":972,"x_min":25,"x_max":947,"o":"m 251 -3 q 101 90 156 -3 q 36 335 46 183 q 77 666 25 522 q 235 890 129 810 q 486 971 340 971 q 738 890 633 971 q 895 667 843 810 q 935 335 947 524 q 870 89 925 179 q 719 -1 815 -1 q 636 19 665 -1 q 595 70 607 39 q 583 134 583 101 q 588 190 583 167 q 483 188 543 189 q 383 190 424 188 q 388 134 388 167 q 376 70 388 101 q 335 18 364 39 q 251 -3 306 -3 m 374 438 q 593 438 483 442 q 592 531 600 486 q 557 603 583 575 q 482 631 531 631 q 408 603 433 631 q 374 531 382 575 q 374 438 367 488 m 483 1014 q 383 1038 425 1014 q 317 1099 340 1063 q 294 1167 294 1135 q 310 1217 294 1192 q 361 1242 325 1242 q 411 1224 394 1242 q 442 1188 428 1207 q 485 1163 460 1164 q 528 1188 510 1163 q 556 1224 542 1207 q 610 1242 571 1242 q 661 1217 646 1242 q 676 1167 676 1192 q 653 1097 676 1132 q 586 1038 629 1061 q 483 1014 543 1014 z "},"Ắ":{"ha":971,"x_min":25,"x_max":947,"o":"m 479 1247 q 435 1266 451 1247 q 418 1306 418 1285 q 433 1347 418 1322 q 472 1397 449 1372 q 519 1438 494 1422 q 563 1454 543 1454 q 622 1428 601 1454 q 642 1378 642 1403 q 622 1338 640 1360 q 578 1294 604 1315 q 525 1260 551 1274 q 479 1247 499 1247 m 483 1000 q 383 1024 425 1000 q 317 1085 340 1049 q 294 1153 294 1121 q 310 1203 294 1178 q 361 1228 325 1228 q 411 1210 394 1228 q 442 1174 428 1193 q 485 1149 460 1150 q 528 1174 510 1149 q 556 1210 542 1193 q 610 1228 571 1228 q 661 1203 646 1228 q 676 1153 676 1178 q 653 1083 676 1118 q 586 1024 629 1047 q 483 1000 543 1000 m 251 -3 q 101 90 156 -3 q 36 335 46 183 q 77 666 25 522 q 235 890 129 810 q 486 971 340 971 q 738 890 633 971 q 895 667 843 810 q 935 335 947 524 q 870 89 925 179 q 719 -1 815 -1 q 636 19 665 -1 q 595 70 607 39 q 583 134 583 101 q 588 190 583 167 q 483 188 543 189 q 383 190 424 188 q 388 134 388 167 q 376 70 388 101 q 335 18 364 39 q 251 -3 306 -3 m 374 438 q 593 438 483 442 q 592 531 600 486 q 557 603 583 575 q 482 631 531 631 q 408 603 433 631 q 374 531 382 575 q 374 438 367 488 z "},"Ặ":{"ha":971,"x_min":25,"x_max":947,"o":"m 251 -3 q 101 90 156 -3 q 36 335 46 183 q 77 666 25 522 q 235 890 129 810 q 486 971 340 971 q 738 890 633 971 q 895 667 843 810 q 935 335 947 524 q 870 89 925 179 q 719 -1 815 -1 q 636 19 665 -1 q 595 70 607 39 q 583 134 583 101 q 588 190 583 167 q 483 188 543 189 q 383 190 424 188 q 388 134 388 167 q 376 70 388 101 q 335 18 364 39 q 251 -3 306 -3 m 374 438 q 593 438 483 442 q 592 531 600 486 q 557 603 583 575 q 482 631 531 631 q 408 603 433 631 q 374 531 382 575 q 374 438 367 488 m 486 -197 q 417 -168 446 -197 q 389 -100 389 -139 q 417 -31 389 -60 q 486 -3 446 -3 q 555 -31 526 -3 q 583 -100 583 -60 q 555 -168 583 -139 q 486 -197 526 -197 m 483 1000 q 383 1024 425 1000 q 317 1085 340 1049 q 294 1153 294 1121 q 310 1203 294 1178 q 361 1228 325 1228 q 411 1210 394 1228 q 442 1174 428 1193 q 485 1149 460 1150 q 528 1174 510 1149 q 556 1210 542 1193 q 610 1228 571 1228 q 661 1203 646 1228 q 676 1153 676 1178 q 653 1083 676 1118 q 586 1024 629 1047 q 483 1000 543 1000 z "},"Ằ":{"ha":971,"x_min":25,"x_max":947,"o":"m 499 1232 q 453 1245 481 1232 q 400 1279 426 1258 q 356 1322 374 1300 q 338 1363 338 1344 q 356 1413 336 1388 q 415 1439 376 1439 q 460 1423 435 1439 q 508 1382 485 1407 q 546 1332 531 1357 q 561 1290 561 1307 q 544 1251 561 1269 q 499 1232 528 1232 m 483 1000 q 383 1024 425 1000 q 317 1085 340 1049 q 294 1153 294 1121 q 310 1203 294 1178 q 361 1228 325 1228 q 411 1210 394 1228 q 442 1174 428 1193 q 485 1149 460 1150 q 528 1174 510 1149 q 556 1210 542 1193 q 610 1228 571 1228 q 661 1203 646 1228 q 676 1153 676 1178 q 653 1083 676 1118 q 586 1024 629 1047 q 483 1000 543 1000 m 251 -3 q 101 90 156 -3 q 36 335 46 183 q 77 666 25 522 q 235 890 129 810 q 486 971 340 971 q 738 890 633 971 q 895 667 843 810 q 935 335 947 524 q 870 89 925 179 q 719 -1 815 -1 q 636 19 665 -1 q 595 70 607 39 q 583 134 583 101 q 588 190 583 167 q 483 188 543 189 q 383 190 424 188 q 388 134 388 167 q 376 70 388 101 q 335 18 364 39 q 251 -3 306 -3 m 374 438 q 593 438 483 442 q 592 531 600 486 q 557 603 583 575 q 482 631 531 631 q 408 603 433 631 q 374 531 382 575 q 374 438 367 488 z "},"Ẳ":{"ha":971,"x_min":25,"x_max":947,"o":"m 481 1229 q 443 1240 460 1229 q 426 1272 426 1250 q 436 1298 426 1292 q 456 1308 446 1304 q 465 1322 465 1311 q 451 1337 465 1336 q 419 1338 438 1338 q 383 1347 400 1338 q 367 1385 367 1357 q 383 1420 367 1407 q 422 1440 400 1433 q 458 1446 443 1446 q 553 1416 518 1446 q 588 1338 588 1386 q 553 1256 588 1282 q 481 1229 518 1229 m 483 1000 q 383 1024 425 1000 q 317 1085 340 1049 q 294 1153 294 1121 q 310 1203 294 1178 q 361 1228 325 1228 q 411 1210 394 1228 q 442 1174 428 1193 q 485 1149 460 1150 q 528 1174 510 1149 q 556 1210 542 1193 q 610 1228 571 1228 q 661 1203 646 1228 q 676 1153 676 1178 q 653 1083 676 1118 q 586 1024 629 1047 q 483 1000 543 1000 m 251 -3 q 101 90 156 -3 q 36 335 46 183 q 77 666 25 522 q 235 890 129 810 q 486 971 340 971 q 738 890 633 971 q 895 667 843 810 q 935 335 947 524 q 870 89 925 179 q 719 -1 815 -1 q 636 19 665 -1 q 595 70 607 39 q 583 134 583 101 q 588 190 583 167 q 483 188 543 189 q 383 190 424 188 q 388 134 388 167 q 376 70 388 101 q 335 18 364 39 q 251 -3 306 -3 m 374 438 q 593 438 483 442 q 592 531 600 486 q 557 603 583 575 q 482 631 531 631 q 408 603 433 631 q 374 531 382 575 q 374 438 367 488 z "},"Ẵ":{"ha":971,"x_min":25,"x_max":947,"o":"m 326 1267 q 270 1286 293 1267 q 247 1346 247 1306 q 267 1399 247 1372 q 318 1444 286 1426 q 388 1463 350 1463 q 460 1452 438 1463 q 498 1431 483 1442 q 536 1421 513 1421 q 578 1431 565 1421 q 603 1450 592 1440 q 643 1460 615 1460 q 699 1440 675 1460 q 722 1381 722 1419 q 703 1327 722 1354 q 651 1282 683 1300 q 581 1264 619 1264 q 509 1274 532 1264 q 471 1294 486 1283 q 433 1304 456 1304 q 390 1294 403 1304 q 366 1276 378 1285 q 326 1267 354 1267 m 483 1000 q 383 1024 425 1000 q 317 1085 340 1049 q 294 1153 294 1121 q 310 1203 294 1178 q 361 1228 325 1228 q 411 1210 394 1228 q 442 1174 428 1193 q 485 1149 460 1150 q 528 1174 510 1149 q 556 1210 542 1193 q 610 1228 571 1228 q 661 1203 646 1228 q 676 1153 676 1178 q 653 1083 676 1118 q 586 1024 629 1047 q 483 1000 543 1000 m 251 -3 q 101 90 156 -3 q 36 335 46 183 q 77 666 25 522 q 235 890 129 810 q 486 971 340 971 q 738 890 633 971 q 895 667 843 810 q 935 335 947 524 q 870 89 925 179 q 719 -1 815 -1 q 636 19 665 -1 q 595 70 607 39 q 583 134 583 101 q 588 190 583 167 q 483 188 543 189 q 383 190 424 188 q 388 134 388 167 q 376 70 388 101 q 335 18 364 39 q 251 -3 306 -3 m 374 438 q 593 438 483 442 q 592 531 600 486 q 557 603 583 575 q 482 631 531 631 q 408 603 433 631 q 374 531 382 575 q 374 438 367 488 z "},"Â":{"ha":972,"x_min":25,"x_max":947,"o":"m 251 -3 q 101 90 156 -3 q 36 335 46 183 q 77 666 25 522 q 235 890 129 810 q 486 971 340 971 q 738 890 633 971 q 895 667 843 810 q 935 335 947 524 q 870 89 925 179 q 719 -1 815 -1 q 636 19 665 -1 q 595 70 607 39 q 583 134 583 101 q 588 190 583 167 q 483 188 543 189 q 383 190 424 188 q 388 134 388 167 q 376 70 388 101 q 335 18 364 39 q 251 -3 306 -3 m 374 438 q 593 438 483 442 q 592 531 600 486 q 557 603 583 575 q 482 631 531 631 q 408 603 433 631 q 374 531 382 575 q 374 438 367 488 m 367 1010 q 308 1031 329 1010 q 288 1086 288 1051 q 317 1157 288 1119 q 391 1222 346 1194 q 483 1249 436 1249 q 576 1222 531 1249 q 653 1158 622 1196 q 683 1086 683 1121 q 663 1031 683 1051 q 604 1010 642 1010 q 539 1031 569 1010 q 486 1082 508 1053 q 433 1031 464 1053 q 367 1010 401 1010 z "},"Ấ":{"ha":971,"x_min":25,"x_max":947,"o":"m 656 1238 q 611 1256 628 1238 q 594 1296 594 1275 q 610 1338 594 1313 q 648 1388 625 1363 q 695 1428 671 1413 q 739 1444 719 1444 q 798 1419 778 1444 q 818 1368 818 1393 q 799 1328 817 1350 q 754 1285 781 1306 q 701 1251 728 1264 q 656 1238 675 1238 m 367 996 q 308 1017 329 996 q 288 1072 288 1038 q 317 1143 288 1106 q 391 1208 346 1181 q 483 1235 436 1235 q 576 1208 531 1235 q 653 1144 622 1182 q 683 1072 683 1107 q 663 1017 683 1038 q 604 996 642 996 q 539 1017 569 996 q 486 1068 508 1039 q 433 1017 464 1039 q 367 996 401 996 m 251 -3 q 101 90 156 -3 q 36 335 46 183 q 77 666 25 522 q 235 890 129 810 q 486 971 340 971 q 738 890 633 971 q 895 667 843 810 q 935 335 947 524 q 870 89 925 179 q 719 -1 815 -1 q 636 19 665 -1 q 595 70 607 39 q 583 134 583 101 q 588 190 583 167 q 483 188 543 189 q 383 190 424 188 q 388 134 388 167 q 376 70 388 101 q 335 18 364 39 q 251 -3 306 -3 m 374 438 q 593 438 483 442 q 592 531 600 486 q 557 603 583 575 q 482 631 531 631 q 408 603 433 631 q 374 531 382 575 q 374 438 367 488 z "},"Ậ":{"ha":971,"x_min":25,"x_max":947,"o":"m 251 -3 q 101 90 156 -3 q 36 335 46 183 q 77 666 25 522 q 235 890 129 810 q 486 971 340 971 q 738 890 633 971 q 895 667 843 810 q 935 335 947 524 q 870 89 925 179 q 719 -1 815 -1 q 636 19 665 -1 q 595 70 607 39 q 583 134 583 101 q 588 190 583 167 q 483 188 543 189 q 383 190 424 188 q 388 134 388 167 q 376 70 388 101 q 335 18 364 39 q 251 -3 306 -3 m 374 438 q 593 438 483 442 q 592 531 600 486 q 557 603 583 575 q 482 631 531 631 q 408 603 433 631 q 374 531 382 575 q 374 438 367 488 m 486 -200 q 417 -171 446 -200 q 389 -103 389 -142 q 417 -34 389 -62 q 486 -6 446 -6 q 555 -34 526 -6 q 583 -103 583 -62 q 555 -171 583 -142 q 486 -200 526 -200 m 367 996 q 308 1017 329 996 q 288 1072 288 1038 q 317 1143 288 1106 q 391 1208 346 1181 q 483 1235 436 1235 q 576 1208 531 1235 q 653 1144 622 1182 q 683 1072 683 1107 q 663 1017 683 1038 q 604 996 642 996 q 539 1017 569 996 q 486 1068 508 1039 q 433 1017 464 1039 q 367 996 401 996 z "},"Ầ":{"ha":971,"x_min":25,"x_max":947,"o":"m 672 1211 q 624 1226 653 1211 q 568 1263 596 1240 q 522 1308 540 1285 q 503 1350 503 1331 q 523 1403 501 1375 q 585 1431 544 1431 q 631 1413 604 1431 q 681 1370 657 1396 q 721 1318 706 1344 q 736 1274 736 1292 q 719 1232 736 1253 q 672 1211 701 1211 m 367 996 q 308 1017 329 996 q 288 1072 288 1038 q 317 1143 288 1106 q 391 1208 346 1181 q 483 1235 436 1235 q 576 1208 531 1235 q 653 1144 622 1182 q 683 1072 683 1107 q 663 1017 683 1038 q 604 996 642 996 q 539 1017 569 996 q 486 1068 508 1039 q 433 1017 464 1039 q 367 996 401 996 m 251 -3 q 101 90 156 -3 q 36 335 46 183 q 77 666 25 522 q 235 890 129 810 q 486 971 340 971 q 738 890 633 971 q 895 667 843 810 q 935 335 947 524 q 870 89 925 179 q 719 -1 815 -1 q 636 19 665 -1 q 595 70 607 39 q 583 134 583 101 q 588 190 583 167 q 483 188 543 189 q 383 190 424 188 q 388 134 388 167 q 376 70 388 101 q 335 18 364 39 q 251 -3 306 -3 m 374 438 q 593 438 483 442 q 592 531 600 486 q 557 603 583 575 q 482 631 531 631 q 408 603 433 631 q 374 531 382 575 q 374 438 367 488 z "},"Ẩ":{"ha":971,"x_min":25,"x_max":947,"o":"m 651 1190 q 619 1199 633 1190 q 606 1226 606 1208 q 614 1248 606 1243 q 631 1256 622 1253 q 639 1268 639 1260 q 627 1280 639 1279 q 601 1281 615 1281 q 570 1289 583 1281 q 557 1319 557 1297 q 571 1350 557 1339 q 603 1366 585 1361 q 633 1371 621 1371 q 711 1346 682 1371 q 740 1281 740 1321 q 711 1213 740 1235 q 651 1190 682 1190 m 367 996 q 308 1017 329 996 q 288 1072 288 1038 q 317 1143 288 1106 q 391 1208 346 1181 q 483 1235 436 1235 q 576 1208 531 1235 q 653 1144 622 1182 q 683 1072 683 1107 q 663 1017 683 1038 q 604 996 642 996 q 539 1017 569 996 q 486 1068 508 1039 q 433 1017 464 1039 q 367 996 401 996 m 251 -3 q 101 90 156 -3 q 36 335 46 183 q 77 666 25 522 q 235 890 129 810 q 486 971 340 971 q 738 890 633 971 q 895 667 843 810 q 935 335 947 524 q 870 89 925 179 q 719 -1 815 -1 q 636 19 665 -1 q 595 70 607 39 q 583 134 583 101 q 588 190 583 167 q 483 188 543 189 q 383 190 424 188 q 388 134 388 167 q 376 70 388 101 q 335 18 364 39 q 251 -3 306 -3 m 374 438 q 593 438 483 442 q 592 531 600 486 q 557 603 583 575 q 482 631 531 631 q 408 603 433 631 q 374 531 382 575 q 374 438 367 488 z "},"Ẫ":{"ha":971,"x_min":25,"x_max":947,"o":"m 347 1251 q 298 1269 318 1251 q 278 1321 278 1286 q 294 1367 278 1344 q 339 1406 311 1390 q 400 1422 367 1422 q 463 1413 443 1422 q 496 1395 483 1404 q 529 1386 508 1386 q 567 1394 556 1386 q 588 1411 578 1403 q 622 1419 599 1419 q 670 1402 650 1419 q 690 1351 690 1385 q 674 1304 690 1328 q 629 1265 657 1281 q 568 1249 601 1249 q 506 1258 526 1249 q 472 1276 485 1267 q 440 1285 460 1285 q 403 1276 414 1285 q 381 1260 392 1268 q 347 1251 371 1251 m 367 996 q 308 1017 329 996 q 288 1072 288 1038 q 317 1143 288 1106 q 391 1208 346 1181 q 483 1235 436 1235 q 576 1208 531 1235 q 653 1144 622 1182 q 683 1072 683 1107 q 663 1017 683 1038 q 604 996 642 996 q 539 1017 569 996 q 486 1068 508 1039 q 433 1017 464 1039 q 367 996 401 996 m 251 -3 q 101 90 156 -3 q 36 335 46 183 q 77 666 25 522 q 235 890 129 810 q 486 971 340 971 q 738 890 633 971 q 895 667 843 810 q 935 335 947 524 q 870 89 925 179 q 719 -1 815 -1 q 636 19 665 -1 q 595 70 607 39 q 583 134 583 101 q 588 190 583 167 q 483 188 543 189 q 383 190 424 188 q 388 134 388 167 q 376 70 388 101 q 335 18 364 39 q 251 -3 306 -3 m 374 438 q 593 438 483 442 q 592 531 600 486 q 557 603 583 575 q 482 631 531 631 q 408 603 433 631 q 374 531 382 575 q 374 438 367 488 z "},"Ȁ":{"ha":971,"x_min":25,"x_max":947,"o":"m 251 -3 q 101 90 156 -3 q 36 335 46 183 q 77 666 25 522 q 235 890 129 810 q 486 971 340 971 q 738 890 633 971 q 895 667 843 810 q 935 335 947 524 q 870 89 925 179 q 719 -1 815 -1 q 636 19 665 -1 q 595 70 607 39 q 583 134 583 101 q 588 190 583 167 q 483 188 543 189 q 383 190 424 188 q 388 134 388 167 q 376 70 388 101 q 335 18 364 39 q 251 -3 306 -3 m 374 438 q 593 438 483 442 q 592 531 600 486 q 557 603 583 575 q 482 631 531 631 q 408 603 433 631 q 374 531 382 575 q 374 438 367 488 m 589 1044 q 543 1059 568 1044 q 494 1097 518 1074 q 455 1144 471 1119 q 439 1188 439 1168 q 460 1244 438 1215 q 525 1274 482 1274 q 569 1256 546 1274 q 613 1210 593 1238 q 644 1156 632 1183 q 657 1110 657 1129 q 639 1066 657 1088 q 589 1044 621 1044 m 361 1043 q 313 1058 340 1043 q 260 1097 286 1074 q 215 1144 233 1119 q 197 1188 197 1168 q 218 1244 196 1215 q 283 1272 240 1272 q 330 1254 304 1272 q 378 1209 356 1236 q 415 1155 400 1182 q 429 1108 429 1128 q 411 1065 429 1086 q 361 1043 393 1043 z "},"Ä":{"ha":972,"x_min":25,"x_max":947,"o":"m 251 -3 q 101 90 156 -3 q 36 335 46 183 q 77 666 25 522 q 235 890 129 810 q 486 971 340 971 q 738 890 633 971 q 895 667 843 810 q 935 335 947 524 q 870 89 925 179 q 719 -1 815 -1 q 636 19 665 -1 q 595 70 607 39 q 583 134 583 101 q 588 190 583 167 q 483 188 543 189 q 383 190 424 188 q 388 134 388 167 q 376 70 388 101 q 335 18 364 39 q 251 -3 306 -3 m 374 438 q 593 438 483 442 q 592 531 600 486 q 557 603 583 575 q 482 631 531 631 q 408 603 433 631 q 374 531 382 575 q 374 438 367 488 m 624 1008 q 548 1040 579 1008 q 517 1115 517 1072 q 548 1191 517 1160 q 624 1222 579 1222 q 699 1191 668 1222 q 731 1115 731 1160 q 699 1040 731 1072 q 624 1008 668 1008 m 351 1007 q 275 1038 307 1007 q 243 1114 243 1069 q 275 1190 243 1158 q 351 1221 307 1221 q 426 1190 396 1221 q 457 1114 457 1158 q 426 1038 457 1069 q 351 1007 396 1007 z "},"Ạ":{"ha":971,"x_min":25,"x_max":947,"o":"m 251 -3 q 101 90 156 -3 q 36 335 46 183 q 77 666 25 522 q 235 890 129 810 q 486 971 340 971 q 738 890 633 971 q 895 667 843 810 q 935 335 947 524 q 870 89 925 179 q 719 -1 815 -1 q 636 19 665 -1 q 595 70 607 39 q 583 134 583 101 q 588 190 583 167 q 483 188 543 189 q 383 190 424 188 q 388 134 388 167 q 376 70 388 101 q 335 18 364 39 q 251 -3 306 -3 m 374 438 q 593 438 483 442 q 592 531 600 486 q 557 603 583 575 q 482 631 531 631 q 408 603 433 631 q 374 531 382 575 q 374 438 367 488 m 486 1018 q 417 1047 446 1018 q 389 1115 389 1076 q 417 1184 389 1156 q 486 1213 446 1213 q 555 1184 526 1213 q 583 1115 583 1156 q 555 1047 583 1076 q 486 1018 526 1018 z "},"À":{"ha":971,"x_min":25,"x_max":947,"o":"m 251 -3 q 101 90 156 -3 q 36 335 46 183 q 77 666 25 522 q 235 890 129 810 q 486 971 340 971 q 738 890 633 971 q 895 667 843 810 q 935 335 947 524 q 870 89 925 179 q 719 -1 815 -1 q 636 19 665 -1 q 595 70 607 39 q 583 134 583 101 q 588 190 583 167 q 483 188 543 189 q 383 190 424 188 q 388 134 388 167 q 376 70 388 101 q 335 18 364 39 q 251 -3 306 -3 m 374 438 q 593 438 483 442 q 592 531 600 486 q 557 603 583 575 q 482 631 531 631 q 408 603 433 631 q 374 531 382 575 q 374 438 367 488 m 546 1006 q 496 1021 525 1006 q 438 1059 467 1036 q 388 1106 408 1082 q 368 1150 368 1131 q 389 1206 367 1178 q 454 1235 411 1235 q 503 1217 475 1235 q 556 1172 531 1199 q 597 1117 581 1144 q 614 1071 614 1090 q 596 1027 614 1049 q 546 1006 578 1006 z "},"Ả":{"ha":971,"x_min":25,"x_max":947,"o":"m 251 -3 q 101 90 156 -3 q 36 335 46 183 q 77 666 25 522 q 235 890 129 810 q 486 971 340 971 q 738 890 633 971 q 895 667 843 810 q 935 335 947 524 q 870 89 925 179 q 719 -1 815 -1 q 636 19 665 -1 q 595 70 607 39 q 583 134 583 101 q 588 190 583 167 q 483 188 543 189 q 383 190 424 188 q 388 134 388 167 q 376 70 388 101 q 335 18 364 39 q 251 -3 306 -3 m 374 438 q 593 438 483 442 q 592 531 600 486 q 557 603 583 575 q 482 631 531 631 q 408 603 433 631 q 374 531 382 575 q 374 438 367 488 m 490 1015 q 444 1028 465 1015 q 424 1068 424 1042 q 436 1099 424 1092 q 460 1112 449 1107 q 472 1129 472 1117 q 455 1147 472 1146 q 417 1147 438 1147 q 372 1159 392 1147 q 351 1206 351 1171 q 372 1249 351 1233 q 419 1272 392 1265 q 464 1279 446 1279 q 578 1243 536 1279 q 621 1147 621 1207 q 601 1074 621 1103 q 551 1030 581 1044 q 490 1015 521 1015 z "},"Ȃ":{"ha":971,"x_min":25,"x_max":947,"o":"m 251 -3 q 101 90 156 -3 q 36 335 46 183 q 77 666 25 522 q 235 890 129 810 q 486 971 340 971 q 738 890 633 971 q 895 667 843 810 q 935 335 947 524 q 870 89 925 179 q 719 -1 815 -1 q 636 19 665 -1 q 595 70 607 39 q 583 134 583 101 q 588 190 583 167 q 483 188 543 189 q 383 190 424 188 q 388 134 388 167 q 376 70 388 101 q 335 18 364 39 q 251 -3 306 -3 m 374 438 q 593 438 483 442 q 592 531 600 486 q 557 603 583 575 q 482 631 531 631 q 408 603 433 631 q 374 531 382 575 q 374 438 367 488 m 483 1240 q 586 1217 543 1240 q 653 1158 629 1193 q 676 1088 676 1122 q 661 1038 676 1063 q 610 1013 646 1013 q 556 1031 571 1013 q 528 1067 542 1049 q 485 1091 510 1092 q 442 1067 460 1090 q 411 1031 428 1049 q 361 1013 394 1013 q 310 1038 325 1013 q 294 1088 294 1063 q 317 1156 294 1121 q 383 1216 340 1192 q 483 1240 425 1240 z "},"Ā":{"ha":971,"x_min":25,"x_max":947,"o":"m 251 -3 q 101 90 156 -3 q 36 335 46 183 q 77 666 25 522 q 235 890 129 810 q 486 971 340 971 q 738 890 633 971 q 895 667 843 810 q 935 335 947 524 q 870 89 925 179 q 719 -1 815 -1 q 636 19 665 -1 q 595 70 607 39 q 583 134 583 101 q 588 190 583 167 q 483 188 543 189 q 383 190 424 188 q 388 134 388 167 q 376 70 388 101 q 335 18 364 39 q 251 -3 306 -3 m 374 438 q 593 438 483 442 q 592 531 600 486 q 557 603 583 575 q 482 631 531 631 q 408 603 433 631 q 374 531 382 575 q 374 438 367 488 m 485 1035 q 398 1035 443 1035 q 315 1042 353 1035 q 254 1067 278 1049 q 231 1124 231 1086 q 254 1179 231 1160 q 315 1207 278 1199 q 398 1217 353 1215 q 485 1218 443 1218 q 572 1217 528 1218 q 655 1207 617 1215 q 717 1179 693 1199 q 740 1124 740 1160 q 717 1067 740 1086 q 655 1042 693 1049 q 572 1035 617 1035 q 485 1035 528 1035 z "},"Ą":{"ha":971,"x_min":25,"x_max":947,"o":"m 251 -3 q 101 90 156 -3 q 36 335 46 183 q 77 666 25 522 q 235 890 129 810 q 486 971 340 971 q 738 890 633 971 q 895 667 843 810 q 935 335 947 524 q 870 89 925 179 q 719 -1 815 -1 q 636 19 665 -1 q 595 70 607 39 q 583 134 583 101 q 588 190 583 167 q 483 188 543 189 q 383 190 424 188 q 388 134 388 167 q 376 70 388 101 q 335 18 364 39 q 251 -3 306 -3 m 374 438 q 593 438 483 442 q 592 531 600 486 q 557 603 583 575 q 482 631 531 631 q 408 603 433 631 q 374 531 382 575 q 374 438 367 488 m 711 -267 q 581 -225 631 -267 q 531 -94 531 -183 q 550 -13 531 -50 q 599 52 569 24 q 660 96 629 81 q 717 111 692 111 l 839 111 q 869 88 883 111 q 789 7 854 64 q 744 -32 767 -12 q 722 -78 722 -51 q 740 -110 722 -103 q 772 -117 757 -117 q 819 -133 799 -117 q 839 -187 839 -149 q 810 -244 839 -221 q 711 -267 781 -267 z "},"Å":{"ha":971,"x_min":25,"x_max":947,"o":"m 251 -3 q 101 90 156 -3 q 36 335 46 183 q 77 666 25 522 q 235 890 129 810 q 486 971 340 971 q 738 890 633 971 q 895 667 843 810 q 935 335 947 524 q 870 89 925 179 q 719 -1 815 -1 q 636 19 665 -1 q 595 70 607 39 q 583 134 583 101 q 588 190 583 167 q 483 188 543 189 q 383 190 424 188 q 388 134 388 167 q 376 70 388 101 q 335 18 364 39 q 251 -3 306 -3 m 374 438 q 593 438 483 442 q 592 531 600 486 q 557 603 583 575 q 482 631 531 631 q 408 603 433 631 q 374 531 382 575 q 374 438 367 488 m 486 883 q 400 907 439 883 q 337 969 361 931 q 313 1056 313 1008 q 337 1141 313 1101 q 400 1204 361 1181 q 486 1228 439 1228 q 571 1204 532 1228 q 634 1141 610 1181 q 658 1056 658 1101 q 634 969 658 1008 q 571 907 610 931 q 486 883 532 883 m 486 1006 q 518 1020 504 1006 q 532 1053 532 1035 q 518 1085 532 1071 q 486 1100 504 1100 q 452 1085 467 1100 q 438 1053 438 1071 q 452 1020 438 1035 q 486 1006 467 1006 z "},"Ǻ":{"ha":971,"x_min":25,"x_max":947,"o":"m 251 -3 q 101 90 156 -3 q 36 335 46 183 q 77 666 25 522 q 235 890 129 810 q 486 971 340 971 q 738 890 633 971 q 895 667 843 810 q 935 335 947 524 q 870 89 925 179 q 719 -1 815 -1 q 636 19 665 -1 q 595 70 607 39 q 583 134 583 101 q 588 190 583 167 q 483 188 543 189 q 383 190 424 188 q 388 134 388 167 q 376 70 388 101 q 335 18 364 39 q 251 -3 306 -3 m 374 438 q 593 438 483 442 q 592 531 600 486 q 557 603 583 575 q 482 631 531 631 q 408 603 433 631 q 374 531 382 575 q 374 438 367 488 m 486 860 q 400 883 439 860 q 337 946 361 907 q 313 1032 313 985 q 337 1117 313 1078 q 400 1181 361 1157 q 486 1204 439 1204 q 571 1181 532 1204 q 634 1117 610 1157 q 658 1032 658 1078 q 634 946 658 985 q 571 883 610 907 q 486 860 532 860 m 486 982 q 518 997 504 982 q 532 1029 532 1011 q 518 1062 532 1047 q 486 1076 504 1076 q 452 1062 467 1076 q 438 1029 438 1047 q 452 997 438 1011 q 486 982 467 982 m 436 1204 q 387 1226 406 1204 q 368 1269 368 1247 q 385 1316 368 1289 q 426 1370 401 1343 q 479 1415 451 1397 q 528 1433 507 1433 q 593 1405 571 1433 q 614 1349 615 1376 q 594 1305 614 1329 q 544 1258 574 1281 q 486 1219 515 1235 q 436 1204 457 1204 z "},"Ã":{"ha":971,"x_min":25,"x_max":947,"o":"m 251 -3 q 101 90 156 -3 q 36 335 46 183 q 77 666 25 522 q 235 890 129 810 q 486 971 340 971 q 738 890 633 971 q 895 667 843 810 q 935 335 947 524 q 870 89 925 179 q 719 -1 815 -1 q 636 19 665 -1 q 595 70 607 39 q 583 134 583 101 q 588 190 583 167 q 483 188 543 189 q 383 190 424 188 q 388 134 388 167 q 376 70 388 101 q 335 18 364 39 q 251 -3 306 -3 m 374 438 q 593 438 483 442 q 592 531 600 486 q 557 603 583 575 q 482 631 531 631 q 408 603 433 631 q 374 531 382 575 q 374 438 367 488 m 311 1021 q 249 1043 275 1021 q 224 1108 224 1065 q 245 1168 224 1139 q 302 1217 267 1197 q 379 1238 338 1238 q 459 1226 433 1238 q 501 1203 485 1215 q 542 1192 517 1192 q 590 1203 575 1192 q 617 1224 604 1214 q 660 1235 631 1235 q 722 1213 696 1235 q 747 1147 747 1190 q 726 1088 747 1118 q 669 1038 704 1058 q 592 1018 635 1018 q 513 1029 539 1018 q 470 1051 486 1040 q 429 1063 454 1063 q 381 1052 396 1063 q 354 1031 367 1042 q 311 1021 342 1021 z "},"Æ":{"ha":1392,"x_min":64,"x_max":1357,"o":"m 251 -3 q 115 90 167 -3 q 64 349 64 182 q 115 676 64 536 q 267 893 167 815 q 514 971 368 971 q 651 949 589 971 q 763 886 714 928 q 873 950 810 928 q 1017 972 936 972 q 1187 955 1121 972 q 1290 908 1253 938 q 1342 844 1328 879 q 1357 774 1357 810 q 1313 677 1357 718 q 1164 636 1268 636 q 1023 613 1074 636 q 953 533 972 590 q 1030 535 988 535 q 1115 535 1072 536 q 1192 533 1158 535 q 1240 528 1225 531 q 1314 490 1289 518 q 1339 425 1339 461 q 1315 363 1339 390 q 1239 324 1292 335 q 1173 318 1221 319 q 1068 316 1125 317 q 965 317 1011 315 q 1038 250 989 272 q 1164 228 1086 228 q 1300 208 1254 228 q 1346 135 1346 188 q 1322 67 1346 99 q 1235 18 1297 36 q 1061 0 1174 0 q 947 8 1000 0 q 847 33 893 17 q 753 0 810 0 q 657 28 689 0 q 614 101 625 57 q 601 190 603 144 q 497 188 557 189 q 397 190 438 188 q 393 134 396 167 q 377 70 390 101 q 335 18 364 39 q 251 -3 306 -3 m 607 438 q 604 531 613 486 q 570 603 596 575 q 496 631 544 631 q 428 603 454 631 q 393 531 403 575 q 388 438 383 488 q 607 438 497 442 z "},"Ǽ":{"ha":1392,"x_min":64,"x_max":1357,"o":"m 251 -3 q 115 90 167 -3 q 64 349 64 182 q 115 676 64 536 q 267 893 167 815 q 514 971 368 971 q 651 949 589 971 q 763 886 714 928 q 873 950 810 928 q 1017 972 936 972 q 1187 955 1121 972 q 1290 908 1253 938 q 1342 844 1328 879 q 1357 774 1357 810 q 1313 677 1357 718 q 1164 636 1268 636 q 1023 613 1074 636 q 953 533 972 590 q 1030 535 988 535 q 1115 535 1072 536 q 1192 533 1158 535 q 1240 528 1225 531 q 1314 490 1289 518 q 1339 425 1339 461 q 1315 363 1339 390 q 1239 324 1292 335 q 1173 318 1221 319 q 1068 316 1125 317 q 965 317 1011 315 q 1038 250 989 272 q 1164 228 1086 228 q 1300 208 1254 228 q 1346 135 1346 188 q 1322 67 1346 99 q 1235 18 1297 36 q 1061 0 1174 0 q 947 8 1000 0 q 847 33 893 17 q 753 0 810 0 q 657 28 689 0 q 614 101 625 57 q 601 190 603 144 q 497 188 557 189 q 397 190 438 188 q 393 134 396 167 q 377 70 390 101 q 335 18 364 39 q 251 -3 306 -3 m 607 438 q 604 531 613 486 q 570 603 596 575 q 496 631 544 631 q 428 603 454 631 q 393 531 403 575 q 388 438 383 488 q 607 438 497 442 m 750 978 q 701 999 719 978 q 682 1043 682 1021 q 699 1090 682 1063 q 740 1144 715 1117 q 793 1189 765 1171 q 842 1207 821 1207 q 907 1178 885 1207 q 928 1122 929 1150 q 908 1078 928 1103 q 858 1031 888 1054 q 800 993 829 1008 q 750 978 771 978 z "},"B":{"ha":906,"x_min":35,"x_max":876,"o":"m 494 1 q 243 50 346 3 q 88 202 140 97 q 35 481 35 307 q 84 742 35 632 q 228 912 133 851 q 460 972 322 972 q 671 938 581 972 q 813 838 761 903 q 871 685 865 774 q 842 538 876 600 q 742 426 808 475 q 830 372 790 418 q 869 261 869 326 q 851 171 869 217 q 791 86 833 125 q 676 24 749 47 q 494 1 603 1 m 399 519 q 468 508 428 507 q 540 529 508 508 q 571 593 571 550 q 552 644 571 625 q 506 672 533 664 q 449 678 478 679 q 399 665 419 676 q 363 622 372 653 q 363 562 354 592 q 399 519 372 532 m 399 194 q 468 184 428 183 q 540 203 508 185 q 571 258 571 221 q 552 303 571 286 q 506 328 533 321 q 449 333 478 335 q 399 322 419 331 q 363 285 372 311 q 363 232 354 258 q 399 194 372 206 z "},"C":{"ha":933,"x_min":35,"x_max":899,"o":"m 511 3 q 271 56 379 3 q 99 218 163 110 q 35 489 35 326 q 68 672 35 585 q 162 826 101 758 q 304 933 222 894 q 485 972 386 972 q 701 927 608 972 q 847 804 794 882 q 899 631 899 726 q 884 559 899 593 q 840 503 869 525 q 763 481 810 481 q 692 494 718 481 q 649 528 667 508 q 614 569 632 549 q 569 604 596 590 q 497 618 543 618 q 418 596 454 618 q 360 535 382 574 q 339 449 339 497 q 377 322 339 376 q 486 268 415 268 q 574 285 542 268 q 630 323 607 301 q 680 361 653 344 q 750 378 707 378 q 842 338 811 378 q 868 239 874 297 q 816 125 863 179 q 691 37 769 71 q 511 3 613 3 z "},"Ć":{"ha":933,"x_min":35,"x_max":899,"o":"m 511 3 q 271 56 379 3 q 99 218 163 110 q 35 489 35 326 q 68 672 35 585 q 162 826 101 758 q 304 933 222 894 q 485 972 386 972 q 701 927 608 972 q 847 804 794 882 q 899 631 899 726 q 884 559 899 593 q 840 503 869 525 q 763 481 810 481 q 692 494 718 481 q 649 528 667 508 q 614 569 632 549 q 569 604 596 590 q 497 618 543 618 q 418 596 454 618 q 360 535 382 574 q 339 449 339 497 q 377 322 339 376 q 486 268 415 268 q 574 285 542 268 q 630 323 607 301 q 680 361 653 344 q 750 378 707 378 q 842 338 811 378 q 868 239 874 297 q 816 125 863 179 q 691 37 769 71 q 511 3 613 3 m 432 1019 q 383 1041 401 1019 q 364 1085 364 1063 q 381 1131 364 1104 q 422 1185 397 1158 q 475 1231 447 1213 q 524 1249 503 1249 q 589 1220 567 1249 q 610 1164 611 1192 q 590 1120 610 1144 q 540 1073 569 1096 q 482 1035 511 1050 q 432 1019 453 1019 z "},"Č":{"ha":933,"x_min":35,"x_max":899,"o":"m 511 3 q 271 56 379 3 q 99 218 163 110 q 35 489 35 326 q 68 672 35 585 q 162 826 101 758 q 304 933 222 894 q 485 972 386 972 q 701 927 608 972 q 847 804 794 882 q 899 631 899 726 q 884 559 899 593 q 840 503 869 525 q 763 481 810 481 q 692 494 718 481 q 649 528 667 508 q 614 569 632 549 q 569 604 596 590 q 497 618 543 618 q 418 596 454 618 q 360 535 382 574 q 339 449 339 497 q 377 322 339 376 q 486 268 415 268 q 574 285 542 268 q 630 323 607 301 q 680 361 653 344 q 750 378 707 378 q 842 338 811 378 q 868 239 874 297 q 816 125 863 179 q 691 37 769 71 q 511 3 613 3 m 349 1253 q 415 1231 383 1253 q 468 1181 446 1210 q 521 1231 490 1210 q 586 1253 551 1253 q 644 1233 624 1253 q 665 1176 665 1213 q 635 1104 665 1142 q 558 1040 604 1067 q 465 1014 513 1014 q 373 1041 418 1014 q 299 1106 328 1068 q 269 1176 269 1144 q 290 1233 269 1213 q 349 1253 311 1253 z "},"Ç":{"ha":933,"x_min":35,"x_max":899,"o":"m 511 3 q 271 56 379 3 q 99 218 163 110 q 35 489 35 326 q 68 672 35 585 q 162 826 101 758 q 304 933 222 894 q 485 972 386 972 q 701 927 608 972 q 847 804 794 882 q 899 631 899 726 q 884 559 899 593 q 840 503 869 525 q 763 481 810 481 q 692 494 718 481 q 649 528 667 508 q 614 569 632 549 q 569 604 596 590 q 497 618 543 618 q 418 596 454 618 q 360 535 382 574 q 339 449 339 497 q 377 322 339 376 q 486 268 415 268 q 574 285 542 268 q 630 323 607 301 q 680 361 653 344 q 750 378 707 378 q 842 338 811 378 q 868 239 874 297 q 816 125 863 179 q 691 37 769 71 q 511 3 613 3 m 488 -342 q 363 -311 410 -342 q 315 -239 315 -281 q 333 -189 315 -204 q 378 -174 351 -174 q 441 -188 418 -174 q 486 -203 464 -203 q 509 -199 497 -203 q 521 -179 521 -194 q 491 -149 521 -160 q 418 -139 461 -139 q 365 -119 383 -139 q 346 -69 346 -100 q 358 -22 346 -49 q 391 32 371 6 q 435 75 411 58 q 482 92 460 92 q 538 81 514 92 q 563 44 563 71 q 531 -29 563 10 q 656 -74 604 -33 q 707 -171 707 -114 q 677 -260 707 -221 q 597 -320 647 -299 q 488 -342 547 -342 z "},"Ĉ":{"ha":933,"x_min":35,"x_max":899,"o":"m 511 3 q 271 56 379 3 q 99 218 163 110 q 35 489 35 326 q 68 672 35 585 q 162 826 101 758 q 304 933 222 894 q 485 972 386 972 q 701 927 608 972 q 847 804 794 882 q 899 631 899 726 q 884 559 899 593 q 840 503 869 525 q 763 481 810 481 q 692 494 718 481 q 649 528 667 508 q 614 569 632 549 q 569 604 596 590 q 497 618 543 618 q 418 596 454 618 q 360 535 382 574 q 339 449 339 497 q 377 322 339 376 q 486 268 415 268 q 574 285 542 268 q 630 323 607 301 q 680 361 653 344 q 750 378 707 378 q 842 338 811 378 q 868 239 874 297 q 816 125 863 179 q 691 37 769 71 q 511 3 613 3 m 349 1010 q 290 1031 311 1010 q 269 1086 269 1051 q 299 1157 269 1119 q 373 1222 328 1194 q 465 1249 418 1249 q 558 1222 513 1249 q 635 1158 604 1196 q 665 1086 665 1121 q 644 1031 665 1051 q 586 1010 624 1010 q 521 1031 551 1010 q 468 1082 490 1053 q 415 1031 446 1053 q 349 1010 383 1010 z "},"Ċ":{"ha":933,"x_min":35,"x_max":899,"o":"m 511 3 q 271 56 379 3 q 99 218 163 110 q 35 489 35 326 q 68 672 35 585 q 162 826 101 758 q 304 933 222 894 q 485 972 386 972 q 701 927 608 972 q 847 804 794 882 q 899 631 899 726 q 884 559 899 593 q 840 503 869 525 q 763 481 810 481 q 692 494 718 481 q 649 528 667 508 q 614 569 632 549 q 569 604 596 590 q 497 618 543 618 q 418 596 454 618 q 360 535 382 574 q 339 449 339 497 q 377 322 339 376 q 486 268 415 268 q 574 285 542 268 q 630 323 607 301 q 680 361 653 344 q 750 378 707 378 q 842 338 811 378 q 868 239 874 297 q 816 125 863 179 q 691 37 769 71 q 511 3 613 3 m 467 1018 q 398 1047 426 1018 q 369 1115 369 1076 q 398 1184 369 1156 q 467 1213 426 1213 q 535 1184 507 1213 q 564 1115 564 1156 q 535 1047 564 1076 q 467 1018 507 1018 z "},"D":{"ha":938,"x_min":35,"x_max":903,"o":"m 425 0 q 211 24 290 0 q 94 103 132 49 q 46 249 57 157 q 35 475 35 340 q 45 705 35 610 q 92 859 56 800 q 208 945 129 918 q 421 972 286 972 q 543 956 478 972 q 672 906 608 940 q 788 813 736 871 q 872 671 840 754 q 903 474 903 588 q 870 284 903 364 q 785 149 838 204 q 669 62 733 94 q 542 15 606 29 q 425 0 478 0 m 339 244 q 538 278 467 225 q 610 438 610 331 q 538 581 610 535 q 339 608 467 628 l 339 244 z "},"Ǆ":{"ha":1774,"x_min":35,"x_max":1739,"o":"m 425 0 q 211 24 290 0 q 94 103 132 49 q 46 249 57 157 q 35 475 35 340 q 45 705 35 610 q 92 859 56 800 q 208 945 129 918 q 421 972 286 972 q 543 956 478 972 q 672 906 608 940 q 788 813 736 871 q 872 671 840 754 q 903 474 903 588 q 870 284 903 364 q 785 149 838 204 q 669 62 733 94 q 542 15 606 29 q 425 0 478 0 m 339 244 q 538 278 467 225 q 610 438 610 331 q 538 581 610 535 q 339 608 467 628 l 339 244 m 1328 0 q 1188 5 1258 0 q 1060 30 1118 10 q 968 93 1003 50 q 933 211 933 136 q 968 310 933 260 q 1056 410 1003 361 q 1171 504 1110 460 q 1283 585 1232 549 q 1163 582 1228 579 q 1039 603 1097 585 q 943 658 981 621 q 906 758 906 696 q 954 881 906 835 q 1085 947 1003 926 q 1268 968 1168 968 q 1442 959 1358 968 q 1593 924 1526 950 q 1699 848 1660 899 q 1739 714 1739 797 q 1710 596 1739 651 q 1635 492 1682 540 q 1530 402 1588 443 q 1414 328 1472 361 q 1535 321 1476 326 q 1638 299 1593 315 q 1710 251 1683 283 q 1736 165 1736 219 q 1697 69 1736 103 q 1594 20 1657 35 q 1461 3 1532 6 q 1328 0 1390 0 m 1204 1239 q 1270 1217 1239 1239 q 1324 1167 1301 1196 q 1376 1217 1346 1196 q 1442 1239 1407 1239 q 1500 1219 1479 1239 q 1521 1163 1521 1199 q 1490 1090 1521 1128 q 1414 1026 1460 1053 q 1321 1000 1368 1000 q 1228 1027 1274 1000 q 1154 1092 1183 1054 q 1125 1163 1125 1131 q 1146 1219 1125 1199 q 1204 1239 1167 1239 z "},"Ð":{"ha":1083,"x_min":35,"x_max":1049,"o":"m 571 0 q 385 17 458 0 q 270 70 313 33 q 209 167 228 107 q 185 315 190 228 q 78 343 121 321 q 35 426 35 365 q 76 510 35 485 q 181 542 118 535 q 196 740 182 658 q 249 874 210 822 q 364 949 288 925 q 567 972 440 972 q 689 956 624 972 q 818 906 754 940 q 934 813 882 871 q 1017 671 986 754 q 1049 474 1049 588 q 1016 284 1049 364 q 931 149 983 204 q 815 62 879 94 q 688 15 751 29 q 571 0 624 0 m 485 244 q 684 278 613 225 q 756 438 756 331 q 684 581 756 535 q 485 608 613 628 l 485 543 q 594 511 550 536 q 639 426 639 486 q 594 342 639 365 q 485 315 550 319 l 485 244 z "},"Ď":{"ha":938,"x_min":35,"x_max":903,"o":"m 425 0 q 211 24 290 0 q 94 103 132 49 q 46 249 57 157 q 35 475 35 340 q 45 705 35 610 q 92 859 56 800 q 208 945 129 918 q 421 972 286 972 q 543 956 478 972 q 672 906 608 940 q 788 813 736 871 q 872 671 840 754 q 903 474 903 588 q 870 284 903 364 q 785 149 838 204 q 669 62 733 94 q 542 15 606 29 q 425 0 478 0 m 339 244 q 538 278 467 225 q 610 438 610 331 q 538 581 610 535 q 339 608 467 628 l 339 244 m 325 1253 q 391 1231 360 1253 q 444 1181 422 1210 q 497 1231 467 1210 q 563 1253 528 1253 q 621 1233 600 1253 q 642 1176 642 1213 q 611 1104 642 1142 q 535 1040 581 1067 q 442 1014 489 1014 q 349 1041 394 1014 q 275 1106 304 1068 q 246 1176 246 1144 q 267 1233 246 1213 q 325 1253 288 1253 z "},"Đ":{"ha":1083,"x_min":181,"x_max":1049,"o":"m 571 0 q 357 24 436 0 q 240 103 278 49 q 192 249 203 157 q 181 475 181 340 q 191 705 181 610 q 238 859 201 800 q 353 945 275 918 q 567 972 432 972 q 689 956 624 972 q 818 906 754 940 q 934 813 882 871 q 1017 671 986 754 q 1049 474 1049 588 q 1016 284 1049 364 q 931 149 983 204 q 815 62 879 94 q 688 15 751 29 q 571 0 624 0 m 485 244 q 684 278 613 225 q 756 438 756 331 q 684 581 756 535 q 485 608 613 628 l 485 244 z "},"ǅ":{"ha":1579,"x_min":35,"x_max":1544,"o":"m 425 0 q 211 24 290 0 q 94 103 132 49 q 46 249 57 157 q 35 475 35 340 q 45 705 35 610 q 92 859 56 800 q 208 945 129 918 q 421 972 286 972 q 543 956 478 972 q 672 906 608 940 q 788 813 736 871 q 872 671 840 754 q 903 474 903 588 q 870 284 903 364 q 785 149 838 204 q 669 62 733 94 q 542 15 606 29 q 425 0 478 0 m 339 244 q 538 278 467 225 q 610 438 610 331 q 538 581 610 535 q 339 608 467 628 l 339 244 m 1253 1 q 1099 11 1163 1 q 1001 53 1035 21 q 967 154 967 86 q 998 235 967 196 q 1082 316 1029 275 q 1200 403 1135 357 q 1063 408 1119 403 q 975 438 1006 413 q 944 524 944 464 q 1022 625 944 597 q 1242 653 1100 653 q 1406 640 1338 653 q 1509 590 1474 626 q 1544 486 1544 554 q 1510 381 1544 431 q 1422 291 1475 331 q 1315 224 1369 251 q 1431 218 1381 224 q 1510 190 1482 213 q 1539 119 1539 168 q 1504 43 1539 68 q 1406 10 1469 18 q 1253 1 1342 1 m 1106 942 q 1172 920 1140 942 q 1225 869 1203 899 q 1278 920 1247 899 q 1343 942 1308 942 q 1401 922 1381 942 q 1422 865 1422 901 q 1392 793 1422 831 q 1315 729 1361 756 q 1222 703 1269 703 q 1130 730 1175 703 q 1056 795 1085 757 q 1026 865 1026 833 q 1047 922 1026 901 q 1106 942 1068 942 z "},"E":{"ha":840,"x_min":35,"x_max":806,"o":"m 510 0 q 388 8 453 0 q 261 43 324 17 q 147 121 199 69 q 65 258 96 172 q 35 469 35 343 q 82 722 35 608 q 225 904 129 836 q 465 972 321 972 q 635 954 569 972 q 739 907 701 936 q 791 843 776 878 q 806 774 806 808 q 787 704 806 738 q 728 651 768 671 q 647 635 689 633 q 572 638 606 638 q 459 612 500 638 q 401 533 418 586 q 451 535 424 535 q 507 536 478 536 q 616 534 564 536 q 689 528 668 532 q 763 490 738 518 q 788 425 788 461 q 764 363 788 390 q 688 324 740 335 q 613 317 668 319 q 499 315 558 315 q 453 316 475 315 q 413 317 431 317 q 472 249 432 274 q 574 225 511 225 q 642 230 597 225 q 728 222 686 235 q 794 135 794 201 q 770 67 794 99 q 684 18 746 36 q 510 0 622 0 z "},"É":{"ha":840,"x_min":35,"x_max":806,"o":"m 510 0 q 388 8 453 0 q 261 43 324 17 q 147 121 199 69 q 65 258 96 172 q 35 469 35 343 q 82 722 35 608 q 225 904 129 836 q 465 972 321 972 q 635 954 569 972 q 739 907 701 936 q 791 843 776 878 q 806 774 806 808 q 787 704 806 738 q 728 651 768 671 q 647 635 689 633 q 572 638 606 638 q 459 612 500 638 q 401 533 418 586 q 451 535 424 535 q 507 536 478 536 q 616 534 564 536 q 689 528 668 532 q 763 490 738 518 q 788 425 788 461 q 764 363 788 390 q 688 324 740 335 q 613 317 668 319 q 499 315 558 315 q 453 316 475 315 q 413 317 431 317 q 472 249 432 274 q 574 225 511 225 q 642 230 597 225 q 728 222 686 235 q 794 135 794 201 q 770 67 794 99 q 684 18 746 36 q 510 0 622 0 m 440 1006 q 391 1027 410 1006 q 372 1071 372 1049 q 389 1117 372 1090 q 431 1172 406 1144 q 483 1217 456 1199 q 532 1235 511 1235 q 597 1206 575 1235 q 618 1150 619 1178 q 598 1106 618 1131 q 549 1059 578 1082 q 490 1021 519 1036 q 440 1006 461 1006 z "},"Ĕ":{"ha":840,"x_min":35,"x_max":806,"o":"m 510 0 q 388 8 453 0 q 261 43 324 17 q 147 121 199 69 q 65 258 96 172 q 35 469 35 343 q 82 722 35 608 q 225 904 129 836 q 465 972 321 972 q 635 954 569 972 q 739 907 701 936 q 791 843 776 878 q 806 774 806 808 q 787 704 806 738 q 728 651 768 671 q 647 635 689 633 q 572 638 606 638 q 459 612 500 638 q 401 533 418 586 q 451 535 424 535 q 507 536 478 536 q 616 534 564 536 q 689 528 668 532 q 763 490 738 518 q 788 425 788 461 q 764 363 788 390 q 688 324 740 335 q 613 317 668 319 q 499 315 558 315 q 453 316 475 315 q 413 317 431 317 q 472 249 432 274 q 574 225 511 225 q 642 230 597 225 q 728 222 686 235 q 794 135 794 201 q 770 67 794 99 q 684 18 746 36 q 510 0 622 0 m 460 1014 q 359 1038 401 1014 q 294 1099 317 1063 q 271 1167 271 1135 q 286 1217 271 1192 q 338 1242 301 1242 q 388 1224 371 1242 q 418 1188 404 1207 q 461 1163 436 1164 q 504 1188 486 1163 q 533 1224 518 1207 q 586 1242 547 1242 q 638 1217 622 1242 q 653 1167 653 1192 q 629 1097 653 1132 q 563 1038 606 1061 q 460 1014 519 1014 z "},"Ě":{"ha":840,"x_min":35,"x_max":806,"o":"m 510 0 q 388 8 453 0 q 261 43 324 17 q 147 121 199 69 q 65 258 96 172 q 35 469 35 343 q 82 722 35 608 q 225 904 129 836 q 465 972 321 972 q 635 954 569 972 q 739 907 701 936 q 791 843 776 878 q 806 774 806 808 q 787 704 806 738 q 728 651 768 671 q 647 635 689 633 q 572 638 606 638 q 459 612 500 638 q 401 533 418 586 q 451 535 424 535 q 507 536 478 536 q 616 534 564 536 q 689 528 668 532 q 763 490 738 518 q 788 425 788 461 q 764 363 788 390 q 688 324 740 335 q 613 317 668 319 q 499 315 558 315 q 453 316 475 315 q 413 317 431 317 q 472 249 432 274 q 574 225 511 225 q 642 230 597 225 q 728 222 686 235 q 794 135 794 201 q 770 67 794 99 q 684 18 746 36 q 510 0 622 0 m 357 1253 q 423 1231 392 1253 q 476 1181 454 1210 q 529 1231 499 1210 q 594 1253 560 1253 q 653 1233 632 1253 q 674 1176 674 1213 q 643 1104 674 1142 q 567 1040 613 1067 q 474 1014 521 1014 q 381 1041 426 1014 q 307 1106 336 1068 q 278 1176 278 1144 q 299 1233 278 1213 q 357 1253 319 1253 z "},"Ê":{"ha":840,"x_min":35,"x_max":806,"o":"m 510 0 q 388 8 453 0 q 261 43 324 17 q 147 121 199 69 q 65 258 96 172 q 35 469 35 343 q 82 722 35 608 q 225 904 129 836 q 465 972 321 972 q 635 954 569 972 q 739 907 701 936 q 791 843 776 878 q 806 774 806 808 q 787 704 806 738 q 728 651 768 671 q 647 635 689 633 q 572 638 606 638 q 459 612 500 638 q 401 533 418 586 q 451 535 424 535 q 507 536 478 536 q 616 534 564 536 q 689 528 668 532 q 763 490 738 518 q 788 425 788 461 q 764 363 788 390 q 688 324 740 335 q 613 317 668 319 q 499 315 558 315 q 453 316 475 315 q 413 317 431 317 q 472 249 432 274 q 574 225 511 225 q 642 230 597 225 q 728 222 686 235 q 794 135 794 201 q 770 67 794 99 q 684 18 746 36 q 510 0 622 0 m 353 1010 q 294 1031 315 1010 q 274 1086 274 1051 q 303 1157 274 1119 q 377 1222 332 1194 q 469 1249 422 1249 q 563 1222 517 1249 q 639 1158 608 1196 q 669 1086 669 1121 q 649 1031 669 1051 q 590 1010 628 1010 q 525 1031 556 1010 q 472 1082 494 1053 q 419 1031 450 1053 q 353 1010 388 1010 z "},"Ế":{"ha":840,"x_min":35,"x_max":806,"o":"m 639 1257 q 594 1276 611 1257 q 578 1315 578 1294 q 593 1357 578 1332 q 631 1407 608 1382 q 678 1448 654 1432 q 722 1464 703 1464 q 781 1438 761 1464 q 801 1388 801 1413 q 782 1347 800 1369 q 738 1304 764 1325 q 685 1270 711 1283 q 639 1257 658 1257 m 357 1010 q 299 1031 319 1010 q 278 1086 278 1051 q 307 1157 278 1119 q 381 1222 336 1194 q 474 1249 426 1249 q 567 1222 521 1249 q 643 1158 613 1196 q 674 1086 674 1121 q 653 1031 674 1051 q 594 1010 632 1010 q 529 1031 560 1010 q 476 1082 499 1053 q 423 1031 454 1053 q 357 1010 392 1010 m 510 0 q 388 8 453 0 q 261 43 324 17 q 147 121 199 69 q 65 258 96 172 q 35 469 35 343 q 82 722 35 608 q 225 904 129 836 q 465 972 321 972 q 635 954 569 972 q 739 907 701 936 q 791 843 776 878 q 806 774 806 808 q 787 704 806 738 q 728 651 768 671 q 647 635 689 633 q 572 638 606 638 q 459 612 500 638 q 401 533 418 586 q 451 535 424 535 q 507 536 478 536 q 616 534 564 536 q 689 528 668 532 q 763 490 738 518 q 788 425 788 461 q 764 363 788 390 q 688 324 740 335 q 613 317 668 319 q 499 315 558 315 q 453 316 475 315 q 413 317 431 317 q 472 249 432 274 q 574 225 511 225 q 642 230 597 225 q 728 222 686 235 q 794 135 794 201 q 770 67 794 99 q 684 18 746 36 q 510 0 622 0 z "},"Ệ":{"ha":840,"x_min":35,"x_max":806,"o":"m 510 0 q 388 8 453 0 q 261 43 324 17 q 147 121 199 69 q 65 258 96 172 q 35 469 35 343 q 82 722 35 608 q 225 904 129 836 q 465 972 321 972 q 635 954 569 972 q 739 907 701 936 q 791 843 776 878 q 806 774 806 808 q 787 704 806 738 q 728 651 768 671 q 647 635 689 633 q 572 638 606 638 q 459 612 500 638 q 401 533 418 586 q 451 535 424 535 q 507 536 478 536 q 616 534 564 536 q 689 528 668 532 q 763 490 738 518 q 788 425 788 461 q 764 363 788 390 q 688 324 740 335 q 613 317 668 319 q 499 315 558 315 q 453 316 475 315 q 413 317 431 317 q 472 249 432 274 q 574 225 511 225 q 642 230 597 225 q 728 222 686 235 q 794 135 794 201 q 770 67 794 99 q 684 18 746 36 q 510 0 622 0 m 472 -224 q 403 -194 432 -224 q 375 -126 375 -165 q 403 -58 375 -86 q 472 -29 432 -29 q 541 -58 513 -29 q 569 -126 569 -86 q 541 -194 569 -165 q 472 -224 513 -224 m 353 1010 q 294 1031 315 1010 q 274 1086 274 1051 q 303 1157 274 1119 q 377 1222 332 1194 q 469 1249 422 1249 q 563 1222 517 1249 q 639 1158 608 1196 q 669 1086 669 1121 q 649 1031 669 1051 q 590 1010 628 1010 q 525 1031 556 1010 q 472 1082 494 1053 q 419 1031 450 1053 q 353 1010 388 1010 z "},"Ề":{"ha":840,"x_min":35,"x_max":806,"o":"m 669 1224 q 624 1237 651 1224 q 571 1271 597 1250 q 526 1314 544 1292 q 508 1354 508 1336 q 527 1405 507 1379 q 586 1431 547 1431 q 631 1415 606 1431 q 678 1374 656 1399 q 717 1324 701 1349 q 732 1282 732 1299 q 715 1242 732 1261 q 669 1224 699 1224 m 343 1010 q 285 1031 306 1010 q 264 1086 264 1051 q 293 1157 264 1119 q 367 1222 322 1194 q 460 1249 413 1249 q 553 1222 507 1249 q 629 1158 599 1196 q 660 1086 660 1121 q 639 1031 660 1051 q 581 1010 618 1010 q 515 1031 546 1010 q 463 1082 485 1053 q 409 1031 440 1053 q 343 1010 378 1010 m 510 0 q 388 8 453 0 q 261 43 324 17 q 147 121 199 69 q 65 258 96 172 q 35 469 35 343 q 82 722 35 608 q 225 904 129 836 q 465 972 321 972 q 635 954 569 972 q 739 907 701 936 q 791 843 776 878 q 806 774 806 808 q 787 704 806 738 q 728 651 768 671 q 647 635 689 633 q 572 638 606 638 q 459 612 500 638 q 401 533 418 586 q 451 535 424 535 q 507 536 478 536 q 616 534 564 536 q 689 528 668 532 q 763 490 738 518 q 788 425 788 461 q 764 363 788 390 q 688 324 740 335 q 613 317 668 319 q 499 315 558 315 q 453 316 475 315 q 413 317 431 317 q 472 249 432 274 q 574 225 511 225 q 642 230 597 225 q 728 222 686 235 q 794 135 794 201 q 770 67 794 99 q 684 18 746 36 q 510 0 622 0 z "},"Ể":{"ha":840,"x_min":35,"x_max":806,"o":"m 669 1207 q 635 1217 651 1207 q 619 1246 619 1226 q 628 1270 619 1264 q 647 1279 638 1276 q 656 1292 656 1282 q 643 1305 656 1304 q 614 1306 631 1306 q 581 1315 596 1306 q 565 1350 565 1324 q 581 1382 565 1369 q 616 1399 596 1394 q 650 1404 636 1404 q 736 1377 704 1404 q 768 1306 768 1350 q 735 1231 768 1256 q 669 1207 703 1207 m 371 1010 q 313 1031 333 1010 q 292 1086 292 1051 q 321 1157 292 1119 q 395 1222 350 1194 q 488 1249 440 1249 q 581 1222 535 1249 q 657 1158 626 1196 q 688 1086 688 1121 q 667 1031 688 1051 q 608 1010 646 1010 q 543 1031 574 1010 q 490 1082 513 1053 q 437 1031 468 1053 q 371 1010 406 1010 m 510 0 q 388 8 453 0 q 261 43 324 17 q 147 121 199 69 q 65 258 96 172 q 35 469 35 343 q 82 722 35 608 q 225 904 129 836 q 465 972 321 972 q 635 954 569 972 q 739 907 701 936 q 791 843 776 878 q 806 774 806 808 q 787 704 806 738 q 728 651 768 671 q 647 635 689 633 q 572 638 606 638 q 459 612 500 638 q 401 533 418 586 q 451 535 424 535 q 507 536 478 536 q 616 534 564 536 q 689 528 668 532 q 763 490 738 518 q 788 425 788 461 q 764 363 788 390 q 688 324 740 335 q 613 317 668 319 q 499 315 558 315 q 453 316 475 315 q 413 317 431 317 q 472 249 432 274 q 574 225 511 225 q 642 230 597 225 q 728 222 686 235 q 794 135 794 201 q 770 67 794 99 q 684 18 746 36 q 510 0 622 0 z "},"Ễ":{"ha":840,"x_min":35,"x_max":806,"o":"m 331 1269 q 283 1285 303 1269 q 264 1335 264 1301 q 299 1401 264 1369 q 382 1433 335 1433 q 443 1424 424 1433 q 474 1407 463 1415 q 506 1399 486 1399 q 541 1406 531 1399 q 562 1422 551 1414 q 594 1431 572 1431 q 641 1414 622 1431 q 660 1364 660 1397 q 644 1320 660 1343 q 601 1282 628 1297 q 543 1267 575 1267 q 483 1275 503 1267 q 451 1292 464 1283 q 419 1300 439 1300 q 384 1292 394 1300 q 363 1277 374 1285 q 331 1269 353 1269 m 343 1010 q 285 1031 306 1010 q 264 1086 264 1051 q 293 1157 264 1119 q 367 1222 322 1194 q 460 1249 413 1249 q 553 1222 507 1249 q 629 1158 599 1196 q 660 1086 660 1121 q 639 1031 660 1051 q 581 1010 618 1010 q 515 1031 546 1010 q 463 1082 485 1053 q 409 1031 440 1053 q 343 1010 378 1010 m 510 0 q 388 8 453 0 q 261 43 324 17 q 147 121 199 69 q 65 258 96 172 q 35 469 35 343 q 82 722 35 608 q 225 904 129 836 q 465 972 321 972 q 635 954 569 972 q 739 907 701 936 q 791 843 776 878 q 806 774 806 808 q 787 704 806 738 q 728 651 768 671 q 647 635 689 633 q 572 638 606 638 q 459 612 500 638 q 401 533 418 586 q 451 535 424 535 q 507 536 478 536 q 616 534 564 536 q 689 528 668 532 q 763 490 738 518 q 788 425 788 461 q 764 363 788 390 q 688 324 740 335 q 613 317 668 319 q 499 315 558 315 q 453 316 475 315 q 413 317 431 317 q 472 249 432 274 q 574 225 511 225 q 642 230 597 225 q 728 222 686 235 q 794 135 794 201 q 770 67 794 99 q 684 18 746 36 q 510 0 622 0 z "},"Ȅ":{"ha":840,"x_min":35,"x_max":806,"o":"m 510 0 q 388 8 453 0 q 261 43 324 17 q 147 121 199 69 q 65 258 96 172 q 35 469 35 343 q 82 722 35 608 q 225 904 129 836 q 465 972 321 972 q 635 954 569 972 q 739 907 701 936 q 791 843 776 878 q 806 774 806 808 q 787 704 806 738 q 728 651 768 671 q 647 635 689 633 q 572 638 606 638 q 459 612 500 638 q 401 533 418 586 q 451 535 424 535 q 507 536 478 536 q 616 534 564 536 q 689 528 668 532 q 763 490 738 518 q 788 425 788 461 q 764 363 788 390 q 688 324 740 335 q 613 317 668 319 q 499 315 558 315 q 453 316 475 315 q 413 317 431 317 q 472 249 432 274 q 574 225 511 225 q 642 230 597 225 q 728 222 686 235 q 794 135 794 201 q 770 67 794 99 q 684 18 746 36 q 510 0 622 0 m 593 1049 q 547 1063 572 1049 q 499 1101 522 1078 q 459 1148 475 1124 q 443 1192 443 1172 q 464 1249 442 1219 q 529 1278 486 1278 q 574 1260 550 1278 q 617 1215 597 1242 q 649 1160 636 1188 q 661 1114 661 1133 q 643 1070 661 1092 q 593 1049 625 1049 m 365 1047 q 317 1063 344 1047 q 264 1101 290 1078 q 219 1148 238 1124 q 201 1192 201 1172 q 222 1248 200 1219 q 288 1276 244 1276 q 334 1258 308 1276 q 382 1213 360 1240 q 419 1159 404 1186 q 433 1113 433 1132 q 415 1069 433 1090 q 365 1047 397 1047 z "},"Ë":{"ha":840,"x_min":35,"x_max":806,"o":"m 510 0 q 388 8 453 0 q 261 43 324 17 q 147 121 199 69 q 65 258 96 172 q 35 469 35 343 q 82 722 35 608 q 225 904 129 836 q 465 972 321 972 q 635 954 569 972 q 739 907 701 936 q 791 843 776 878 q 806 774 806 808 q 787 704 806 738 q 728 651 768 671 q 647 635 689 633 q 572 638 606 638 q 459 612 500 638 q 401 533 418 586 q 451 535 424 535 q 507 536 478 536 q 616 534 564 536 q 689 528 668 532 q 763 490 738 518 q 788 425 788 461 q 764 363 788 390 q 688 324 740 335 q 613 317 668 319 q 499 315 558 315 q 453 316 475 315 q 413 317 431 317 q 472 249 432 274 q 574 225 511 225 q 642 230 597 225 q 728 222 686 235 q 794 135 794 201 q 770 67 794 99 q 684 18 746 36 q 510 0 622 0 m 599 1022 q 523 1054 554 1022 q 492 1129 492 1086 q 523 1205 492 1174 q 599 1236 554 1236 q 674 1205 643 1236 q 706 1129 706 1174 q 674 1054 706 1086 q 599 1022 643 1022 m 326 1021 q 250 1052 282 1021 q 218 1128 218 1083 q 250 1203 218 1172 q 326 1235 282 1235 q 401 1203 371 1235 q 432 1128 432 1172 q 401 1052 432 1083 q 326 1021 371 1021 z "},"Ė":{"ha":840,"x_min":35,"x_max":806,"o":"m 510 0 q 388 8 453 0 q 261 43 324 17 q 147 121 199 69 q 65 258 96 172 q 35 469 35 343 q 82 722 35 608 q 225 904 129 836 q 465 972 321 972 q 635 954 569 972 q 739 907 701 936 q 791 843 776 878 q 806 774 806 808 q 787 704 806 738 q 728 651 768 671 q 647 635 689 633 q 572 638 606 638 q 459 612 500 638 q 401 533 418 586 q 451 535 424 535 q 507 536 478 536 q 616 534 564 536 q 689 528 668 532 q 763 490 738 518 q 788 425 788 461 q 764 363 788 390 q 688 324 740 335 q 613 317 668 319 q 499 315 558 315 q 453 316 475 315 q 413 317 431 317 q 472 249 432 274 q 574 225 511 225 q 642 230 597 225 q 728 222 686 235 q 794 135 794 201 q 770 67 794 99 q 684 18 746 36 q 510 0 622 0 m 417 1018 q 348 1047 376 1018 q 319 1115 319 1076 q 348 1184 319 1156 q 417 1213 376 1213 q 485 1184 457 1213 q 514 1115 514 1156 q 485 1047 514 1076 q 417 1018 457 1018 z "},"Ẹ":{"ha":840,"x_min":35,"x_max":806,"o":"m 510 0 q 388 8 453 0 q 261 43 324 17 q 147 121 199 69 q 65 258 96 172 q 35 469 35 343 q 82 722 35 608 q 225 904 129 836 q 465 972 321 972 q 635 954 569 972 q 739 907 701 936 q 791 843 776 878 q 806 774 806 808 q 787 704 806 738 q 728 651 768 671 q 647 635 689 633 q 572 638 606 638 q 459 612 500 638 q 401 533 418 586 q 451 535 424 535 q 507 536 478 536 q 616 534 564 536 q 689 528 668 532 q 763 490 738 518 q 788 425 788 461 q 764 363 788 390 q 688 324 740 335 q 613 317 668 319 q 499 315 558 315 q 453 316 475 315 q 413 317 431 317 q 472 249 432 274 q 574 225 511 225 q 642 230 597 225 q 728 222 686 235 q 794 135 794 201 q 770 67 794 99 q 684 18 746 36 q 510 0 622 0 m 463 1018 q 394 1047 422 1018 q 365 1115 365 1076 q 394 1184 365 1156 q 463 1213 422 1213 q 531 1184 503 1213 q 560 1115 560 1156 q 531 1047 560 1076 q 463 1018 503 1018 z "},"È":{"ha":840,"x_min":35,"x_max":806,"o":"m 510 0 q 388 8 453 0 q 261 43 324 17 q 147 121 199 69 q 65 258 96 172 q 35 469 35 343 q 82 722 35 608 q 225 904 129 836 q 465 972 321 972 q 635 954 569 972 q 739 907 701 936 q 791 843 776 878 q 806 774 806 808 q 787 704 806 738 q 728 651 768 671 q 647 635 689 633 q 572 638 606 638 q 459 612 500 638 q 401 533 418 586 q 451 535 424 535 q 507 536 478 536 q 616 534 564 536 q 689 528 668 532 q 763 490 738 518 q 788 425 788 461 q 764 363 788 390 q 688 324 740 335 q 613 317 668 319 q 499 315 558 315 q 453 316 475 315 q 413 317 431 317 q 472 249 432 274 q 574 225 511 225 q 642 230 597 225 q 728 222 686 235 q 794 135 794 201 q 770 67 794 99 q 684 18 746 36 q 510 0 622 0 m 532 1019 q 482 1035 511 1019 q 424 1073 453 1050 q 374 1120 394 1096 q 354 1164 354 1144 q 375 1220 353 1192 q 440 1249 397 1249 q 489 1231 461 1249 q 542 1185 517 1213 q 583 1131 567 1158 q 600 1085 600 1104 q 582 1041 600 1063 q 532 1019 564 1019 z "},"Ẻ":{"ha":840,"x_min":35,"x_max":806,"o":"m 510 0 q 388 8 453 0 q 261 43 324 17 q 147 121 199 69 q 65 258 96 172 q 35 469 35 343 q 82 722 35 608 q 225 904 129 836 q 465 972 321 972 q 635 954 569 972 q 739 907 701 936 q 791 843 776 878 q 806 774 806 808 q 787 704 806 738 q 728 651 768 671 q 647 635 689 633 q 572 638 606 638 q 459 612 500 638 q 401 533 418 586 q 451 535 424 535 q 507 536 478 536 q 616 534 564 536 q 689 528 668 532 q 763 490 738 518 q 788 425 788 461 q 764 363 788 390 q 688 324 740 335 q 613 317 668 319 q 499 315 558 315 q 453 316 475 315 q 413 317 431 317 q 472 249 432 274 q 574 225 511 225 q 642 230 597 225 q 728 222 686 235 q 794 135 794 201 q 770 67 794 99 q 684 18 746 36 q 510 0 622 0 m 460 1011 q 414 1024 435 1011 q 393 1064 393 1038 q 406 1095 393 1088 q 430 1108 418 1103 q 442 1125 442 1113 q 424 1142 442 1142 q 386 1143 407 1143 q 341 1155 361 1143 q 321 1201 321 1167 q 341 1245 321 1229 q 388 1268 361 1261 q 433 1275 415 1275 q 548 1239 506 1275 q 590 1143 590 1203 q 570 1069 590 1099 q 520 1026 550 1040 q 460 1011 490 1011 z "},"Ȇ":{"ha":840,"x_min":35,"x_max":806,"o":"m 510 0 q 388 8 453 0 q 261 43 324 17 q 147 121 199 69 q 65 258 96 172 q 35 469 35 343 q 82 722 35 608 q 225 904 129 836 q 465 972 321 972 q 635 954 569 972 q 739 907 701 936 q 791 843 776 878 q 806 774 806 808 q 787 704 806 738 q 728 651 768 671 q 647 635 689 633 q 572 638 606 638 q 459 612 500 638 q 401 533 418 586 q 451 535 424 535 q 507 536 478 536 q 616 534 564 536 q 689 528 668 532 q 763 490 738 518 q 788 425 788 461 q 764 363 788 390 q 688 324 740 335 q 613 317 668 319 q 499 315 558 315 q 453 316 475 315 q 413 317 431 317 q 472 249 432 274 q 574 225 511 225 q 642 230 597 225 q 728 222 686 235 q 794 135 794 201 q 770 67 794 99 q 684 18 746 36 q 510 0 622 0 m 460 1240 q 563 1217 519 1240 q 629 1158 606 1193 q 653 1088 653 1122 q 638 1038 653 1063 q 586 1013 622 1013 q 533 1031 547 1013 q 504 1067 518 1049 q 461 1091 486 1092 q 418 1067 436 1090 q 388 1031 404 1049 q 338 1013 371 1013 q 286 1038 301 1013 q 271 1088 271 1063 q 294 1156 271 1121 q 359 1216 317 1192 q 460 1240 401 1240 z "},"Ē":{"ha":840,"x_min":35,"x_max":806,"o":"m 510 0 q 388 8 453 0 q 261 43 324 17 q 147 121 199 69 q 65 258 96 172 q 35 469 35 343 q 82 722 35 608 q 225 904 129 836 q 465 972 321 972 q 635 954 569 972 q 739 907 701 936 q 791 843 776 878 q 806 774 806 808 q 787 704 806 738 q 728 651 768 671 q 647 635 689 633 q 572 638 606 638 q 459 612 500 638 q 401 533 418 586 q 451 535 424 535 q 507 536 478 536 q 616 534 564 536 q 689 528 668 532 q 763 490 738 518 q 788 425 788 461 q 764 363 788 390 q 688 324 740 335 q 613 317 668 319 q 499 315 558 315 q 453 316 475 315 q 413 317 431 317 q 472 249 432 274 q 574 225 511 225 q 642 230 597 225 q 728 222 686 235 q 794 135 794 201 q 770 67 794 99 q 684 18 746 36 q 510 0 622 0 m 447 1035 q 360 1035 406 1035 q 278 1042 315 1035 q 217 1067 240 1049 q 193 1124 193 1086 q 217 1179 193 1160 q 278 1207 240 1199 q 360 1217 315 1215 q 447 1218 406 1218 q 535 1217 490 1218 q 617 1207 579 1215 q 679 1179 656 1199 q 703 1124 703 1160 q 679 1067 703 1086 q 617 1042 656 1049 q 535 1035 579 1035 q 447 1035 490 1035 z "},"Ę":{"ha":840,"x_min":35,"x_max":806,"o":"m 510 0 q 388 8 453 0 q 261 43 324 17 q 147 121 199 69 q 65 258 96 172 q 35 469 35 343 q 82 722 35 608 q 225 904 129 836 q 465 972 321 972 q 635 954 569 972 q 739 907 701 936 q 791 843 776 878 q 806 774 806 808 q 787 704 806 738 q 728 651 768 671 q 647 635 689 633 q 572 638 606 638 q 459 612 500 638 q 401 533 418 586 q 451 535 424 535 q 507 536 478 536 q 616 534 564 536 q 689 528 668 532 q 763 490 738 518 q 788 425 788 461 q 764 363 788 390 q 688 324 740 335 q 613 317 668 319 q 499 315 558 315 q 453 316 475 315 q 413 317 431 317 q 472 249 432 274 q 574 225 511 225 q 642 230 597 225 q 728 222 686 235 q 794 135 794 201 q 770 67 794 99 q 684 18 746 36 q 510 0 622 0 m 625 -256 q 494 -214 544 -256 q 444 -83 444 -172 q 464 -2 444 -39 q 513 63 483 35 q 574 107 543 92 q 631 122 606 122 l 753 122 q 783 99 797 122 q 703 18 768 75 q 658 -21 681 -1 q 636 -67 636 -40 q 653 -99 636 -92 q 686 -106 671 -106 q 733 -122 713 -106 q 753 -176 753 -137 q 724 -233 753 -210 q 625 -256 694 -256 z "},"Ẽ":{"ha":840,"x_min":35,"x_max":806,"o":"m 510 0 q 388 8 453 0 q 261 43 324 17 q 147 121 199 69 q 65 258 96 172 q 35 469 35 343 q 82 722 35 608 q 225 904 129 836 q 465 972 321 972 q 635 954 569 972 q 739 907 701 936 q 791 843 776 878 q 806 774 806 808 q 787 704 806 738 q 728 651 768 671 q 647 635 689 633 q 572 638 606 638 q 459 612 500 638 q 401 533 418 586 q 451 535 424 535 q 507 536 478 536 q 616 534 564 536 q 689 528 668 532 q 763 490 738 518 q 788 425 788 461 q 764 363 788 390 q 688 324 740 335 q 613 317 668 319 q 499 315 558 315 q 453 316 475 315 q 413 317 431 317 q 472 249 432 274 q 574 225 511 225 q 642 230 597 225 q 728 222 686 235 q 794 135 794 201 q 770 67 794 99 q 684 18 746 36 q 510 0 622 0 m 281 1035 q 219 1057 244 1035 q 193 1122 193 1079 q 215 1182 193 1153 q 272 1231 236 1211 q 349 1251 307 1251 q 428 1240 403 1251 q 470 1217 454 1229 q 511 1206 486 1206 q 559 1217 544 1206 q 587 1238 574 1228 q 629 1249 600 1249 q 691 1226 665 1249 q 717 1161 717 1204 q 695 1102 717 1132 q 639 1052 674 1072 q 561 1032 604 1032 q 482 1043 508 1032 q 440 1065 456 1054 q 399 1076 424 1076 q 351 1066 365 1076 q 324 1045 336 1056 q 281 1035 311 1035 z "},"F":{"ha":858,"x_min":35,"x_max":824,"o":"m 251 1 q 138 48 188 1 q 62 197 89 94 q 35 465 35 300 q 71 671 35 578 q 171 831 107 764 q 319 935 235 899 q 500 972 404 972 q 742 917 661 972 q 824 767 824 863 q 790 660 824 694 q 694 615 756 626 q 549 604 632 604 q 458 591 501 604 q 388 552 415 578 q 357 489 361 526 q 356 476 357 482 q 406 478 381 478 q 456 478 431 478 q 576 477 517 478 q 683 467 635 476 q 761 433 732 458 q 790 360 790 408 q 761 281 790 307 q 683 247 732 256 q 576 240 635 239 q 456 240 517 240 q 412 240 433 240 q 368 239 390 239 q 372 199 371 219 q 374 156 374 178 q 363 81 374 117 q 326 24 353 46 q 251 1 300 1 z "},"G":{"ha":938,"x_min":35,"x_max":903,"o":"m 526 1 q 260 58 371 1 q 92 217 150 114 q 35 461 35 321 q 78 692 35 596 q 194 851 122 789 q 354 942 267 913 q 531 972 442 972 q 731 938 647 972 q 858 850 814 904 q 903 738 903 796 q 880 640 903 675 q 822 592 857 606 q 749 578 786 578 q 674 588 701 578 q 619 608 647 599 q 544 618 592 618 q 401 564 454 618 q 347 408 347 510 q 372 310 347 349 q 438 251 397 271 q 526 232 479 232 q 605 244 574 232 q 651 269 636 256 q 667 290 667 283 q 517 312 574 290 q 460 396 460 333 q 497 484 460 449 q 636 519 535 519 q 791 497 735 519 q 870 425 847 474 q 893 299 893 376 q 843 147 893 215 q 710 40 793 79 q 526 1 626 0 z "},"Ğ":{"ha":938,"x_min":35,"x_max":903,"o":"m 526 1 q 260 58 371 1 q 92 217 150 114 q 35 461 35 321 q 78 692 35 596 q 194 851 122 789 q 354 942 267 913 q 531 972 442 972 q 731 938 647 972 q 858 850 814 904 q 903 738 903 796 q 880 640 903 675 q 822 592 857 606 q 749 578 786 578 q 674 588 701 578 q 619 608 647 599 q 544 618 592 618 q 401 564 454 618 q 347 408 347 510 q 372 310 347 349 q 438 251 397 271 q 526 232 479 232 q 605 244 574 232 q 651 269 636 256 q 667 290 667 283 q 517 312 574 290 q 460 396 460 333 q 497 484 460 449 q 636 519 535 519 q 791 497 735 519 q 870 425 847 474 q 893 299 893 376 q 843 147 893 215 q 710 40 793 79 q 526 1 626 0 m 508 1028 q 408 1052 450 1028 q 342 1113 365 1076 q 319 1181 319 1149 q 335 1231 319 1206 q 386 1256 350 1256 q 436 1238 419 1256 q 467 1201 453 1221 q 510 1177 485 1178 q 553 1201 535 1176 q 581 1238 567 1221 q 635 1256 596 1256 q 686 1231 671 1256 q 701 1181 701 1206 q 678 1110 701 1146 q 611 1051 654 1075 q 508 1028 568 1028 z "},"Ǧ":{"ha":938,"x_min":35,"x_max":903,"o":"m 526 1 q 260 58 371 1 q 92 217 150 114 q 35 461 35 321 q 78 692 35 596 q 194 851 122 789 q 354 942 267 913 q 531 972 442 972 q 731 938 647 972 q 858 850 814 904 q 903 738 903 796 q 880 640 903 675 q 822 592 857 606 q 749 578 786 578 q 674 588 701 578 q 619 608 647 599 q 544 618 592 618 q 401 564 454 618 q 347 408 347 510 q 372 310 347 349 q 438 251 397 271 q 526 232 479 232 q 605 244 574 232 q 651 269 636 256 q 667 290 667 283 q 517 312 574 290 q 460 396 460 333 q 497 484 460 449 q 636 519 535 519 q 791 497 735 519 q 870 425 847 474 q 893 299 893 376 q 843 147 893 215 q 710 40 793 79 q 526 1 626 0 m 378 1253 q 444 1231 413 1253 q 497 1181 475 1210 q 550 1231 519 1210 q 615 1253 581 1253 q 674 1233 653 1253 q 694 1176 694 1213 q 664 1104 694 1142 q 588 1040 633 1067 q 494 1014 542 1014 q 402 1041 447 1014 q 328 1106 357 1068 q 299 1176 299 1144 q 319 1233 299 1213 q 378 1253 340 1253 z "},"Ĝ":{"ha":938,"x_min":35,"x_max":903,"o":"m 526 1 q 260 58 371 1 q 92 217 150 114 q 35 461 35 321 q 78 692 35 596 q 194 851 122 789 q 354 942 267 913 q 531 972 442 972 q 731 938 647 972 q 858 850 814 904 q 903 738 903 796 q 880 640 903 675 q 822 592 857 606 q 749 578 786 578 q 674 588 701 578 q 619 608 647 599 q 544 618 592 618 q 401 564 454 618 q 347 408 347 510 q 372 310 347 349 q 438 251 397 271 q 526 232 479 232 q 605 244 574 232 q 651 269 636 256 q 667 290 667 283 q 517 312 574 290 q 460 396 460 333 q 497 484 460 449 q 636 519 535 519 q 791 497 735 519 q 870 425 847 474 q 893 299 893 376 q 843 147 893 215 q 710 40 793 79 q 526 1 626 0 m 392 1024 q 333 1044 354 1024 q 313 1100 313 1065 q 342 1171 313 1133 q 416 1235 371 1208 q 508 1263 461 1263 q 601 1236 556 1263 q 678 1172 647 1210 q 708 1100 708 1135 q 688 1044 708 1065 q 629 1024 667 1024 q 564 1045 594 1024 q 511 1096 533 1067 q 458 1045 489 1067 q 392 1024 426 1024 z "},"Ģ":{"ha":938,"x_min":35,"x_max":903,"o":"m 526 1 q 260 58 371 1 q 92 217 150 114 q 35 461 35 321 q 78 692 35 596 q 194 851 122 789 q 354 942 267 913 q 531 972 442 972 q 731 938 647 972 q 858 850 814 904 q 903 738 903 796 q 880 640 903 675 q 822 592 857 606 q 749 578 786 578 q 674 588 701 578 q 619 608 647 599 q 544 618 592 618 q 401 564 454 618 q 347 408 347 510 q 372 310 347 349 q 438 251 397 271 q 526 232 479 232 q 605 244 574 232 q 651 269 636 256 q 667 290 667 283 q 517 312 574 290 q 460 396 460 333 q 497 484 460 449 q 636 519 535 519 q 791 497 735 519 q 870 425 847 474 q 893 299 893 376 q 843 147 893 215 q 710 40 793 79 q 526 1 626 0 m 433 -265 q 384 -244 403 -265 q 365 -200 365 -222 q 382 -153 365 -181 q 424 -99 399 -126 q 476 -54 449 -72 q 525 -36 504 -36 q 590 -65 568 -36 q 611 -121 613 -93 q 591 -165 611 -140 q 542 -212 571 -189 q 483 -250 513 -235 q 433 -265 454 -265 z "},"Ġ":{"ha":938,"x_min":35,"x_max":903,"o":"m 526 1 q 260 58 371 1 q 92 217 150 114 q 35 461 35 321 q 78 692 35 596 q 194 851 122 789 q 354 942 267 913 q 531 972 442 972 q 731 938 647 972 q 858 850 814 904 q 903 738 903 796 q 880 640 903 675 q 822 592 857 606 q 749 578 786 578 q 674 588 701 578 q 619 608 647 599 q 544 618 592 618 q 401 564 454 618 q 347 408 347 510 q 372 310 347 349 q 438 251 397 271 q 526 232 479 232 q 605 244 574 232 q 651 269 636 256 q 667 290 667 283 q 517 312 574 290 q 460 396 460 333 q 497 484 460 449 q 636 519 535 519 q 791 497 735 519 q 870 425 847 474 q 893 299 893 376 q 843 147 893 215 q 710 40 793 79 q 526 1 626 0 m 469 1018 q 401 1047 429 1018 q 372 1115 372 1076 q 401 1184 372 1156 q 469 1213 429 1213 q 538 1184 510 1213 q 567 1115 567 1156 q 538 1047 567 1076 q 469 1018 510 1018 z "},"H":{"ha":1028,"x_min":35,"x_max":993,"o":"m 226 1 q 104 56 146 1 q 49 218 63 111 q 35 483 35 325 q 49 750 35 642 q 104 913 63 858 q 226 968 146 968 q 335 924 297 968 q 390 797 374 881 q 408 597 406 714 q 457 597 432 597 q 507 597 482 597 q 565 597 536 597 q 619 596 593 597 q 638 797 622 714 q 691 925 653 881 q 800 969 729 969 q 922 914 881 969 q 978 750 964 858 q 993 483 993 642 q 978 218 993 325 q 922 57 964 111 q 800 3 881 3 q 664 89 700 3 q 621 333 628 175 q 553 332 589 332 q 479 332 517 332 q 443 332 461 332 q 407 332 425 332 q 363 88 400 175 q 226 1 326 1 z "},"Ħ":{"ha":1213,"x_min":35,"x_max":1178,"o":"m 318 1 q 196 56 238 1 q 140 218 154 111 q 126 483 126 325 q 127 574 126 531 q 131 657 128 618 q 58 689 81 667 q 35 750 35 711 q 65 819 35 794 q 164 853 96 843 q 222 940 185 911 q 318 969 260 969 q 406 943 372 969 q 461 868 440 917 q 529 868 493 868 q 604 868 565 868 q 679 868 643 868 q 749 868 715 868 q 803 944 769 918 q 892 971 838 971 q 988 941 950 971 q 1046 854 1025 911 q 1147 819 1115 843 q 1178 750 1178 794 q 1155 689 1178 711 q 1081 657 1132 667 q 1083 574 1082 618 q 1085 483 1085 531 q 1070 218 1085 325 q 1014 57 1056 111 q 892 3 972 3 q 757 85 793 3 q 713 321 721 168 q 644 319 681 319 q 571 319 608 319 q 534 319 553 319 q 499 319 515 319 q 453 85 490 168 q 318 1 417 1 m 604 642 q 550 642 576 642 q 499 642 524 642 q 500 574 500 610 q 549 574 524 574 q 599 574 574 574 q 656 574 628 574 q 711 572 683 574 q 713 642 711 610 q 660 642 688 642 q 604 642 633 642 z "},"Ĥ":{"ha":1028,"x_min":35,"x_max":993,"o":"m 226 1 q 104 56 146 1 q 49 218 63 111 q 35 483 35 325 q 49 750 35 642 q 104 913 63 858 q 226 968 146 968 q 335 924 297 968 q 390 797 374 881 q 408 597 406 714 q 457 597 432 597 q 507 597 482 597 q 565 597 536 597 q 619 596 593 597 q 638 797 622 714 q 691 925 653 881 q 800 969 729 969 q 922 914 881 969 q 978 750 964 858 q 993 483 993 642 q 978 218 993 325 q 922 57 964 111 q 800 3 881 3 q 664 89 700 3 q 621 333 628 175 q 553 332 589 332 q 479 332 517 332 q 443 332 461 332 q 407 332 425 332 q 363 88 400 175 q 226 1 326 1 m 396 996 q 338 1017 358 996 q 317 1072 317 1038 q 346 1143 317 1106 q 420 1208 375 1181 q 513 1235 465 1235 q 606 1208 560 1235 q 682 1144 651 1182 q 713 1072 713 1107 q 692 1017 713 1038 q 633 996 671 996 q 568 1017 599 996 q 515 1068 538 1039 q 462 1017 493 1039 q 396 996 431 996 z "},"I":{"ha":696,"x_min":35,"x_max":661,"o":"m 349 4 q 250 6 300 4 q 158 19 200 8 q 91 57 117 31 q 65 131 65 83 q 107 217 65 192 q 208 251 149 243 q 203 358 204 300 q 201 482 201 415 q 203 598 201 543 q 207 699 204 653 q 85 735 136 707 q 35 833 35 763 q 63 915 35 886 q 137 955 90 943 q 238 969 183 967 q 347 972 293 972 q 457 969 401 972 q 558 955 513 967 q 633 915 604 943 q 661 833 661 886 q 638 758 661 786 q 574 717 614 731 q 486 699 533 704 q 492 599 490 653 q 493 482 493 544 q 491 358 493 415 q 485 251 489 300 q 591 219 547 244 q 635 131 635 193 q 609 57 635 83 q 541 19 583 31 q 449 6 499 8 q 349 4 399 4 z "},"Í":{"ha":696,"x_min":35,"x_max":661,"o":"m 349 4 q 250 6 300 4 q 158 19 200 8 q 91 57 117 31 q 65 131 65 83 q 107 217 65 192 q 208 251 149 243 q 203 358 204 300 q 201 482 201 415 q 203 598 201 543 q 207 699 204 653 q 85 735 136 707 q 35 833 35 763 q 63 915 35 886 q 137 955 90 943 q 238 969 183 967 q 347 972 293 972 q 457 969 401 972 q 558 955 513 967 q 633 915 604 943 q 661 833 661 886 q 638 758 661 786 q 574 717 614 731 q 486 699 533 704 q 492 599 490 653 q 493 482 493 544 q 491 358 493 415 q 485 251 489 300 q 591 219 547 244 q 635 131 635 193 q 609 57 635 83 q 541 19 583 31 q 449 6 499 8 q 349 4 399 4 m 313 1006 q 263 1027 282 1006 q 244 1071 244 1049 q 261 1117 244 1090 q 303 1172 278 1144 q 356 1217 328 1199 q 404 1235 383 1235 q 469 1206 447 1235 q 490 1150 492 1178 q 470 1106 490 1131 q 421 1059 450 1082 q 363 1021 392 1036 q 313 1006 333 1006 z "},"Ĭ":{"ha":696,"x_min":35,"x_max":661,"o":"m 349 4 q 250 6 300 4 q 158 19 200 8 q 91 57 117 31 q 65 131 65 83 q 107 217 65 192 q 208 251 149 243 q 203 358 204 300 q 201 482 201 415 q 203 598 201 543 q 207 699 204 653 q 85 735 136 707 q 35 833 35 763 q 63 915 35 886 q 137 955 90 943 q 238 969 183 967 q 347 972 293 972 q 457 969 401 972 q 558 955 513 967 q 633 915 604 943 q 661 833 661 886 q 638 758 661 786 q 574 717 614 731 q 486 699 533 704 q 492 599 490 653 q 493 482 493 544 q 491 358 493 415 q 485 251 489 300 q 591 219 547 244 q 635 131 635 193 q 609 57 635 83 q 541 19 583 31 q 449 6 499 8 q 349 4 399 4 m 346 1014 q 245 1038 288 1014 q 180 1099 203 1063 q 157 1167 157 1135 q 172 1217 157 1192 q 224 1242 188 1242 q 274 1224 257 1242 q 304 1188 290 1207 q 347 1163 322 1164 q 390 1188 372 1163 q 419 1224 404 1207 q 472 1242 433 1242 q 524 1217 508 1242 q 539 1167 539 1192 q 515 1097 539 1132 q 449 1038 492 1061 q 346 1014 406 1014 z "},"Î":{"ha":696,"x_min":35,"x_max":661,"o":"m 349 4 q 250 6 300 4 q 158 19 200 8 q 91 57 117 31 q 65 131 65 83 q 107 217 65 192 q 208 251 149 243 q 203 358 204 300 q 201 482 201 415 q 203 598 201 543 q 207 699 204 653 q 85 735 136 707 q 35 833 35 763 q 63 915 35 886 q 137 955 90 943 q 238 969 183 967 q 347 972 293 972 q 457 969 401 972 q 558 955 513 967 q 633 915 604 943 q 661 833 661 886 q 638 758 661 786 q 574 717 614 731 q 486 699 533 704 q 492 599 490 653 q 493 482 493 544 q 491 358 493 415 q 485 251 489 300 q 591 219 547 244 q 635 131 635 193 q 609 57 635 83 q 541 19 583 31 q 449 6 499 8 q 349 4 399 4 m 229 1024 q 171 1044 192 1024 q 150 1100 150 1065 q 179 1171 150 1133 q 253 1235 208 1208 q 346 1263 299 1263 q 439 1236 393 1263 q 515 1172 485 1210 q 546 1100 546 1135 q 525 1044 546 1065 q 467 1024 504 1024 q 401 1045 432 1024 q 349 1096 371 1067 q 295 1045 326 1067 q 229 1024 264 1024 z "},"Ȉ":{"ha":696,"x_min":35,"x_max":661,"o":"m 349 4 q 250 6 300 4 q 158 19 200 8 q 91 57 117 31 q 65 131 65 83 q 107 217 65 192 q 208 251 149 243 q 203 358 204 300 q 201 482 201 415 q 203 598 201 543 q 207 699 204 653 q 85 735 136 707 q 35 833 35 763 q 63 915 35 886 q 137 955 90 943 q 238 969 183 967 q 347 972 293 972 q 457 969 401 972 q 558 955 513 967 q 633 915 604 943 q 661 833 661 886 q 638 758 661 786 q 574 717 614 731 q 486 699 533 704 q 492 599 490 653 q 493 482 493 544 q 491 358 493 415 q 485 251 489 300 q 591 219 547 244 q 635 131 635 193 q 609 57 635 83 q 541 19 583 31 q 449 6 499 8 q 349 4 399 4 m 465 1050 q 419 1065 444 1050 q 371 1102 394 1079 q 331 1149 347 1125 q 315 1193 315 1174 q 336 1250 314 1221 q 401 1279 358 1279 q 446 1261 422 1279 q 489 1216 469 1243 q 521 1162 508 1189 q 533 1115 533 1135 q 515 1072 533 1093 q 465 1050 497 1050 m 238 1049 q 190 1064 217 1049 q 136 1102 163 1079 q 92 1149 110 1125 q 74 1193 74 1174 q 94 1249 72 1221 q 160 1278 117 1278 q 206 1260 181 1278 q 254 1215 232 1242 q 291 1160 276 1188 q 306 1114 306 1133 q 288 1070 306 1092 q 238 1049 269 1049 z "},"Ï":{"ha":696,"x_min":35,"x_max":661,"o":"m 349 4 q 250 6 300 4 q 158 19 200 8 q 91 57 117 31 q 65 131 65 83 q 107 217 65 192 q 208 251 149 243 q 203 358 204 300 q 201 482 201 415 q 203 598 201 543 q 207 699 204 653 q 85 735 136 707 q 35 833 35 763 q 63 915 35 886 q 137 955 90 943 q 238 969 183 967 q 347 972 293 972 q 457 969 401 972 q 558 955 513 967 q 633 915 604 943 q 661 833 661 886 q 638 758 661 786 q 574 717 614 731 q 486 699 533 704 q 492 599 490 653 q 493 482 493 544 q 491 358 493 415 q 485 251 489 300 q 591 219 547 244 q 635 131 635 193 q 609 57 635 83 q 541 19 583 31 q 449 6 499 8 q 349 4 399 4 m 485 1022 q 409 1054 440 1022 q 378 1129 378 1086 q 409 1205 378 1174 q 485 1236 440 1236 q 560 1205 529 1236 q 592 1129 592 1174 q 560 1054 592 1086 q 485 1022 529 1022 m 213 1021 q 136 1052 168 1021 q 104 1128 104 1083 q 136 1203 104 1172 q 213 1235 168 1235 q 288 1203 257 1235 q 318 1128 318 1172 q 288 1052 318 1083 q 213 1021 257 1021 z "},"İ":{"ha":696,"x_min":35,"x_max":661,"o":"m 349 4 q 250 6 300 4 q 158 19 200 8 q 91 57 117 31 q 65 131 65 83 q 107 217 65 192 q 208 251 149 243 q 203 358 204 300 q 201 482 201 415 q 203 598 201 543 q 207 699 204 653 q 85 735 136 707 q 35 833 35 763 q 63 915 35 886 q 137 955 90 943 q 238 969 183 967 q 347 972 293 972 q 457 969 401 972 q 558 955 513 967 q 633 915 604 943 q 661 833 661 886 q 638 758 661 786 q 574 717 614 731 q 486 699 533 704 q 492 599 490 653 q 493 482 493 544 q 491 358 493 415 q 485 251 489 300 q 591 219 547 244 q 635 131 635 193 q 609 57 635 83 q 541 19 583 31 q 449 6 499 8 q 349 4 399 4 m 347 1018 q 278 1047 307 1018 q 250 1115 250 1076 q 278 1184 250 1156 q 347 1213 307 1213 q 416 1184 388 1213 q 444 1115 444 1156 q 416 1047 444 1076 q 347 1018 388 1018 z "},"Ị":{"ha":696,"x_min":35,"x_max":661,"o":"m 349 4 q 250 6 300 4 q 158 19 200 8 q 91 57 117 31 q 65 131 65 83 q 107 217 65 192 q 208 251 149 243 q 203 358 204 300 q 201 482 201 415 q 203 598 201 543 q 207 699 204 653 q 85 735 136 707 q 35 833 35 763 q 63 915 35 886 q 137 955 90 943 q 238 969 183 967 q 347 972 293 972 q 457 969 401 972 q 558 955 513 967 q 633 915 604 943 q 661 833 661 886 q 638 758 661 786 q 574 717 614 731 q 486 699 533 704 q 492 599 490 653 q 493 482 493 544 q 491 358 493 415 q 485 251 489 300 q 591 219 547 244 q 635 131 635 193 q 609 57 635 83 q 541 19 583 31 q 449 6 499 8 q 349 4 399 4 m 347 1018 q 278 1047 307 1018 q 250 1115 250 1076 q 278 1184 250 1156 q 347 1213 307 1213 q 416 1184 388 1213 q 444 1115 444 1156 q 416 1047 444 1076 q 347 1018 388 1018 z "},"Ì":{"ha":696,"x_min":35,"x_max":661,"o":"m 349 4 q 250 6 300 4 q 158 19 200 8 q 91 57 117 31 q 65 131 65 83 q 107 217 65 192 q 208 251 149 243 q 203 358 204 300 q 201 482 201 415 q 203 598 201 543 q 207 699 204 653 q 85 735 136 707 q 35 833 35 763 q 63 915 35 886 q 137 955 90 943 q 238 969 183 967 q 347 972 293 972 q 457 969 401 972 q 558 955 513 967 q 633 915 604 943 q 661 833 661 886 q 638 758 661 786 q 574 717 614 731 q 486 699 533 704 q 492 599 490 653 q 493 482 493 544 q 491 358 493 415 q 485 251 489 300 q 591 219 547 244 q 635 131 635 193 q 609 57 635 83 q 541 19 583 31 q 449 6 499 8 q 349 4 399 4 m 394 1019 q 344 1035 374 1019 q 286 1073 315 1050 q 237 1120 257 1096 q 217 1164 217 1144 q 238 1220 215 1192 q 303 1249 260 1249 q 351 1231 324 1249 q 404 1185 379 1213 q 446 1131 429 1158 q 463 1085 463 1104 q 444 1041 463 1063 q 394 1019 426 1019 z "},"Ỉ":{"ha":696,"x_min":35,"x_max":661,"o":"m 349 4 q 250 6 300 4 q 158 19 200 8 q 91 57 117 31 q 65 131 65 83 q 107 217 65 192 q 208 251 149 243 q 203 358 204 300 q 201 482 201 415 q 203 598 201 543 q 207 699 204 653 q 85 735 136 707 q 35 833 35 763 q 63 915 35 886 q 137 955 90 943 q 238 969 183 967 q 347 972 293 972 q 457 969 401 972 q 558 955 513 967 q 633 915 604 943 q 661 833 661 886 q 638 758 661 786 q 574 717 614 731 q 486 699 533 704 q 492 599 490 653 q 493 482 493 544 q 491 358 493 415 q 485 251 489 300 q 591 219 547 244 q 635 131 635 193 q 609 57 635 83 q 541 19 583 31 q 449 6 499 8 q 349 4 399 4 m 353 1011 q 307 1024 328 1011 q 286 1064 286 1038 q 299 1095 286 1088 q 323 1108 311 1103 q 335 1125 335 1113 q 317 1142 335 1142 q 279 1143 300 1143 q 234 1155 254 1143 q 214 1201 214 1167 q 234 1245 214 1229 q 281 1268 254 1261 q 326 1275 308 1275 q 441 1239 399 1275 q 483 1143 483 1203 q 463 1069 483 1099 q 413 1026 443 1040 q 353 1011 383 1011 z "},"Ȋ":{"ha":696,"x_min":35,"x_max":661,"o":"m 349 4 q 250 6 300 4 q 158 19 200 8 q 91 57 117 31 q 65 131 65 83 q 107 217 65 192 q 208 251 149 243 q 203 358 204 300 q 201 482 201 415 q 203 598 201 543 q 207 699 204 653 q 85 735 136 707 q 35 833 35 763 q 63 915 35 886 q 137 955 90 943 q 238 969 183 967 q 347 972 293 972 q 457 969 401 972 q 558 955 513 967 q 633 915 604 943 q 661 833 661 886 q 638 758 661 786 q 574 717 614 731 q 486 699 533 704 q 492 599 490 653 q 493 482 493 544 q 491 358 493 415 q 485 251 489 300 q 591 219 547 244 q 635 131 635 193 q 609 57 635 83 q 541 19 583 31 q 449 6 499 8 q 349 4 399 4 m 346 1254 q 449 1231 406 1254 q 515 1172 492 1207 q 539 1101 539 1136 q 524 1051 539 1076 q 472 1026 508 1026 q 419 1044 433 1026 q 390 1081 404 1063 q 347 1105 372 1106 q 304 1081 322 1104 q 274 1044 290 1063 q 224 1026 257 1026 q 172 1051 188 1026 q 157 1101 157 1076 q 180 1170 157 1135 q 245 1230 203 1206 q 346 1254 288 1254 z "},"Ī":{"ha":696,"x_min":35,"x_max":661,"o":"m 349 4 q 250 6 300 4 q 158 19 200 8 q 91 57 117 31 q 65 131 65 83 q 107 217 65 192 q 208 251 149 243 q 203 358 204 300 q 201 482 201 415 q 203 598 201 543 q 207 699 204 653 q 85 735 136 707 q 35 833 35 763 q 63 915 35 886 q 137 955 90 943 q 238 969 183 967 q 347 972 293 972 q 457 969 401 972 q 558 955 513 967 q 633 915 604 943 q 661 833 661 886 q 638 758 661 786 q 574 717 614 731 q 486 699 533 704 q 492 599 490 653 q 493 482 493 544 q 491 358 493 415 q 485 251 489 300 q 591 219 547 244 q 635 131 635 193 q 609 57 635 83 q 541 19 583 31 q 449 6 499 8 q 349 4 399 4 m 347 1035 q 260 1035 306 1035 q 178 1042 215 1035 q 117 1067 140 1049 q 93 1124 93 1086 q 117 1179 93 1160 q 178 1207 140 1199 q 260 1217 215 1215 q 347 1218 306 1218 q 435 1217 390 1218 q 517 1207 479 1215 q 579 1179 556 1199 q 603 1124 603 1160 q 579 1067 603 1086 q 517 1042 556 1049 q 435 1035 479 1035 q 347 1035 390 1035 z "},"Į":{"ha":696,"x_min":35,"x_max":661,"o":"m 349 4 q 250 6 300 4 q 158 19 200 8 q 91 57 117 31 q 65 131 65 83 q 107 217 65 192 q 208 251 149 243 q 203 358 204 300 q 201 482 201 415 q 203 598 201 543 q 207 699 204 653 q 85 735 136 707 q 35 833 35 763 q 63 915 35 886 q 137 955 90 943 q 238 969 183 967 q 347 972 293 972 q 457 969 401 972 q 558 955 513 967 q 633 915 604 943 q 661 833 661 886 q 638 758 661 786 q 574 717 614 731 q 486 699 533 704 q 492 599 490 653 q 493 482 493 544 q 491 358 493 415 q 485 251 489 300 q 591 219 547 244 q 635 131 635 193 q 609 57 635 83 q 541 19 583 31 q 449 6 499 8 q 349 4 399 4 m 344 -308 q 214 -267 264 -308 q 164 -136 164 -225 q 183 -55 164 -92 q 233 10 203 -18 q 294 54 263 39 q 350 69 325 69 l 472 69 q 502 46 517 69 q 422 -35 488 22 q 378 -74 400 -54 q 356 -119 356 -93 q 373 -151 356 -144 q 406 -158 390 -158 q 452 -174 432 -158 q 472 -229 472 -190 q 443 -285 472 -262 q 344 -308 414 -308 z "},"Ĩ":{"ha":696,"x_min":35,"x_max":661,"o":"m 349 4 q 250 6 300 4 q 158 19 200 8 q 91 57 117 31 q 65 131 65 83 q 107 217 65 192 q 208 251 149 243 q 203 358 204 300 q 201 482 201 415 q 203 598 201 543 q 207 699 204 653 q 85 735 136 707 q 35 833 35 763 q 63 915 35 886 q 137 955 90 943 q 238 969 183 967 q 347 972 293 972 q 457 969 401 972 q 558 955 513 967 q 633 915 604 943 q 661 833 661 886 q 638 758 661 786 q 574 717 614 731 q 486 699 533 704 q 492 599 490 653 q 493 482 493 544 q 491 358 493 415 q 485 251 489 300 q 591 219 547 244 q 635 131 635 193 q 609 57 635 83 q 541 19 583 31 q 449 6 499 8 q 349 4 399 4 m 174 1021 q 112 1043 138 1021 q 86 1108 86 1065 q 108 1168 86 1139 q 165 1217 129 1197 q 242 1238 200 1238 q 322 1226 296 1238 q 363 1203 347 1215 q 404 1192 379 1192 q 452 1203 438 1192 q 480 1224 467 1214 q 522 1235 493 1235 q 584 1213 558 1235 q 610 1147 610 1190 q 588 1088 610 1118 q 532 1038 567 1058 q 454 1018 497 1018 q 375 1029 401 1018 q 333 1051 349 1040 q 292 1063 317 1063 q 244 1052 258 1063 q 217 1031 229 1042 q 174 1021 204 1021 z "},"J":{"ha":944,"x_min":35,"x_max":910,"o":"m 357 0 q 188 39 260 0 q 75 141 115 78 q 35 276 35 204 q 75 386 35 350 q 163 422 115 422 q 235 403 211 422 q 270 360 258 385 q 297 317 282 336 q 342 299 311 299 q 406 365 397 299 q 414 558 415 432 q 414 643 414 606 q 282 661 342 646 q 188 710 222 676 q 153 807 153 744 q 184 899 153 865 q 269 949 215 933 q 392 968 324 964 q 532 972 460 972 q 673 968 606 972 q 794 949 740 964 q 878 899 847 933 q 910 807 910 865 q 860 697 910 732 q 732 650 810 663 q 735 569 735 614 q 736 472 736 525 q 644 119 736 239 q 357 0 551 0 z "},"Ĵ":{"ha":944,"x_min":35,"x_max":910,"o":"m 357 0 q 188 39 260 0 q 75 141 115 78 q 35 276 35 204 q 75 386 35 350 q 163 422 115 422 q 235 403 211 422 q 270 360 258 385 q 297 317 282 336 q 342 299 311 299 q 406 365 397 299 q 414 558 415 432 q 414 643 414 606 q 282 661 342 646 q 188 710 222 676 q 153 807 153 744 q 184 899 153 865 q 269 949 215 933 q 392 968 324 964 q 532 972 460 972 q 673 968 606 972 q 794 949 740 964 q 878 899 847 933 q 910 807 910 865 q 860 697 910 732 q 732 650 810 663 q 735 569 735 614 q 736 472 736 525 q 644 119 736 239 q 357 0 551 0 m 451 1024 q 393 1044 414 1024 q 372 1100 372 1065 q 401 1171 372 1133 q 476 1235 431 1208 q 568 1263 521 1263 q 661 1236 615 1263 q 738 1172 707 1210 q 768 1100 768 1135 q 747 1044 768 1065 q 689 1024 726 1024 q 624 1045 654 1024 q 571 1096 593 1067 q 517 1045 549 1067 q 451 1024 486 1024 z "},"K":{"ha":886,"x_min":35,"x_max":851,"o":"m 190 0 q 100 34 132 0 q 54 124 68 68 q 38 249 40 181 q 35 385 35 317 q 35 472 35 418 q 37 581 36 525 q 39 681 38 638 q 42 742 40 725 q 83 907 44 842 q 199 972 122 972 q 319 897 286 972 q 351 679 351 821 q 351 638 351 664 q 416 743 378 686 q 500 851 454 800 q 597 935 546 903 q 701 968 649 968 q 809 919 767 968 q 851 797 851 869 q 813 670 851 732 q 708 558 775 608 q 553 476 642 508 q 657 420 604 453 q 753 348 710 388 q 824 263 797 308 q 850 164 850 217 q 827 69 850 106 q 768 17 804 33 q 692 0 732 0 q 560 46 621 0 q 447 165 499 92 q 350 319 394 239 q 345 201 350 258 q 325 99 340 144 q 278 26 310 53 q 190 0 246 0 z "},"Ķ":{"ha":886,"x_min":35,"x_max":851,"o":"m 190 0 q 100 34 132 0 q 54 124 68 68 q 38 249 40 181 q 35 385 35 317 q 35 472 35 418 q 37 581 36 525 q 39 681 38 638 q 42 742 40 725 q 83 907 44 842 q 199 972 122 972 q 319 897 286 972 q 351 679 351 821 q 351 638 351 664 q 416 743 378 686 q 500 851 454 800 q 597 935 546 903 q 701 968 649 968 q 809 919 767 968 q 851 797 851 869 q 813 670 851 732 q 708 558 775 608 q 553 476 642 508 q 657 420 604 453 q 753 348 710 388 q 824 263 797 308 q 850 164 850 217 q 827 69 850 106 q 768 17 804 33 q 692 0 732 0 q 560 46 621 0 q 447 165 499 92 q 350 319 394 239 q 345 201 350 258 q 325 99 340 144 q 278 26 310 53 q 190 0 246 0 m 381 -196 q 331 -174 350 -196 q 313 -131 313 -153 q 329 -84 313 -111 q 371 -30 346 -57 q 424 15 396 -3 q 472 33 451 33 q 538 5 515 33 q 558 -51 560 -24 q 538 -95 558 -71 q 489 -142 518 -119 q 431 -181 460 -165 q 381 -196 401 -196 z "},"L":{"ha":854,"x_min":35,"x_max":819,"o":"m 421 0 q 187 56 286 0 q 56 231 88 111 q 38 359 42 283 q 35 519 35 435 q 42 683 35 603 q 72 829 50 764 q 140 933 94 894 q 260 972 185 972 q 358 944 318 972 q 418 871 397 917 q 439 769 439 825 q 419 546 439 665 q 381 321 400 426 q 483 342 425 335 q 599 348 540 350 q 708 328 658 346 q 789 276 758 311 q 819 183 819 240 q 785 77 819 115 q 692 23 750 39 q 563 3 633 7 q 421 0 492 0 z "},"Ǉ":{"ha":1763,"x_min":35,"x_max":1728,"o":"m 421 0 q 187 56 286 0 q 56 231 88 111 q 38 359 42 283 q 35 519 35 435 q 42 683 35 603 q 72 829 50 764 q 140 933 94 894 q 260 972 185 972 q 358 944 318 972 q 418 871 397 917 q 439 769 439 825 q 419 546 439 665 q 381 321 400 426 q 483 342 425 335 q 599 348 540 350 q 708 328 658 346 q 789 276 758 311 q 819 183 819 240 q 785 77 819 115 q 692 23 750 39 q 563 3 633 7 q 421 0 492 0 m 1175 0 q 1006 39 1078 0 q 893 141 933 78 q 853 276 853 204 q 893 386 853 350 q 981 422 933 422 q 1053 403 1029 422 q 1088 360 1076 385 q 1115 317 1100 336 q 1160 299 1129 299 q 1224 365 1215 299 q 1232 558 1233 432 q 1232 643 1232 606 q 1100 661 1160 646 q 1006 710 1040 676 q 971 807 971 744 q 1002 899 971 865 q 1088 949 1033 933 q 1210 968 1142 964 q 1350 972 1278 972 q 1491 968 1424 972 q 1612 949 1558 964 q 1697 899 1665 933 q 1728 807 1728 865 q 1678 697 1728 732 q 1550 650 1628 663 q 1553 569 1553 614 q 1554 472 1554 525 q 1462 119 1554 239 q 1175 0 1369 0 z "},"Ĺ":{"ha":854,"x_min":35,"x_max":819,"o":"m 421 0 q 187 56 286 0 q 56 231 88 111 q 38 359 42 283 q 35 519 35 435 q 42 683 35 603 q 72 829 50 764 q 140 933 94 894 q 260 972 185 972 q 358 944 318 972 q 418 871 397 917 q 439 769 439 825 q 419 546 439 665 q 381 321 400 426 q 483 342 425 335 q 599 348 540 350 q 708 328 658 346 q 789 276 758 311 q 819 183 819 240 q 785 77 819 115 q 692 23 750 39 q 563 3 633 7 q 421 0 492 0 m 242 1014 q 192 1035 211 1014 q 174 1079 174 1057 q 190 1126 174 1099 q 232 1180 207 1153 q 285 1225 257 1207 q 333 1243 313 1243 q 399 1215 376 1243 q 419 1158 421 1186 q 399 1115 419 1139 q 350 1067 379 1090 q 292 1029 321 1044 q 242 1014 263 1014 z "},"Ľ":{"ha":854,"x_min":35,"x_max":819,"o":"m 421 0 q 187 56 286 0 q 56 231 88 111 q 38 359 42 283 q 35 519 35 435 q 42 683 35 603 q 72 829 50 764 q 140 933 94 894 q 260 972 185 972 q 358 944 318 972 q 418 871 397 917 q 439 769 439 825 q 419 546 439 665 q 381 321 400 426 q 483 342 425 335 q 599 348 540 350 q 708 328 658 346 q 789 276 758 311 q 819 183 819 240 q 785 77 819 115 q 692 23 750 39 q 563 3 633 7 q 421 0 492 0 m 146 1257 q 212 1235 181 1257 q 265 1185 243 1214 q 318 1235 288 1214 q 383 1257 349 1257 q 442 1237 421 1257 q 463 1181 463 1217 q 432 1108 463 1146 q 356 1044 401 1071 q 263 1018 310 1018 q 170 1045 215 1018 q 96 1110 125 1072 q 67 1181 67 1149 q 88 1237 67 1217 q 146 1257 108 1257 z "},"Ļ":{"ha":854,"x_min":35,"x_max":819,"o":"m 421 0 q 187 56 286 0 q 56 231 88 111 q 38 359 42 283 q 35 519 35 435 q 42 683 35 603 q 72 829 50 764 q 140 933 94 894 q 260 972 185 972 q 358 944 318 972 q 418 871 397 917 q 439 769 439 825 q 419 546 439 665 q 381 321 400 426 q 483 342 425 335 q 599 348 540 350 q 708 328 658 346 q 789 276 758 311 q 819 183 819 240 q 785 77 819 115 q 692 23 750 39 q 563 3 633 7 q 421 0 492 0 m 367 -265 q 317 -244 336 -265 q 299 -200 299 -222 q 315 -153 299 -181 q 357 -99 332 -126 q 410 -54 382 -72 q 458 -36 438 -36 q 524 -65 501 -36 q 544 -121 546 -93 q 524 -165 544 -140 q 475 -212 504 -189 q 417 -250 446 -235 q 367 -265 388 -265 z "},"Ŀ":{"ha":854,"x_min":35,"x_max":819,"o":"m 421 0 q 187 56 286 0 q 56 231 88 111 q 38 359 42 283 q 35 519 35 435 q 42 683 35 603 q 72 829 50 764 q 140 933 94 894 q 260 972 185 972 q 358 944 318 972 q 418 871 397 917 q 439 769 439 825 q 419 546 439 665 q 381 321 400 426 q 483 342 425 335 q 599 348 540 350 q 708 328 658 346 q 789 276 758 311 q 819 183 819 240 q 785 77 819 115 q 692 23 750 39 q 563 3 633 7 q 421 0 492 0 m 653 446 q 553 487 594 446 q 513 586 513 528 q 553 683 513 643 q 653 724 594 724 q 750 683 710 724 q 790 586 790 643 q 750 487 790 528 q 653 446 710 446 z "},"ǈ":{"ha":1224,"x_min":35,"x_max":1189,"o":"m 421 0 q 187 56 286 0 q 56 231 88 111 q 38 359 42 283 q 35 519 35 435 q 42 683 35 603 q 72 829 50 764 q 140 933 94 894 q 260 972 185 972 q 358 944 318 972 q 418 871 397 917 q 439 769 439 825 q 419 546 439 665 q 381 321 400 426 q 483 342 425 335 q 599 348 540 350 q 708 328 658 346 q 789 276 758 311 q 819 183 819 240 q 785 77 819 115 q 692 23 750 39 q 563 3 633 7 q 421 0 492 0 m 1026 674 q 911 723 958 674 q 864 843 864 772 q 885 928 864 890 q 944 988 907 965 q 1026 1011 981 1011 q 1108 988 1071 1011 q 1167 928 1144 965 q 1189 843 1189 890 q 1167 758 1189 796 q 1108 697 1144 719 q 1026 674 1071 674 m 885 -240 q 765 -212 808 -240 q 721 -129 721 -183 q 741 -63 721 -87 q 787 -28 761 -39 q 828 -17 813 -17 q 885 6 869 -17 q 903 73 901 28 q 906 189 906 118 q 908 396 906 310 q 935 528 910 482 q 1029 574 960 574 q 1127 528 1099 574 q 1161 394 1156 482 q 1167 183 1167 307 q 1159 15 1167 82 q 1119 -110 1151 -53 q 1025 -205 1086 -169 q 885 -240 964 -240 z "},"Ł":{"ha":1010,"x_min":19,"x_max":975,"o":"m 576 0 q 342 56 442 0 q 211 231 243 111 q 201 280 206 253 q 194 338 197 307 q 100 337 136 324 q 44 396 64 350 q 56 504 19 457 q 192 604 93 551 q 206 742 194 676 q 241 860 217 808 q 308 942 265 913 q 415 972 350 972 q 544 917 499 972 q 594 782 590 861 q 708 792 665 803 q 771 731 750 781 q 747 608 797 661 q 567 492 696 554 q 551 404 560 447 q 536 321 543 361 q 638 342 581 335 q 755 348 696 350 q 864 328 814 346 q 944 276 914 311 q 975 183 975 240 q 940 77 975 115 q 847 23 906 39 q 718 3 789 7 q 576 0 647 0 z "},"M":{"ha":1151,"x_min":35,"x_max":1117,"o":"m 572 0 q 492 26 524 0 q 450 90 461 51 q 436 177 439 129 q 434 274 433 225 q 433 365 435 324 q 425 432 432 407 q 399 457 418 457 q 360 434 371 457 q 349 373 349 411 q 353 290 349 335 q 364 202 358 246 q 369 125 369 158 q 338 29 369 56 q 253 3 307 3 q 158 48 199 3 q 90 165 117 93 q 49 319 63 236 q 35 478 35 403 q 55 656 35 569 q 116 810 75 742 q 218 918 157 878 q 363 958 279 958 q 471 930 428 958 q 540 858 514 901 q 575 771 565 815 q 610 858 585 815 q 678 930 635 901 q 785 958 721 958 q 965 893 890 958 q 1078 713 1039 828 q 1117 447 1117 599 q 1101 298 1117 376 q 1058 152 1086 219 q 989 42 1029 85 q 897 0 949 0 q 810 28 842 0 q 778 125 778 56 q 783 202 778 158 q 794 290 789 246 q 800 373 800 335 q 790 434 800 411 q 751 457 779 457 q 724 432 732 457 q 715 366 717 407 q 713 276 713 325 q 710 178 713 226 q 697 90 708 129 q 656 26 688 51 q 572 0 624 0 z "},"N":{"ha":990,"x_min":35,"x_max":956,"o":"m 224 0 q 148 35 181 0 q 94 126 115 69 q 59 251 72 183 q 40 388 46 319 q 35 513 35 457 q 46 663 35 583 q 85 812 57 742 q 161 926 113 882 q 286 971 210 971 q 378 937 339 971 q 450 842 418 903 q 511 704 482 782 q 574 539 540 626 q 581 756 568 658 q 636 913 594 854 q 754 971 678 971 q 859 926 819 971 q 919 812 899 882 q 948 663 940 742 q 956 513 956 583 q 947 388 956 456 q 919 251 939 319 q 867 126 900 183 q 785 35 833 69 q 671 0 738 0 q 569 38 611 0 q 494 140 526 76 q 433 279 461 203 q 375 432 406 356 q 375 256 376 336 q 360 119 374 176 q 315 31 347 63 q 224 0 283 0 z "},"Ǌ":{"ha":1924,"x_min":35,"x_max":1889,"o":"m 224 0 q 148 35 181 0 q 94 126 115 69 q 59 251 72 183 q 40 388 46 319 q 35 513 35 457 q 46 663 35 583 q 85 812 57 742 q 161 926 113 882 q 286 971 210 971 q 378 937 339 971 q 450 842 418 903 q 511 704 482 782 q 574 539 540 626 q 581 756 568 658 q 636 913 594 854 q 754 971 678 971 q 859 926 819 971 q 919 812 899 882 q 948 663 940 742 q 956 513 956 583 q 947 388 956 456 q 919 251 939 319 q 867 126 900 183 q 785 35 833 69 q 671 0 738 0 q 569 38 611 0 q 494 140 526 76 q 433 279 461 203 q 375 432 406 356 q 375 256 376 336 q 360 119 374 176 q 315 31 347 63 q 224 0 283 0 m 1336 0 q 1167 39 1239 0 q 1054 141 1094 78 q 1014 276 1014 204 q 1054 386 1014 350 q 1142 422 1094 422 q 1214 403 1190 422 q 1249 360 1238 385 q 1276 317 1261 336 q 1321 299 1290 299 q 1385 365 1376 299 q 1393 558 1394 432 q 1393 643 1393 606 q 1261 661 1321 646 q 1167 710 1201 676 q 1132 807 1132 744 q 1163 899 1132 865 q 1249 949 1194 933 q 1371 968 1303 964 q 1511 972 1439 972 q 1652 968 1585 972 q 1773 949 1719 964 q 1858 899 1826 933 q 1889 807 1889 865 q 1839 697 1889 732 q 1711 650 1789 663 q 1715 569 1714 614 q 1715 472 1715 525 q 1623 119 1715 239 q 1336 0 1531 0 z "},"Ń":{"ha":1026,"x_min":35,"x_max":956,"o":"m 224 0 q 148 35 181 0 q 94 126 115 69 q 59 251 72 183 q 40 388 46 319 q 35 513 35 457 q 46 663 35 583 q 85 812 57 742 q 161 926 113 882 q 286 971 210 971 q 378 937 339 971 q 450 842 418 903 q 511 704 482 782 q 574 539 540 626 q 581 756 568 658 q 636 913 594 854 q 754 971 678 971 q 859 926 819 971 q 919 812 899 882 q 948 663 940 742 q 956 513 956 583 q 947 388 956 456 q 919 251 939 319 q 867 126 900 183 q 785 35 833 69 q 671 0 738 0 q 569 38 611 0 q 494 140 526 76 q 433 279 461 203 q 375 432 406 356 q 375 256 376 336 q 360 119 374 176 q 315 31 347 63 q 224 0 283 0 m 511 964 q 462 985 481 964 q 443 1029 443 1007 q 460 1076 443 1049 q 501 1130 476 1103 q 554 1175 526 1157 q 603 1193 582 1193 q 668 1165 646 1193 q 689 1108 690 1136 q 669 1065 689 1089 q 619 1017 649 1040 q 561 979 590 994 q 511 964 532 964 z "},"Ň":{"ha":1026,"x_min":35,"x_max":956,"o":"m 224 0 q 148 35 181 0 q 94 126 115 69 q 59 251 72 183 q 40 388 46 319 q 35 513 35 457 q 46 663 35 583 q 85 812 57 742 q 161 926 113 882 q 286 971 210 971 q 378 937 339 971 q 450 842 418 903 q 511 704 482 782 q 574 539 540 626 q 581 756 568 658 q 636 913 594 854 q 754 971 678 971 q 859 926 819 971 q 919 812 899 882 q 948 663 940 742 q 956 513 956 583 q 947 388 956 456 q 919 251 939 319 q 867 126 900 183 q 785 35 833 69 q 671 0 738 0 q 569 38 611 0 q 494 140 526 76 q 433 279 461 203 q 375 432 406 356 q 375 256 376 336 q 360 119 374 176 q 315 31 347 63 q 224 0 283 0 m 408 1197 q 474 1176 443 1197 q 528 1125 506 1154 q 581 1176 550 1154 q 646 1197 611 1197 q 704 1177 683 1197 q 725 1121 725 1157 q 694 1049 725 1086 q 618 985 664 1011 q 525 958 572 958 q 433 985 478 958 q 358 1051 388 1013 q 329 1121 329 1089 q 350 1177 329 1157 q 408 1197 371 1197 z "},"Ņ":{"ha":1026,"x_min":35,"x_max":956,"o":"m 224 0 q 148 35 181 0 q 94 126 115 69 q 59 251 72 183 q 40 388 46 319 q 35 513 35 457 q 46 663 35 583 q 85 812 57 742 q 161 926 113 882 q 286 971 210 971 q 378 937 339 971 q 450 842 418 903 q 511 704 482 782 q 574 539 540 626 q 581 756 568 658 q 636 913 594 854 q 754 971 678 971 q 859 926 819 971 q 919 812 899 882 q 948 663 940 742 q 956 513 956 583 q 947 388 956 456 q 919 251 939 319 q 867 126 900 183 q 785 35 833 69 q 671 0 738 0 q 569 38 611 0 q 494 140 526 76 q 433 279 461 203 q 375 432 406 356 q 375 256 376 336 q 360 119 374 176 q 315 31 347 63 q 224 0 283 0 m 436 -224 q 387 -202 406 -224 q 368 -158 368 -181 q 385 -112 368 -139 q 426 -58 401 -85 q 479 -12 451 -31 q 528 6 507 6 q 593 -23 571 6 q 614 -79 615 -51 q 594 -123 614 -99 q 544 -170 574 -147 q 486 -208 515 -193 q 436 -224 457 -224 z "},"Ŋ":{"ha":1026,"x_min":35,"x_max":992,"o":"m 35 513 q 47 663 35 583 q 87 812 58 742 q 166 926 115 882 q 296 971 217 971 q 401 937 357 971 q 479 842 444 903 q 544 704 514 782 q 610 539 575 626 q 606 663 606 604 q 619 821 606 751 q 669 931 633 890 q 768 971 704 971 q 866 942 826 971 q 931 864 906 913 q 969 755 956 815 q 987 632 982 694 q 992 513 992 569 q 985 237 992 368 q 944 -1 978 106 q 818 -199 906 -126 q 604 -272 731 -272 q 496 -243 544 -272 q 447 -156 447 -214 q 483 -84 447 -103 q 554 -65 518 -65 q 615 -64 586 -65 q 663 -49 643 -62 q 689 0 683 -35 q 609 31 649 -4 q 530 128 569 65 q 451 272 490 190 q 374 446 413 354 q 381 342 376 400 q 383 224 385 283 q 369 113 382 164 q 327 31 357 63 q 244 0 297 0 q 159 35 194 0 q 99 126 124 69 q 61 251 75 183 q 41 388 47 319 q 35 513 35 457 z "},"ǋ":{"ha":1424,"x_min":35,"x_max":1389,"o":"m 224 0 q 148 35 181 0 q 94 126 115 69 q 59 251 72 183 q 40 388 46 319 q 35 513 35 457 q 46 663 35 583 q 85 812 57 742 q 161 926 113 882 q 286 971 210 971 q 378 937 339 971 q 450 842 418 903 q 511 704 482 782 q 574 539 540 626 q 581 756 568 658 q 636 913 594 854 q 754 971 678 971 q 859 926 819 971 q 919 812 899 882 q 948 663 940 742 q 956 513 956 583 q 947 388 956 456 q 919 251 939 319 q 867 126 900 183 q 785 35 833 69 q 671 0 738 0 q 569 38 611 0 q 494 140 526 76 q 433 279 461 203 q 375 432 406 356 q 375 256 376 336 q 360 119 374 176 q 315 31 347 63 q 224 0 283 0 m 1226 674 q 1111 723 1158 674 q 1064 843 1064 772 q 1085 928 1064 890 q 1144 988 1107 965 q 1226 1011 1181 1011 q 1308 988 1271 1011 q 1367 928 1344 965 q 1389 843 1389 890 q 1367 758 1389 796 q 1308 697 1344 719 q 1226 674 1271 674 m 1085 -240 q 965 -212 1008 -240 q 921 -129 921 -183 q 941 -63 921 -87 q 987 -28 961 -39 q 1028 -17 1013 -17 q 1085 6 1069 -17 q 1103 73 1101 28 q 1106 189 1106 118 q 1108 396 1106 310 q 1135 528 1110 482 q 1229 574 1160 574 q 1327 528 1299 574 q 1361 394 1356 482 q 1367 183 1367 307 q 1359 15 1367 82 q 1319 -110 1351 -53 q 1225 -205 1286 -169 q 1085 -240 1164 -240 z "},"Ñ":{"ha":1026,"x_min":35,"x_max":956,"o":"m 224 0 q 148 35 181 0 q 94 126 115 69 q 59 251 72 183 q 40 388 46 319 q 35 513 35 457 q 46 663 35 583 q 85 812 57 742 q 161 926 113 882 q 286 971 210 971 q 378 937 339 971 q 450 842 418 903 q 511 704 482 782 q 574 539 540 626 q 581 756 568 658 q 636 913 594 854 q 754 971 678 971 q 859 926 819 971 q 919 812 899 882 q 948 663 940 742 q 956 513 956 583 q 947 388 956 456 q 919 251 939 319 q 867 126 900 183 q 785 35 833 69 q 671 0 738 0 q 569 38 611 0 q 494 140 526 76 q 433 279 461 203 q 375 432 406 356 q 375 256 376 336 q 360 119 374 176 q 315 31 347 63 q 224 0 283 0 m 353 1021 q 291 1043 317 1021 q 265 1108 265 1065 q 287 1168 265 1139 q 344 1217 308 1197 q 421 1238 379 1238 q 501 1226 475 1238 q 542 1203 526 1215 q 583 1192 558 1192 q 631 1203 617 1192 q 659 1224 646 1214 q 701 1235 672 1235 q 763 1213 738 1235 q 789 1147 789 1190 q 767 1088 789 1118 q 711 1038 746 1058 q 633 1018 676 1018 q 554 1029 581 1018 q 512 1051 528 1040 q 471 1063 496 1063 q 423 1052 438 1063 q 396 1031 408 1042 q 353 1021 383 1021 z "},"O":{"ha":1017,"x_min":33,"x_max":985,"o":"m 508 -1 q 328 33 413 -3 q 178 136 243 69 q 75 292 113 203 q 35 485 38 381 q 69 672 33 585 q 171 826 106 760 q 322 931 236 893 q 508 969 408 969 q 689 935 604 971 q 839 833 774 899 q 942 678 904 767 q 982 485 981 589 q 948 297 985 385 q 846 144 911 210 q 694 40 781 78 q 508 -1 607 1 m 513 269 q 620 314 574 269 q 665 435 667 358 q 619 557 665 513 q 513 601 574 601 q 406 557 451 601 q 360 435 360 513 q 406 314 360 358 q 513 269 451 269 z "},"Ó":{"ha":1017,"x_min":33,"x_max":985,"o":"m 508 -1 q 328 33 413 -3 q 178 136 243 69 q 75 292 113 203 q 35 485 38 381 q 69 672 33 585 q 171 826 106 760 q 322 931 236 893 q 508 969 408 969 q 689 935 604 971 q 839 833 774 899 q 942 678 904 767 q 982 485 981 589 q 948 297 985 385 q 846 144 911 210 q 694 40 781 78 q 508 -1 607 1 m 513 269 q 620 314 574 269 q 665 435 667 358 q 619 557 665 513 q 513 601 574 601 q 406 557 451 601 q 360 435 360 513 q 406 314 360 358 q 513 269 451 269 m 460 1006 q 410 1027 429 1006 q 392 1071 392 1049 q 408 1117 392 1090 q 450 1172 425 1144 q 503 1217 475 1199 q 551 1235 531 1235 q 617 1206 594 1235 q 638 1150 639 1178 q 617 1106 638 1131 q 568 1059 597 1082 q 510 1021 539 1036 q 460 1006 481 1006 z "},"Ŏ":{"ha":1017,"x_min":33,"x_max":985,"o":"m 508 -1 q 328 33 413 -3 q 178 136 243 69 q 75 292 113 203 q 35 485 38 381 q 69 672 33 585 q 171 826 106 760 q 322 931 236 893 q 508 969 408 969 q 689 935 604 971 q 839 833 774 899 q 942 678 904 767 q 982 485 981 589 q 948 297 985 385 q 846 144 911 210 q 694 40 781 78 q 508 -1 607 1 m 513 269 q 620 314 574 269 q 665 435 667 358 q 619 557 665 513 q 513 601 574 601 q 406 557 451 601 q 360 435 360 513 q 406 314 360 358 q 513 269 451 269 m 507 1014 q 406 1038 449 1014 q 341 1099 364 1063 q 318 1167 318 1135 q 333 1217 318 1192 q 385 1242 349 1242 q 435 1224 418 1242 q 465 1188 451 1207 q 508 1163 483 1164 q 551 1188 533 1163 q 580 1224 565 1207 q 633 1242 594 1242 q 685 1217 669 1242 q 700 1167 700 1192 q 676 1097 700 1132 q 610 1038 653 1061 q 507 1014 567 1014 z "},"Ô":{"ha":1017,"x_min":33,"x_max":985,"o":"m 508 -1 q 328 33 413 -3 q 178 136 243 69 q 75 292 113 203 q 35 485 38 381 q 69 672 33 585 q 171 826 106 760 q 322 931 236 893 q 508 969 408 969 q 689 935 604 971 q 839 833 774 899 q 942 678 904 767 q 982 485 981 589 q 948 297 985 385 q 846 144 911 210 q 694 40 781 78 q 508 -1 607 1 m 513 269 q 620 314 574 269 q 665 435 667 358 q 619 557 665 513 q 513 601 574 601 q 406 557 451 601 q 360 435 360 513 q 406 314 360 358 q 513 269 451 269 m 390 1010 q 332 1031 353 1010 q 311 1086 311 1051 q 340 1157 311 1119 q 415 1222 369 1194 q 507 1249 460 1249 q 600 1222 554 1249 q 676 1158 646 1196 q 707 1086 707 1121 q 686 1031 707 1051 q 628 1010 665 1010 q 563 1031 593 1010 q 510 1082 532 1053 q 456 1031 488 1053 q 390 1010 425 1010 z "},"Ố":{"ha":1017,"x_min":33,"x_max":985,"o":"m 671 1206 q 628 1224 644 1206 q 613 1263 613 1242 q 626 1302 613 1278 q 663 1349 640 1326 q 708 1388 685 1372 q 750 1404 732 1404 q 806 1379 788 1404 q 825 1331 825 1354 q 807 1292 824 1314 q 765 1251 790 1271 q 715 1219 740 1232 q 671 1206 689 1206 m 390 996 q 332 1017 353 996 q 311 1072 311 1038 q 340 1143 311 1106 q 415 1208 369 1181 q 507 1235 460 1235 q 600 1208 554 1235 q 676 1144 646 1182 q 707 1072 707 1107 q 686 1017 707 1038 q 628 996 665 996 q 563 1017 593 996 q 510 1068 532 1039 q 456 1017 488 1039 q 390 996 425 996 m 508 -1 q 328 33 413 -3 q 178 136 243 69 q 75 292 113 203 q 35 485 38 381 q 69 672 33 585 q 171 826 106 760 q 322 931 236 893 q 508 969 408 969 q 689 935 604 971 q 839 833 774 899 q 942 678 904 767 q 982 485 981 589 q 948 297 985 385 q 846 144 911 210 q 694 40 781 78 q 508 -1 607 1 m 513 269 q 620 314 574 269 q 665 435 667 358 q 619 557 665 513 q 513 601 574 601 q 406 557 451 601 q 360 435 360 513 q 406 314 360 358 q 513 269 451 269 z "},"Ộ":{"ha":1017,"x_min":33,"x_max":985,"o":"m 508 -1 q 328 33 413 -3 q 178 136 243 69 q 75 292 113 203 q 35 485 38 381 q 69 672 33 585 q 171 826 106 760 q 322 931 236 893 q 508 969 408 969 q 689 935 604 971 q 839 833 774 899 q 942 678 904 767 q 982 485 981 589 q 948 297 985 385 q 846 144 911 210 q 694 40 781 78 q 508 -1 607 1 m 513 269 q 620 314 574 269 q 665 435 667 358 q 619 557 665 513 q 513 601 574 601 q 406 557 451 601 q 360 435 360 513 q 406 314 360 358 q 513 269 451 269 m 508 -247 q 440 -218 468 -247 q 411 -150 411 -189 q 440 -81 411 -110 q 508 -53 468 -53 q 577 -81 549 -53 q 606 -150 606 -110 q 577 -218 606 -189 q 508 -247 549 -247 m 390 996 q 332 1017 353 996 q 311 1072 311 1038 q 340 1143 311 1106 q 415 1208 369 1181 q 507 1235 460 1235 q 600 1208 554 1235 q 676 1144 646 1182 q 707 1072 707 1107 q 686 1017 707 1038 q 628 996 665 996 q 563 1017 593 996 q 510 1068 532 1039 q 456 1017 488 1039 q 390 996 425 996 z "},"Ồ":{"ha":1017,"x_min":33,"x_max":985,"o":"m 703 1206 q 658 1219 685 1206 q 604 1253 631 1232 q 560 1296 578 1274 q 542 1336 542 1318 q 560 1387 540 1361 q 619 1413 581 1413 q 664 1397 639 1413 q 712 1356 689 1381 q 750 1306 735 1331 q 765 1264 765 1281 q 749 1224 765 1243 q 703 1206 732 1206 m 390 996 q 332 1017 353 996 q 311 1072 311 1038 q 340 1143 311 1106 q 415 1208 369 1181 q 507 1235 460 1235 q 600 1208 554 1235 q 676 1144 646 1182 q 707 1072 707 1107 q 686 1017 707 1038 q 628 996 665 996 q 563 1017 593 996 q 510 1068 532 1039 q 456 1017 488 1039 q 390 996 425 996 m 508 -1 q 328 33 413 -3 q 178 136 243 69 q 75 292 113 203 q 35 485 38 381 q 69 672 33 585 q 171 826 106 760 q 322 931 236 893 q 508 969 408 969 q 689 935 604 971 q 839 833 774 899 q 942 678 904 767 q 982 485 981 589 q 948 297 985 385 q 846 144 911 210 q 694 40 781 78 q 508 -1 607 1 m 513 269 q 620 314 574 269 q 665 435 667 358 q 619 557 665 513 q 513 601 574 601 q 406 557 451 601 q 360 435 360 513 q 406 314 360 358 q 513 269 451 269 z "},"Ổ":{"ha":1017,"x_min":33,"x_max":985,"o":"m 693 1193 q 652 1205 671 1193 q 633 1240 633 1217 q 644 1269 633 1263 q 665 1281 654 1276 q 676 1296 676 1285 q 661 1312 676 1311 q 626 1313 646 1313 q 585 1324 604 1313 q 567 1365 567 1335 q 585 1405 567 1390 q 628 1426 604 1419 q 669 1432 653 1432 q 773 1399 735 1432 q 811 1313 811 1367 q 772 1223 811 1253 q 693 1193 733 1193 m 390 996 q 332 1017 353 996 q 311 1072 311 1038 q 340 1143 311 1106 q 415 1208 369 1181 q 507 1235 460 1235 q 600 1208 554 1235 q 676 1144 646 1182 q 707 1072 707 1107 q 686 1017 707 1038 q 628 996 665 996 q 563 1017 593 996 q 510 1068 532 1039 q 456 1017 488 1039 q 390 996 425 996 m 508 -1 q 328 33 413 -3 q 178 136 243 69 q 75 292 113 203 q 35 485 38 381 q 69 672 33 585 q 171 826 106 760 q 322 931 236 893 q 508 969 408 969 q 689 935 604 971 q 839 833 774 899 q 942 678 904 767 q 982 485 981 589 q 948 297 985 385 q 846 144 911 210 q 694 40 781 78 q 508 -1 607 1 m 513 269 q 620 314 574 269 q 665 435 667 358 q 619 557 665 513 q 513 601 574 601 q 406 557 451 601 q 360 435 360 513 q 406 314 360 358 q 513 269 451 269 z "},"Ỗ":{"ha":1017,"x_min":33,"x_max":985,"o":"m 350 1257 q 294 1276 317 1257 q 271 1336 271 1296 q 290 1390 271 1363 q 342 1435 310 1417 q 411 1453 374 1453 q 484 1442 461 1453 q 522 1422 507 1432 q 560 1411 536 1411 q 602 1421 589 1411 q 627 1440 615 1431 q 667 1450 639 1450 q 722 1430 699 1450 q 746 1371 746 1410 q 726 1317 746 1344 q 675 1272 707 1290 q 604 1254 643 1254 q 533 1264 556 1254 q 494 1284 510 1274 q 457 1294 479 1294 q 414 1285 426 1294 q 390 1266 401 1275 q 350 1257 378 1257 m 390 996 q 332 1017 353 996 q 311 1072 311 1038 q 340 1143 311 1106 q 415 1208 369 1181 q 507 1235 460 1235 q 600 1208 554 1235 q 676 1144 646 1182 q 707 1072 707 1107 q 686 1017 707 1038 q 628 996 665 996 q 563 1017 593 996 q 510 1068 532 1039 q 456 1017 488 1039 q 390 996 425 996 m 508 -1 q 328 33 413 -3 q 178 136 243 69 q 75 292 113 203 q 35 485 38 381 q 69 672 33 585 q 171 826 106 760 q 322 931 236 893 q 508 969 408 969 q 689 935 604 971 q 839 833 774 899 q 942 678 904 767 q 982 485 981 589 q 948 297 985 385 q 846 144 911 210 q 694 40 781 78 q 508 -1 607 1 m 513 269 q 620 314 574 269 q 665 435 667 358 q 619 557 665 513 q 513 601 574 601 q 406 557 451 601 q 360 435 360 513 q 406 314 360 358 q 513 269 451 269 z "},"Ȍ":{"ha":1017,"x_min":33,"x_max":985,"o":"m 508 -1 q 328 33 413 -3 q 178 136 243 69 q 75 292 113 203 q 35 485 38 381 q 69 672 33 585 q 171 826 106 760 q 322 931 236 893 q 508 969 408 969 q 689 935 604 971 q 839 833 774 899 q 942 678 904 767 q 982 485 981 589 q 948 297 985 385 q 846 144 911 210 q 694 40 781 78 q 508 -1 607 1 m 513 269 q 620 314 574 269 q 665 435 667 358 q 619 557 665 513 q 513 601 574 601 q 406 557 451 601 q 360 435 360 513 q 406 314 360 358 q 513 269 451 269 m 657 1007 q 611 1022 636 1007 q 563 1059 586 1036 q 523 1106 539 1082 q 507 1150 507 1131 q 528 1207 506 1178 q 593 1236 550 1236 q 638 1218 614 1236 q 681 1173 661 1200 q 713 1119 700 1146 q 725 1072 725 1092 q 707 1028 725 1050 q 657 1007 689 1007 m 429 1006 q 381 1021 408 1006 q 328 1059 354 1036 q 283 1106 301 1082 q 265 1150 265 1131 q 286 1206 264 1178 q 351 1235 308 1235 q 398 1217 372 1235 q 446 1172 424 1199 q 483 1117 468 1144 q 497 1071 497 1090 q 479 1027 497 1049 q 429 1006 461 1006 z "},"Ö":{"ha":1017,"x_min":33,"x_max":985,"o":"m 508 -1 q 328 33 413 -3 q 178 136 243 69 q 75 292 113 203 q 35 485 38 381 q 69 672 33 585 q 171 826 106 760 q 322 931 236 893 q 508 969 408 969 q 689 935 604 971 q 839 833 774 899 q 942 678 904 767 q 982 485 981 589 q 948 297 985 385 q 846 144 911 210 q 694 40 781 78 q 508 -1 607 1 m 513 269 q 620 314 574 269 q 665 435 667 358 q 619 557 665 513 q 513 601 574 601 q 406 557 451 601 q 360 435 360 513 q 406 314 360 358 q 513 269 451 269 m 646 1008 q 570 1040 601 1008 q 539 1115 539 1072 q 570 1191 539 1160 q 646 1222 601 1222 q 722 1191 690 1222 q 753 1115 753 1160 q 722 1040 753 1072 q 646 1008 690 1008 m 374 1007 q 297 1038 329 1007 q 265 1114 265 1069 q 297 1190 265 1158 q 374 1221 329 1221 q 449 1190 418 1221 q 479 1114 479 1158 q 449 1038 479 1069 q 374 1007 418 1007 z "},"Ȫ":{"ha":1017,"x_min":33,"x_max":985,"o":"m 508 -1 q 328 33 413 -3 q 178 136 243 69 q 75 292 113 203 q 35 485 38 381 q 69 672 33 585 q 171 826 106 760 q 322 931 236 893 q 508 969 408 969 q 689 935 604 971 q 839 833 774 899 q 942 678 904 767 q 982 485 981 589 q 948 297 985 385 q 846 144 911 210 q 694 40 781 78 q 508 -1 607 1 m 513 269 q 620 314 574 269 q 665 435 667 358 q 619 557 665 513 q 513 601 574 601 q 406 557 451 601 q 360 435 360 513 q 406 314 360 358 q 513 269 451 269 m 646 1008 q 570 1040 601 1008 q 539 1115 539 1072 q 570 1191 539 1160 q 646 1222 601 1222 q 722 1191 690 1222 q 753 1115 753 1160 q 722 1040 753 1072 q 646 1008 690 1008 m 374 1007 q 297 1038 329 1007 q 265 1114 265 1069 q 297 1190 265 1158 q 374 1221 329 1221 q 449 1190 418 1221 q 479 1114 479 1158 q 449 1038 479 1069 q 374 1007 418 1007 m 508 1258 q 422 1258 467 1258 q 339 1265 376 1258 q 278 1291 301 1272 q 254 1347 254 1310 q 278 1403 254 1383 q 339 1431 301 1422 q 422 1440 376 1439 q 508 1442 467 1442 q 596 1440 551 1442 q 678 1431 640 1439 q 740 1403 717 1422 q 764 1347 764 1383 q 740 1291 764 1310 q 678 1265 717 1272 q 596 1258 640 1258 q 508 1258 551 1258 z "},"Ȱ":{"ha":1017,"x_min":33,"x_max":985,"o":"m 508 -1 q 328 33 413 -3 q 178 136 243 69 q 75 292 113 203 q 35 485 38 381 q 69 672 33 585 q 171 826 106 760 q 322 931 236 893 q 508 969 408 969 q 689 935 604 971 q 839 833 774 899 q 942 678 904 767 q 982 485 981 589 q 948 297 985 385 q 846 144 911 210 q 694 40 781 78 q 508 -1 607 1 m 513 269 q 620 314 574 269 q 665 435 667 358 q 619 557 665 513 q 513 601 574 601 q 406 557 451 601 q 360 435 360 513 q 406 314 360 358 q 513 269 451 269 m 508 1018 q 440 1047 468 1018 q 411 1115 411 1076 q 440 1184 411 1156 q 508 1213 468 1213 q 577 1184 549 1213 q 606 1115 606 1156 q 577 1047 606 1076 q 508 1018 549 1018 m 508 1258 q 422 1258 467 1258 q 339 1265 376 1258 q 278 1291 301 1272 q 254 1347 254 1310 q 278 1403 254 1383 q 339 1431 301 1422 q 422 1440 376 1439 q 508 1442 467 1442 q 596 1440 551 1442 q 678 1431 640 1439 q 740 1403 717 1422 q 764 1347 764 1383 q 740 1291 764 1310 q 678 1265 717 1272 q 596 1258 640 1258 q 508 1258 551 1258 z "},"Ọ":{"ha":1017,"x_min":33,"x_max":985,"o":"m 508 -1 q 328 33 413 -3 q 178 136 243 69 q 75 292 113 203 q 35 485 38 381 q 69 672 33 585 q 171 826 106 760 q 322 931 236 893 q 508 969 408 969 q 689 935 604 971 q 839 833 774 899 q 942 678 904 767 q 982 485 981 589 q 948 297 985 385 q 846 144 911 210 q 694 40 781 78 q 508 -1 607 1 m 513 269 q 620 314 574 269 q 665 435 667 358 q 619 557 665 513 q 513 601 574 601 q 406 557 451 601 q 360 435 360 513 q 406 314 360 358 q 513 269 451 269 m 508 1018 q 440 1047 468 1018 q 411 1115 411 1076 q 440 1184 411 1156 q 508 1213 468 1213 q 577 1184 549 1213 q 606 1115 606 1156 q 577 1047 606 1076 q 508 1018 549 1018 z "},"Ò":{"ha":1017,"x_min":33,"x_max":985,"o":"m 508 -1 q 328 33 413 -3 q 178 136 243 69 q 75 292 113 203 q 35 485 38 381 q 69 672 33 585 q 171 826 106 760 q 322 931 236 893 q 508 969 408 969 q 689 935 604 971 q 839 833 774 899 q 942 678 904 767 q 982 485 981 589 q 948 297 985 385 q 846 144 911 210 q 694 40 781 78 q 508 -1 607 1 m 513 269 q 620 314 574 269 q 665 435 667 358 q 619 557 665 513 q 513 601 574 601 q 406 557 451 601 q 360 435 360 513 q 406 314 360 358 q 513 269 451 269 m 569 1006 q 519 1021 549 1006 q 461 1059 490 1036 q 412 1106 432 1082 q 392 1150 392 1131 q 413 1206 390 1178 q 478 1235 435 1235 q 526 1217 499 1235 q 579 1172 554 1199 q 621 1117 604 1144 q 638 1071 638 1090 q 619 1027 638 1049 q 569 1006 601 1006 z "},"Ỏ":{"ha":1017,"x_min":33,"x_max":985,"o":"m 508 -1 q 328 33 413 -3 q 178 136 243 69 q 75 292 113 203 q 35 485 38 381 q 69 672 33 585 q 171 826 106 760 q 322 931 236 893 q 508 969 408 969 q 689 935 604 971 q 839 833 774 899 q 942 678 904 767 q 982 485 981 589 q 948 297 985 385 q 846 144 911 210 q 694 40 781 78 q 508 -1 607 1 m 513 269 q 620 314 574 269 q 665 435 667 358 q 619 557 665 513 q 513 601 574 601 q 406 557 451 601 q 360 435 360 513 q 406 314 360 358 q 513 269 451 269 m 513 1006 q 467 1019 488 1006 q 446 1058 446 1032 q 458 1090 446 1082 q 483 1102 471 1097 q 494 1119 494 1107 q 477 1137 494 1136 q 439 1138 460 1138 q 394 1149 414 1138 q 374 1196 374 1161 q 394 1240 374 1224 q 441 1263 414 1256 q 486 1269 468 1269 q 601 1233 558 1269 q 643 1138 643 1197 q 623 1064 643 1093 q 573 1020 603 1035 q 513 1006 543 1006 z "},"Ơ":{"ha":1017,"x_min":33,"x_max":985,"o":"m 508 -1 q 328 33 413 -3 q 178 136 243 69 q 75 292 113 203 q 35 485 38 381 q 69 672 33 585 q 171 826 106 760 q 322 931 236 893 q 508 969 408 969 q 689 935 604 971 q 839 833 774 899 q 942 678 904 767 q 982 485 981 589 q 948 297 985 385 q 846 144 911 210 q 694 40 781 78 q 508 -1 607 1 m 513 269 q 620 314 574 269 q 665 435 667 358 q 619 557 665 513 q 513 601 574 601 q 406 557 451 601 q 360 435 360 513 q 406 314 360 358 q 513 269 451 269 m 744 786 q 590 806 647 786 q 533 875 533 826 q 556 942 533 917 q 628 968 578 967 q 706 972 674 971 q 756 987 739 972 q 772 1044 772 1001 q 780 1096 772 1069 q 808 1140 788 1122 q 867 1158 829 1158 q 918 1140 900 1158 q 944 1092 936 1121 q 952 1032 951 1063 q 953 978 953 1001 q 928 885 953 929 q 858 814 904 842 q 744 786 811 786 z "},"Ớ":{"ha":1017,"x_min":33,"x_max":985,"o":"m 508 -1 q 328 33 413 -3 q 178 136 243 69 q 75 292 113 203 q 35 485 38 381 q 69 672 33 585 q 171 826 106 760 q 322 931 236 893 q 508 969 408 969 q 689 935 604 971 q 839 833 774 899 q 942 678 904 767 q 982 485 981 589 q 948 297 985 385 q 846 144 911 210 q 694 40 781 78 q 508 -1 607 1 m 513 269 q 620 314 574 269 q 665 435 667 358 q 619 557 665 513 q 513 601 574 601 q 406 557 451 601 q 360 435 360 513 q 406 314 360 358 q 513 269 451 269 m 744 786 q 590 806 647 786 q 533 875 533 826 q 556 942 533 917 q 628 968 578 967 q 706 972 674 971 q 756 987 739 972 q 772 1044 772 1001 q 780 1096 772 1069 q 808 1140 788 1122 q 867 1158 829 1158 q 918 1140 900 1158 q 944 1092 936 1121 q 952 1032 951 1063 q 953 978 953 1001 q 928 885 953 929 q 858 814 904 842 q 744 786 811 786 m 453 1011 q 403 1033 422 1011 q 385 1076 385 1054 q 401 1123 385 1096 q 443 1177 418 1150 q 496 1222 468 1204 q 544 1240 524 1240 q 610 1212 588 1240 q 631 1156 632 1183 q 610 1112 631 1136 q 561 1065 590 1088 q 503 1026 532 1042 q 453 1011 474 1011 z "},"Ợ":{"ha":1017,"x_min":33,"x_max":985,"o":"m 508 -1 q 328 33 413 -3 q 178 136 243 69 q 75 292 113 203 q 35 485 38 381 q 69 672 33 585 q 171 826 106 760 q 322 931 236 893 q 508 969 408 969 q 689 935 604 971 q 839 833 774 899 q 942 678 904 767 q 982 485 981 589 q 948 297 985 385 q 846 144 911 210 q 694 40 781 78 q 508 -1 607 1 m 513 269 q 620 314 574 269 q 665 435 667 358 q 619 557 665 513 q 513 601 574 601 q 406 557 451 601 q 360 435 360 513 q 406 314 360 358 q 513 269 451 269 m 744 786 q 590 806 647 786 q 533 875 533 826 q 556 942 533 917 q 628 968 578 967 q 706 972 674 971 q 756 987 739 972 q 772 1044 772 1001 q 780 1096 772 1069 q 808 1140 788 1122 q 867 1158 829 1158 q 918 1140 900 1158 q 944 1092 936 1121 q 952 1032 951 1063 q 953 978 953 1001 q 928 885 953 929 q 858 814 904 842 q 744 786 811 786 m 508 1018 q 440 1047 468 1018 q 411 1115 411 1076 q 440 1184 411 1156 q 508 1213 468 1213 q 577 1184 549 1213 q 606 1115 606 1156 q 577 1047 606 1076 q 508 1018 549 1018 z "},"Ờ":{"ha":1017,"x_min":33,"x_max":985,"o":"m 508 -1 q 328 33 413 -3 q 178 136 243 69 q 75 292 113 203 q 35 485 38 381 q 69 672 33 585 q 171 826 106 760 q 322 931 236 893 q 508 969 408 969 q 689 935 604 971 q 839 833 774 899 q 942 678 904 767 q 982 485 981 589 q 948 297 985 385 q 846 144 911 210 q 694 40 781 78 q 508 -1 607 1 m 513 269 q 620 314 574 269 q 665 435 667 358 q 619 557 665 513 q 513 601 574 601 q 406 557 451 601 q 360 435 360 513 q 406 314 360 358 q 513 269 451 269 m 744 786 q 590 806 647 786 q 533 875 533 826 q 556 942 533 917 q 628 968 578 967 q 706 972 674 971 q 756 987 739 972 q 772 1044 772 1001 q 780 1096 772 1069 q 808 1140 788 1122 q 867 1158 829 1158 q 918 1140 900 1158 q 944 1092 936 1121 q 952 1032 951 1063 q 953 978 953 1001 q 928 885 953 929 q 858 814 904 842 q 744 786 811 786 m 564 1019 q 514 1035 543 1019 q 456 1073 485 1050 q 406 1120 426 1096 q 386 1164 386 1144 q 407 1220 385 1192 q 472 1249 429 1249 q 521 1231 493 1249 q 574 1185 549 1213 q 615 1131 599 1158 q 632 1085 632 1104 q 614 1041 632 1063 q 564 1019 596 1019 z "},"Ở":{"ha":1017,"x_min":33,"x_max":985,"o":"m 508 -1 q 328 33 413 -3 q 178 136 243 69 q 75 292 113 203 q 35 485 38 381 q 69 672 33 585 q 171 826 106 760 q 322 931 236 893 q 508 969 408 969 q 689 935 604 971 q 839 833 774 899 q 942 678 904 767 q 982 485 981 589 q 948 297 985 385 q 846 144 911 210 q 694 40 781 78 q 508 -1 607 1 m 513 269 q 620 314 574 269 q 665 435 667 358 q 619 557 665 513 q 513 601 574 601 q 406 557 451 601 q 360 435 360 513 q 406 314 360 358 q 513 269 451 269 m 744 786 q 590 806 647 786 q 533 875 533 826 q 556 942 533 917 q 628 968 578 967 q 706 972 674 971 q 756 987 739 972 q 772 1044 772 1001 q 780 1096 772 1069 q 808 1140 788 1122 q 867 1158 829 1158 q 918 1140 900 1158 q 944 1092 936 1121 q 952 1032 951 1063 q 953 978 953 1001 q 928 885 953 929 q 858 814 904 842 q 744 786 811 786 m 513 997 q 467 1010 488 997 q 446 1050 446 1024 q 458 1081 446 1074 q 483 1094 471 1089 q 494 1111 494 1099 q 477 1128 494 1128 q 439 1129 460 1129 q 394 1141 414 1129 q 374 1188 374 1153 q 394 1231 374 1215 q 441 1254 414 1247 q 486 1261 468 1261 q 601 1225 558 1261 q 643 1129 643 1189 q 623 1056 643 1085 q 573 1012 603 1026 q 513 997 543 997 z "},"Ỡ":{"ha":1017,"x_min":33,"x_max":985,"o":"m 358 1058 q 304 1079 326 1058 q 282 1142 282 1100 q 301 1198 282 1169 q 350 1246 319 1226 q 417 1265 381 1265 q 486 1254 464 1265 q 522 1232 508 1243 q 558 1221 536 1221 q 599 1231 586 1221 q 623 1252 611 1242 q 660 1263 635 1263 q 714 1241 692 1263 q 736 1179 736 1219 q 717 1123 736 1151 q 668 1075 699 1094 q 601 1056 638 1056 q 532 1066 554 1056 q 496 1088 510 1076 q 460 1099 482 1099 q 419 1088 432 1099 q 396 1068 407 1078 q 358 1058 385 1058 m 508 -1 q 328 33 413 -3 q 178 136 243 69 q 75 292 113 203 q 35 485 38 381 q 69 672 33 585 q 171 826 106 760 q 322 931 236 893 q 508 969 408 969 q 592 963 551 969 q 628 968 608 967 q 706 972 674 971 q 756 987 739 972 q 772 1044 772 1001 q 780 1096 772 1069 q 808 1140 788 1122 q 867 1158 829 1158 q 918 1140 900 1158 q 944 1092 936 1121 q 952 1032 951 1063 q 953 978 953 1001 q 928 885 953 929 q 857 814 903 840 q 947 666 914 750 q 982 485 981 582 q 948 297 985 385 q 846 144 911 210 q 694 40 781 78 q 508 -1 607 1 m 513 269 q 620 314 574 269 q 665 435 667 358 q 619 557 665 513 q 513 601 574 601 q 406 557 451 601 q 360 435 360 513 q 406 314 360 358 q 513 269 451 269 z "},"Ő":{"ha":1017,"x_min":33,"x_max":985,"o":"m 508 -1 q 328 33 413 -3 q 178 136 243 69 q 75 292 113 203 q 35 485 38 381 q 69 672 33 585 q 171 826 106 760 q 322 931 236 893 q 508 969 408 969 q 689 935 604 971 q 839 833 774 899 q 942 678 904 767 q 982 485 981 589 q 948 297 985 385 q 846 144 911 210 q 694 40 781 78 q 508 -1 607 1 m 513 269 q 620 314 574 269 q 665 435 667 358 q 619 557 665 513 q 513 601 574 601 q 406 557 451 601 q 360 435 360 513 q 406 314 360 358 q 513 269 451 269 m 378 1007 q 328 1028 347 1007 q 310 1072 310 1050 q 322 1119 310 1092 q 354 1173 335 1146 q 397 1218 374 1200 q 442 1236 421 1236 q 507 1207 485 1236 q 528 1150 529 1178 q 512 1106 528 1131 q 472 1059 496 1082 q 424 1022 449 1036 q 378 1007 399 1007 m 606 1006 q 556 1027 575 1006 q 538 1071 538 1049 q 552 1117 538 1090 q 589 1172 567 1144 q 637 1217 611 1199 q 683 1235 663 1235 q 749 1206 726 1235 q 769 1150 771 1178 q 751 1106 769 1131 q 707 1059 733 1082 q 653 1021 681 1036 q 606 1006 626 1006 z "},"Ȏ":{"ha":1017,"x_min":33,"x_max":985,"o":"m 508 -1 q 328 33 413 -3 q 178 136 243 69 q 75 292 113 203 q 35 485 38 381 q 69 672 33 585 q 171 826 106 760 q 322 931 236 893 q 508 969 408 969 q 689 935 604 971 q 839 833 774 899 q 942 678 904 767 q 982 485 981 589 q 948 297 985 385 q 846 144 911 210 q 694 40 781 78 q 508 -1 607 1 m 513 269 q 620 314 574 269 q 665 435 667 358 q 619 557 665 513 q 513 601 574 601 q 406 557 451 601 q 360 435 360 513 q 406 314 360 358 q 513 269 451 269 m 507 1226 q 610 1203 567 1226 q 676 1144 653 1179 q 700 1074 700 1108 q 685 1024 700 1049 q 633 999 669 999 q 580 1017 594 999 q 551 1053 565 1035 q 508 1077 533 1078 q 465 1053 483 1076 q 435 1017 451 1035 q 385 999 418 999 q 333 1024 349 999 q 318 1074 318 1049 q 341 1142 318 1107 q 406 1202 364 1178 q 507 1226 449 1226 z "},"Ō":{"ha":1017,"x_min":33,"x_max":985,"o":"m 508 -1 q 328 33 413 -3 q 178 136 243 69 q 75 292 113 203 q 35 485 38 381 q 69 672 33 585 q 171 826 106 760 q 322 931 236 893 q 508 969 408 969 q 689 935 604 971 q 839 833 774 899 q 942 678 904 767 q 982 485 981 589 q 948 297 985 385 q 846 144 911 210 q 694 40 781 78 q 508 -1 607 1 m 513 269 q 620 314 574 269 q 665 435 667 358 q 619 557 665 513 q 513 601 574 601 q 406 557 451 601 q 360 435 360 513 q 406 314 360 358 q 513 269 451 269 m 508 1035 q 422 1035 467 1035 q 339 1042 376 1035 q 278 1067 301 1049 q 254 1124 254 1086 q 278 1179 254 1160 q 339 1207 301 1199 q 422 1217 376 1215 q 508 1218 467 1218 q 596 1217 551 1218 q 678 1207 640 1215 q 740 1179 717 1199 q 764 1124 764 1160 q 740 1067 764 1086 q 678 1042 717 1049 q 596 1035 640 1035 q 508 1035 551 1035 z "},"Ǫ":{"ha":1017,"x_min":33,"x_max":985,"o":"m 508 -1 q 328 33 413 -3 q 178 136 243 69 q 75 292 113 203 q 35 485 38 381 q 69 672 33 585 q 171 826 106 760 q 322 931 236 893 q 508 969 408 969 q 689 935 604 971 q 839 833 774 899 q 942 678 904 767 q 982 485 981 589 q 948 297 985 385 q 846 144 911 210 q 694 40 781 78 q 508 -1 607 1 m 513 269 q 620 314 574 269 q 665 435 667 358 q 619 557 665 513 q 513 601 574 601 q 406 557 451 601 q 360 435 360 513 q 406 314 360 358 q 513 269 451 269 m 518 -308 q 388 -267 438 -308 q 338 -136 338 -225 q 357 -55 338 -92 q 406 10 376 -18 q 467 54 436 39 q 524 69 499 69 l 646 69 q 676 46 690 69 q 596 -35 661 22 q 551 -74 574 -54 q 529 -119 529 -93 q 547 -151 529 -144 q 579 -158 564 -158 q 626 -174 606 -158 q 646 -229 646 -190 q 617 -285 646 -262 q 518 -308 588 -308 z "},"Ø":{"ha":1015,"x_min":32,"x_max":983,"o":"m 507 -1 q 356 22 429 -3 q 282 -58 308 -44 q 229 -56 256 -71 q 200 -11 203 -40 q 231 89 197 18 q 90 258 143 154 q 33 485 36 361 q 68 672 32 585 q 169 826 104 760 q 321 931 235 893 q 507 969 407 969 q 714 922 617 971 q 780 987 756 976 q 829 983 804 997 q 858 940 856 968 q 828 842 860 911 q 938 685 897 776 q 981 485 979 593 q 947 298 983 385 q 844 144 910 211 q 692 40 779 78 q 507 -1 606 1 m 324 435 q 354 321 325 369 q 403 405 378 360 q 460 503 429 450 q 500 572 481 539 q 538 636 519 606 q 511 638 525 638 q 419 614 461 639 q 350 543 376 589 q 324 435 324 497 m 511 233 q 604 258 561 233 q 673 328 647 282 q 697 435 699 374 q 669 549 699 499 q 635 488 653 519 q 597 424 617 457 q 538 322 565 369 q 488 235 511 275 q 511 233 499 233 z "},"Ǿ":{"ha":1015,"x_min":32,"x_max":983,"o":"m 507 -1 q 356 22 429 -3 q 282 -58 308 -44 q 229 -56 256 -71 q 200 -11 203 -40 q 231 89 197 18 q 90 258 143 154 q 33 485 36 361 q 68 672 32 585 q 169 826 104 760 q 321 931 235 893 q 507 969 407 969 q 714 922 617 971 q 780 987 756 976 q 829 983 804 997 q 858 940 856 968 q 828 842 860 911 q 938 685 897 776 q 981 485 979 593 q 947 298 983 385 q 844 144 910 211 q 692 40 779 78 q 507 -1 606 1 m 324 435 q 354 321 325 369 q 403 405 378 360 q 460 503 429 450 q 500 572 481 539 q 538 636 519 606 q 511 638 525 638 q 419 614 461 639 q 350 543 376 589 q 324 435 324 497 m 511 233 q 604 258 561 233 q 673 328 647 282 q 697 435 699 374 q 669 549 699 499 q 635 488 653 519 q 597 424 617 457 q 538 322 565 369 q 488 235 511 275 q 511 233 499 233 m 472 1019 q 423 1041 442 1019 q 404 1085 404 1063 q 421 1131 404 1104 q 463 1185 438 1158 q 515 1231 488 1213 q 564 1249 543 1249 q 629 1220 607 1249 q 650 1164 651 1192 q 630 1120 650 1144 q 581 1073 610 1096 q 522 1035 551 1050 q 472 1019 493 1019 z "},"Õ":{"ha":1017,"x_min":33,"x_max":985,"o":"m 508 -1 q 328 33 413 -3 q 178 136 243 69 q 75 292 113 203 q 35 485 38 381 q 69 672 33 585 q 171 826 106 760 q 322 931 236 893 q 508 969 408 969 q 689 935 604 971 q 839 833 774 899 q 942 678 904 767 q 982 485 981 589 q 948 297 985 385 q 846 144 911 210 q 694 40 781 78 q 508 -1 607 1 m 513 269 q 620 314 574 269 q 665 435 667 358 q 619 557 665 513 q 513 601 574 601 q 406 557 451 601 q 360 435 360 513 q 406 314 360 358 q 513 269 451 269 m 335 1007 q 273 1029 299 1007 q 247 1094 247 1051 q 269 1154 247 1125 q 326 1203 290 1183 q 403 1224 361 1224 q 483 1213 457 1224 q 524 1190 508 1201 q 565 1178 540 1178 q 613 1189 599 1178 q 641 1210 628 1200 q 683 1221 654 1221 q 745 1199 719 1221 q 771 1133 771 1176 q 749 1074 771 1104 q 693 1024 728 1044 q 615 1004 658 1004 q 536 1015 563 1004 q 494 1038 510 1026 q 453 1049 478 1049 q 405 1038 419 1049 q 378 1017 390 1028 q 335 1007 365 1007 z "},"Ȭ":{"ha":1017,"x_min":33,"x_max":985,"o":"m 508 -1 q 328 33 413 -3 q 178 136 243 69 q 75 292 113 203 q 35 485 38 381 q 69 672 33 585 q 171 826 106 760 q 322 931 236 893 q 508 969 408 969 q 689 935 604 971 q 839 833 774 899 q 942 678 904 767 q 982 485 981 589 q 948 297 985 385 q 846 144 911 210 q 694 40 781 78 q 508 -1 607 1 m 513 269 q 620 314 574 269 q 665 435 667 358 q 619 557 665 513 q 513 601 574 601 q 406 557 451 601 q 360 435 360 513 q 406 314 360 358 q 513 269 451 269 m 335 997 q 273 1019 299 997 q 247 1085 247 1042 q 269 1144 247 1115 q 326 1194 290 1174 q 403 1214 361 1214 q 483 1203 457 1214 q 524 1180 508 1192 q 565 1168 540 1168 q 613 1179 599 1168 q 641 1201 628 1190 q 683 1211 654 1211 q 745 1189 719 1211 q 771 1124 771 1167 q 749 1065 771 1094 q 693 1015 728 1035 q 615 994 658 994 q 536 1006 563 994 q 494 1028 510 1017 q 453 1039 478 1039 q 405 1028 419 1039 q 378 1008 390 1018 q 335 997 365 997 m 508 1249 q 422 1249 467 1249 q 339 1256 376 1249 q 278 1281 301 1263 q 254 1338 254 1300 q 278 1393 254 1374 q 339 1421 301 1413 q 422 1431 376 1429 q 508 1432 467 1432 q 596 1431 551 1432 q 678 1421 640 1429 q 740 1393 717 1413 q 764 1338 764 1374 q 740 1281 764 1300 q 678 1256 717 1263 q 596 1249 640 1249 q 508 1249 551 1249 z "},"Œ":{"ha":1479,"x_min":33,"x_max":1444,"o":"m 508 -1 q 328 33 413 -3 q 178 136 243 69 q 75 292 113 203 q 35 485 38 381 q 69 672 33 585 q 171 826 106 760 q 322 931 236 893 q 508 969 408 969 q 689 935 604 971 q 839 833 774 899 q 942 678 904 767 q 982 485 981 589 q 948 297 985 385 q 846 144 911 210 q 694 40 781 78 q 508 -1 607 1 m 513 269 q 620 314 574 269 q 665 435 667 358 q 619 557 665 513 q 513 601 574 601 q 406 557 451 601 q 360 435 360 513 q 406 314 360 358 q 513 269 451 269 m 1149 0 q 1027 8 1092 0 q 900 43 963 17 q 786 121 838 69 q 704 258 735 172 q 674 469 674 343 q 721 722 674 608 q 864 904 768 836 q 1104 972 960 972 q 1274 954 1208 972 q 1378 907 1340 936 q 1430 843 1415 878 q 1444 774 1444 808 q 1426 704 1444 738 q 1367 651 1407 671 q 1286 635 1328 633 q 1211 638 1244 638 q 1098 612 1139 638 q 1040 533 1057 586 q 1090 535 1063 535 q 1146 536 1117 536 q 1255 534 1203 536 q 1328 528 1307 532 q 1401 490 1376 518 q 1426 425 1426 461 q 1403 363 1426 390 q 1326 324 1379 335 q 1252 317 1307 319 q 1138 315 1197 315 q 1092 316 1114 315 q 1051 317 1069 317 q 1110 249 1071 274 q 1213 225 1150 225 q 1281 230 1236 225 q 1367 222 1325 235 q 1433 135 1433 201 q 1409 67 1433 99 q 1323 18 1385 36 q 1149 0 1261 0 z "},"P":{"ha":914,"x_min":35,"x_max":879,"o":"m 231 -1 q 129 40 168 -1 q 69 149 90 81 q 42 300 49 218 q 35 463 35 382 q 60 647 35 557 q 140 810 86 738 q 275 926 193 883 q 469 969 357 969 q 676 922 583 969 q 824 788 768 875 q 879 579 879 700 q 846 393 879 471 q 756 266 813 315 q 631 193 700 217 q 492 172 563 169 q 360 199 421 174 q 367 131 367 165 q 356 66 368 96 q 315 17 344 36 q 231 -1 285 -1 m 483 388 q 570 424 533 388 q 607 510 607 461 q 570 597 607 560 q 483 633 533 633 q 397 597 433 633 q 360 510 360 560 q 397 424 360 461 q 483 388 433 388 z "},"Þ":{"ha":917,"x_min":35,"x_max":882,"o":"m 363 838 q 501 864 424 864 q 635 842 568 864 q 758 775 703 819 q 848 665 814 731 q 882 510 882 599 q 851 347 882 417 q 768 231 819 278 q 653 161 717 185 q 525 138 590 138 q 363 175 438 138 q 368 95 372 136 q 334 26 364 54 q 233 -1 304 -1 q 145 35 181 -1 q 88 131 110 72 q 54 256 65 189 q 39 387 43 324 q 35 494 35 450 q 39 615 35 550 q 54 742 43 679 q 88 858 65 806 q 145 941 110 910 q 233 972 181 972 q 313 957 285 972 q 353 919 342 942 q 366 874 365 896 q 363 838 367 851 m 486 356 q 573 390 536 356 q 610 471 610 424 q 573 553 610 518 q 486 588 536 588 q 400 553 438 588 q 363 471 363 518 q 400 390 363 424 q 486 356 438 356 z "},"Q":{"ha":1010,"x_min":35,"x_max":975,"o":"m 503 11 q 320 49 404 13 q 173 151 236 86 q 74 303 110 217 q 35 492 38 390 q 74 681 38 594 q 173 833 110 768 q 321 935 236 899 q 503 972 406 971 q 686 934 601 971 q 835 832 771 897 q 935 680 899 767 q 975 492 972 593 q 952 367 974 429 q 896 247 931 304 q 930 202 915 224 q 951 164 944 181 q 961 81 969 118 q 926 22 953 44 q 865 -3 900 0 q 793 11 829 -7 q 704 65 749 33 q 606 26 657 40 q 503 11 556 11 m 514 232 q 528 233 521 232 q 485 299 503 265 q 465 391 458 349 q 499 460 471 433 q 568 492 528 488 q 650 469 608 496 q 704 429 674 454 q 676 522 703 479 q 606 589 649 564 q 514 614 564 614 q 419 588 463 614 q 349 518 375 561 q 322 424 322 475 q 349 328 322 372 q 419 258 375 285 q 514 232 463 232 z "},"R":{"ha":914,"x_min":35,"x_max":879,"o":"m 244 -1 q 141 40 182 -1 q 76 149 100 81 q 44 300 53 218 q 35 463 35 382 q 60 647 35 557 q 140 810 86 738 q 275 926 193 883 q 469 969 357 969 q 676 922 583 969 q 824 788 768 875 q 879 579 879 700 q 848 397 879 474 q 765 269 817 319 q 799 201 786 238 q 811 132 811 165 q 790 63 811 93 q 737 17 769 33 q 668 0 704 0 q 611 10 638 0 q 553 43 585 19 q 501 102 524 65 q 465 175 479 139 q 374 199 417 181 q 381 131 381 165 q 370 66 382 96 q 328 17 358 36 q 244 -1 299 -1 m 483 396 q 570 431 533 396 q 607 514 607 467 q 570 598 607 563 q 483 633 533 633 q 397 598 433 633 q 360 514 360 563 q 397 431 360 467 q 483 396 433 396 z "},"Ŕ":{"ha":914,"x_min":35,"x_max":879,"o":"m 244 -1 q 141 40 182 -1 q 76 149 100 81 q 44 300 53 218 q 35 463 35 382 q 60 647 35 557 q 140 810 86 738 q 275 926 193 883 q 469 969 357 969 q 676 922 583 969 q 824 788 768 875 q 879 579 879 700 q 848 397 879 474 q 765 269 817 319 q 799 201 786 238 q 811 132 811 165 q 790 63 811 93 q 737 17 769 33 q 668 0 704 0 q 611 10 638 0 q 553 43 585 19 q 501 102 524 65 q 465 175 479 139 q 374 199 417 181 q 381 131 381 165 q 370 66 382 96 q 328 17 358 36 q 244 -1 299 -1 m 483 396 q 570 431 533 396 q 607 514 607 467 q 570 598 607 563 q 483 633 533 633 q 397 598 433 633 q 360 514 360 563 q 397 431 360 467 q 483 396 433 396 m 415 1006 q 366 1027 385 1006 q 347 1071 347 1049 q 364 1117 347 1090 q 406 1172 381 1144 q 458 1217 431 1199 q 507 1235 486 1235 q 572 1206 550 1235 q 593 1150 594 1178 q 573 1106 593 1131 q 524 1059 553 1082 q 465 1021 494 1036 q 415 1006 436 1006 z "},"Ř":{"ha":914,"x_min":35,"x_max":879,"o":"m 244 -1 q 141 40 182 -1 q 76 149 100 81 q 44 300 53 218 q 35 463 35 382 q 60 647 35 557 q 140 810 86 738 q 275 926 193 883 q 469 969 357 969 q 676 922 583 969 q 824 788 768 875 q 879 579 879 700 q 848 397 879 474 q 765 269 817 319 q 799 201 786 238 q 811 132 811 165 q 790 63 811 93 q 737 17 769 33 q 668 0 704 0 q 611 10 638 0 q 553 43 585 19 q 501 102 524 65 q 465 175 479 139 q 374 199 417 181 q 381 131 381 165 q 370 66 382 96 q 328 17 358 36 q 244 -1 299 -1 m 483 396 q 570 431 533 396 q 607 514 607 467 q 570 598 607 563 q 483 633 533 633 q 397 598 433 633 q 360 514 360 563 q 397 431 360 467 q 483 396 433 396 m 339 1239 q 405 1217 374 1239 q 458 1167 436 1196 q 511 1217 481 1196 q 576 1239 542 1239 q 635 1219 614 1239 q 656 1163 656 1199 q 625 1090 656 1128 q 549 1026 594 1053 q 456 1000 503 1000 q 363 1027 408 1000 q 289 1092 318 1054 q 260 1163 260 1131 q 281 1219 260 1199 q 339 1239 301 1239 z "},"Ŗ":{"ha":914,"x_min":35,"x_max":879,"o":"m 244 -1 q 141 40 182 -1 q 76 149 100 81 q 44 300 53 218 q 35 463 35 382 q 60 647 35 557 q 140 810 86 738 q 275 926 193 883 q 469 969 357 969 q 676 922 583 969 q 824 788 768 875 q 879 579 879 700 q 848 397 879 474 q 765 269 817 319 q 799 201 786 238 q 811 132 811 165 q 790 63 811 93 q 737 17 769 33 q 668 0 704 0 q 611 10 638 0 q 553 43 585 19 q 501 102 524 65 q 465 175 479 139 q 374 199 417 181 q 381 131 381 165 q 370 66 382 96 q 328 17 358 36 q 244 -1 299 -1 m 483 396 q 570 431 533 396 q 607 514 607 467 q 570 598 607 563 q 483 633 533 633 q 397 598 433 633 q 360 514 360 563 q 397 431 360 467 q 483 396 433 396 m 388 -224 q 338 -202 357 -224 q 319 -158 319 -181 q 336 -112 319 -139 q 378 -58 353 -85 q 431 -12 403 -31 q 479 6 458 6 q 544 -23 522 6 q 565 -79 567 -51 q 545 -123 565 -99 q 496 -170 525 -147 q 438 -208 467 -193 q 388 -224 408 -224 z "},"Ȑ":{"ha":914,"x_min":35,"x_max":879,"o":"m 244 -1 q 141 40 182 -1 q 76 149 100 81 q 44 300 53 218 q 35 463 35 382 q 60 647 35 557 q 140 810 86 738 q 275 926 193 883 q 469 969 357 969 q 676 922 583 969 q 824 788 768 875 q 879 579 879 700 q 848 397 879 474 q 765 269 817 319 q 799 201 786 238 q 811 132 811 165 q 790 63 811 93 q 737 17 769 33 q 668 0 704 0 q 611 10 638 0 q 553 43 585 19 q 501 102 524 65 q 465 175 479 139 q 374 199 417 181 q 381 131 381 165 q 370 66 382 96 q 328 17 358 36 q 244 -1 299 -1 m 483 396 q 570 431 533 396 q 607 514 607 467 q 570 598 607 563 q 483 633 533 633 q 397 598 433 633 q 360 514 360 563 q 397 431 360 467 q 483 396 433 396 m 592 993 q 546 1008 571 993 q 497 1045 521 1022 q 458 1092 474 1068 q 442 1136 442 1117 q 463 1193 440 1164 q 528 1222 485 1222 q 572 1204 549 1222 q 615 1159 596 1186 q 647 1105 635 1132 q 660 1058 660 1078 q 642 1015 660 1036 q 592 993 624 993 m 364 992 q 316 1007 343 992 q 263 1045 289 1022 q 218 1092 236 1068 q 200 1136 200 1117 q 221 1192 199 1164 q 286 1221 243 1221 q 333 1203 307 1221 q 381 1158 358 1185 q 417 1103 403 1131 q 432 1057 432 1076 q 414 1013 432 1035 q 364 992 396 992 z "},"Ȓ":{"ha":914,"x_min":35,"x_max":879,"o":"m 244 -1 q 141 40 182 -1 q 76 149 100 81 q 44 300 53 218 q 35 463 35 382 q 60 647 35 557 q 140 810 86 738 q 275 926 193 883 q 469 969 357 969 q 676 922 583 969 q 824 788 768 875 q 879 579 879 700 q 848 397 879 474 q 765 269 817 319 q 799 201 786 238 q 811 132 811 165 q 790 63 811 93 q 737 17 769 33 q 668 0 704 0 q 611 10 638 0 q 553 43 585 19 q 501 102 524 65 q 465 175 479 139 q 374 199 417 181 q 381 131 381 165 q 370 66 382 96 q 328 17 358 36 q 244 -1 299 -1 m 483 396 q 570 431 533 396 q 607 514 607 467 q 570 598 607 563 q 483 633 533 633 q 397 598 433 633 q 360 514 360 563 q 397 431 360 467 q 483 396 433 396 m 456 1226 q 558 1203 515 1226 q 625 1144 601 1179 q 649 1074 649 1108 q 633 1024 649 1049 q 582 999 618 999 q 528 1017 543 999 q 500 1053 514 1035 q 457 1077 482 1078 q 414 1053 432 1076 q 383 1017 400 1035 q 333 999 367 999 q 282 1024 297 999 q 267 1074 267 1049 q 290 1142 267 1107 q 355 1202 313 1178 q 456 1226 397 1226 z "},"S":{"ha":828,"x_min":35,"x_max":793,"o":"m 400 -1 q 268 13 333 -1 q 150 54 203 28 q 66 118 97 81 q 35 203 35 156 q 70 294 35 261 q 157 326 106 326 q 235 312 204 326 q 291 283 265 297 q 346 268 317 268 q 392 304 392 268 q 360 336 392 322 q 278 369 328 350 q 174 419 228 388 q 64 524 93 468 q 35 661 35 581 q 86 814 35 743 q 225 928 138 885 q 421 971 313 971 q 610 939 525 971 q 744 853 694 907 q 793 732 793 800 q 770 643 793 676 q 713 594 747 610 q 647 579 679 579 q 576 585 600 579 q 540 597 553 590 q 512 608 526 603 q 468 614 497 614 q 435 603 451 614 q 418 569 418 592 q 448 537 418 549 q 511 513 478 525 q 699 408 635 468 q 763 249 763 347 q 667 65 763 131 q 400 -1 572 -1 z "},"Ś":{"ha":828,"x_min":35,"x_max":793,"o":"m 400 -1 q 268 13 333 -1 q 150 54 203 28 q 66 118 97 81 q 35 203 35 156 q 70 294 35 261 q 157 326 106 326 q 235 312 204 326 q 291 283 265 297 q 346 268 317 268 q 392 304 392 268 q 360 336 392 322 q 278 369 328 350 q 174 419 228 388 q 64 524 93 468 q 35 661 35 581 q 86 814 35 743 q 225 928 138 885 q 421 971 313 971 q 610 939 525 971 q 744 853 694 907 q 793 732 793 800 q 770 643 793 676 q 713 594 747 610 q 647 579 679 579 q 576 585 600 579 q 540 597 553 590 q 512 608 526 603 q 468 614 497 614 q 435 603 451 614 q 418 569 418 592 q 448 537 418 549 q 511 513 478 525 q 699 408 635 468 q 763 249 763 347 q 667 65 763 131 q 400 -1 572 -1 m 358 1006 q 309 1027 328 1006 q 290 1071 290 1049 q 307 1117 290 1090 q 349 1172 324 1144 q 401 1217 374 1199 q 450 1235 429 1235 q 515 1206 493 1235 q 536 1150 538 1178 q 516 1106 536 1131 q 467 1059 496 1082 q 408 1021 438 1036 q 358 1006 379 1006 z "},"Š":{"ha":828,"x_min":35,"x_max":793,"o":"m 400 -1 q 268 13 333 -1 q 150 54 203 28 q 66 118 97 81 q 35 203 35 156 q 70 294 35 261 q 157 326 106 326 q 235 312 204 326 q 291 283 265 297 q 346 268 317 268 q 392 304 392 268 q 360 336 392 322 q 278 369 328 350 q 174 419 228 388 q 64 524 93 468 q 35 661 35 581 q 86 814 35 743 q 225 928 138 885 q 421 971 313 971 q 610 939 525 971 q 744 853 694 907 q 793 732 793 800 q 770 643 793 676 q 713 594 747 610 q 647 579 679 579 q 576 585 600 579 q 540 597 553 590 q 512 608 526 603 q 468 614 497 614 q 435 603 451 614 q 418 569 418 592 q 448 537 418 549 q 511 513 478 525 q 699 408 635 468 q 763 249 763 347 q 667 65 763 131 q 400 -1 572 -1 m 294 1239 q 360 1217 329 1239 q 414 1167 392 1196 q 467 1217 436 1196 q 532 1239 497 1239 q 590 1219 569 1239 q 611 1163 611 1199 q 581 1090 611 1128 q 504 1026 550 1053 q 411 1000 458 1000 q 319 1027 364 1000 q 244 1092 274 1054 q 215 1163 215 1131 q 236 1219 215 1199 q 294 1239 257 1239 z "},"Ş":{"ha":828,"x_min":35,"x_max":793,"o":"m 400 -1 q 268 13 333 -1 q 150 54 203 28 q 66 118 97 81 q 35 203 35 156 q 70 294 35 261 q 157 326 106 326 q 235 312 204 326 q 291 283 265 297 q 346 268 317 268 q 392 304 392 268 q 360 336 392 322 q 278 369 328 350 q 174 419 228 388 q 64 524 93 468 q 35 661 35 581 q 86 814 35 743 q 225 928 138 885 q 421 971 313 971 q 610 939 525 971 q 744 853 694 907 q 793 732 793 800 q 770 643 793 676 q 713 594 747 610 q 647 579 679 579 q 576 585 600 579 q 540 597 553 590 q 512 608 526 603 q 468 614 497 614 q 435 603 451 614 q 418 569 418 592 q 448 537 418 549 q 511 513 478 525 q 699 408 635 468 q 763 249 763 347 q 667 65 763 131 q 400 -1 572 -1 m 390 -336 q 265 -306 313 -336 q 218 -233 218 -275 q 236 -183 218 -199 q 281 -168 254 -168 q 344 -183 321 -168 q 389 -197 367 -197 q 412 -193 400 -197 q 424 -174 424 -189 q 394 -144 424 -154 q 321 -133 364 -133 q 267 -114 286 -133 q 249 -64 249 -94 q 261 -16 249 -43 q 294 38 274 11 q 338 81 314 64 q 385 97 363 97 q 441 87 417 97 q 465 50 465 76 q 433 -24 465 15 q 558 -68 507 -28 q 610 -165 610 -108 q 580 -254 610 -215 q 500 -315 550 -293 q 390 -336 450 -336 z "},"Ŝ":{"ha":828,"x_min":35,"x_max":793,"o":"m 400 -1 q 268 13 333 -1 q 150 54 203 28 q 66 118 97 81 q 35 203 35 156 q 70 294 35 261 q 157 326 106 326 q 235 312 204 326 q 291 283 265 297 q 346 268 317 268 q 392 304 392 268 q 360 336 392 322 q 278 369 328 350 q 174 419 228 388 q 64 524 93 468 q 35 661 35 581 q 86 814 35 743 q 225 928 138 885 q 421 971 313 971 q 610 939 525 971 q 744 853 694 907 q 793 732 793 800 q 770 643 793 676 q 713 594 747 610 q 647 579 679 579 q 576 585 600 579 q 540 597 553 590 q 512 608 526 603 q 468 614 497 614 q 435 603 451 614 q 418 569 418 592 q 448 537 418 549 q 511 513 478 525 q 699 408 635 468 q 763 249 763 347 q 667 65 763 131 q 400 -1 572 -1 m 297 996 q 239 1017 260 996 q 218 1072 218 1038 q 247 1143 218 1106 q 322 1208 276 1181 q 414 1235 367 1235 q 507 1208 461 1235 q 583 1144 553 1182 q 614 1072 614 1107 q 593 1017 614 1038 q 535 996 572 996 q 469 1017 500 996 q 417 1068 439 1039 q 363 1017 394 1039 q 297 996 332 996 z "},"Ș":{"ha":828,"x_min":35,"x_max":793,"o":"m 400 -1 q 268 13 333 -1 q 150 54 203 28 q 66 118 97 81 q 35 203 35 156 q 70 294 35 261 q 157 326 106 326 q 235 312 204 326 q 291 283 265 297 q 346 268 317 268 q 392 304 392 268 q 360 336 392 322 q 278 369 328 350 q 174 419 228 388 q 64 524 93 468 q 35 661 35 581 q 86 814 35 743 q 225 928 138 885 q 421 971 313 971 q 610 939 525 971 q 744 853 694 907 q 793 732 793 800 q 770 643 793 676 q 713 594 747 610 q 647 579 679 579 q 576 585 600 579 q 540 597 553 590 q 512 608 526 603 q 468 614 497 614 q 435 603 451 614 q 418 569 418 592 q 448 537 418 549 q 511 513 478 525 q 699 408 635 468 q 763 249 763 347 q 667 65 763 131 q 400 -1 572 -1 m 358 -265 q 309 -244 328 -265 q 290 -200 290 -222 q 307 -153 290 -181 q 349 -99 324 -126 q 401 -54 374 -72 q 450 -36 429 -36 q 515 -65 493 -36 q 536 -121 538 -93 q 516 -165 536 -140 q 467 -212 496 -189 q 408 -250 438 -235 q 358 -265 379 -265 z "},"ẞ":{"ha":1625,"x_min":35,"x_max":1590,"o":"m 1197 -1 q 1065 13 1131 -1 q 947 54 1000 28 q 863 118 894 81 q 832 203 832 156 q 867 294 832 261 q 954 326 903 326 q 1032 312 1001 326 q 1088 283 1063 297 q 1143 268 1114 268 q 1189 304 1189 268 q 1157 336 1189 322 q 1075 369 1125 350 q 971 419 1025 388 q 861 524 890 468 q 832 661 832 581 q 883 814 832 743 q 1022 928 935 885 q 1218 971 1110 971 q 1407 939 1322 971 q 1541 853 1492 907 q 1590 732 1590 800 q 1567 643 1590 676 q 1510 594 1544 610 q 1444 579 1476 579 q 1374 585 1397 579 q 1337 597 1350 590 q 1309 608 1324 603 q 1265 614 1294 614 q 1232 603 1249 614 q 1215 569 1215 592 q 1245 537 1215 549 q 1308 513 1275 525 q 1496 408 1432 468 q 1560 249 1560 347 q 1465 65 1560 131 q 1197 -1 1369 -1 m 400 -1 q 268 13 333 -1 q 150 54 203 28 q 66 118 97 81 q 35 203 35 156 q 70 294 35 261 q 157 326 106 326 q 235 312 204 326 q 291 283 265 297 q 346 268 317 268 q 392 304 392 268 q 360 336 392 322 q 278 369 328 350 q 174 419 228 388 q 64 524 93 468 q 35 661 35 581 q 86 814 35 743 q 225 928 138 885 q 421 971 313 971 q 610 939 525 971 q 744 853 694 907 q 793 732 793 800 q 770 643 793 676 q 713 594 747 610 q 647 579 679 579 q 576 585 600 579 q 540 597 553 590 q 512 608 526 603 q 468 614 497 614 q 435 603 451 614 q 418 569 418 592 q 448 537 418 549 q 511 513 478 525 q 699 408 635 468 q 763 249 763 347 q 667 65 763 131 q 400 -1 572 -1 z "},"Ə":{"ha":913,"x_min":35,"x_max":878,"o":"m 446 1 q 232 42 325 1 q 87 153 139 83 q 35 310 35 224 q 66 430 35 379 q 150 514 97 481 q 269 564 203 547 q 404 581 335 581 q 506 577 456 581 q 600 553 556 574 q 505 644 565 622 q 381 667 444 667 q 295 658 329 667 q 232 640 261 649 q 163 631 203 631 q 76 660 111 631 q 42 744 42 690 q 78 844 42 792 q 194 935 115 897 q 396 972 272 972 q 605 933 515 972 q 756 826 694 894 q 847 671 817 758 q 878 485 878 583 q 822 234 878 343 q 669 63 767 125 q 446 1 572 1 m 435 201 q 537 245 497 201 q 576 350 576 289 q 517 369 556 363 q 443 376 478 376 q 339 358 379 376 q 299 296 299 339 q 331 231 299 261 q 435 201 363 201 z "},"T":{"ha":1051,"x_min":35,"x_max":1017,"o":"m 521 3 q 415 49 451 3 q 366 185 379 94 q 353 411 353 276 q 354 503 353 460 q 357 583 356 546 q 113 631 190 592 q 35 765 35 669 q 156 926 35 885 q 522 968 278 968 q 892 926 768 968 q 1017 765 1017 885 q 938 631 1017 671 q 694 583 860 592 q 699 503 697 546 q 700 411 700 460 q 663 101 700 199 q 521 3 625 3 z "},"Ŧ":{"ha":1051,"x_min":35,"x_max":1017,"o":"m 521 3 q 407 60 443 3 q 360 229 371 117 q 167 249 229 231 q 106 338 106 267 q 166 429 106 407 q 353 454 226 451 q 354 522 353 490 q 357 583 356 554 q 113 631 190 592 q 35 765 35 669 q 156 926 35 885 q 522 968 278 968 q 892 926 768 968 q 1017 765 1017 885 q 938 631 1017 671 q 694 583 860 592 q 700 454 699 528 q 882 428 824 450 q 940 338 940 406 q 880 249 940 268 q 692 229 819 231 q 638 58 678 113 q 521 3 599 3 z "},"Ť":{"ha":1051,"x_min":35,"x_max":1017,"o":"m 521 3 q 415 49 451 3 q 366 185 379 94 q 353 411 353 276 q 354 503 353 460 q 357 583 356 546 q 113 631 190 592 q 35 765 35 669 q 156 926 35 885 q 522 968 278 968 q 892 926 768 968 q 1017 765 1017 885 q 938 631 1017 671 q 694 583 860 592 q 699 503 697 546 q 700 411 700 460 q 663 101 700 199 q 521 3 625 3 m 393 1239 q 459 1217 428 1239 q 513 1167 490 1196 q 565 1217 535 1196 q 631 1239 596 1239 q 689 1219 668 1239 q 710 1163 710 1199 q 679 1090 710 1128 q 603 1026 649 1053 q 510 1000 557 1000 q 417 1027 463 1000 q 343 1092 372 1054 q 314 1163 314 1131 q 335 1219 314 1199 q 393 1239 356 1239 z "},"Ţ":{"ha":1051,"x_min":35,"x_max":1017,"o":"m 521 3 q 415 49 451 3 q 366 185 379 94 q 353 411 353 276 q 354 503 353 460 q 357 583 356 546 q 113 631 190 592 q 35 765 35 669 q 156 926 35 885 q 522 968 278 968 q 892 926 768 968 q 1017 765 1017 885 q 938 631 1017 671 q 694 583 860 592 q 699 503 697 546 q 700 411 700 460 q 663 101 700 199 q 521 3 625 3 m 517 -336 q 392 -306 439 -336 q 344 -233 344 -275 q 363 -183 344 -199 q 407 -168 381 -168 q 470 -183 447 -168 q 515 -197 493 -197 q 538 -193 526 -197 q 550 -174 550 -189 q 520 -144 550 -154 q 447 -133 490 -133 q 394 -114 413 -133 q 375 -64 375 -94 q 388 -16 375 -43 q 420 38 400 11 q 465 81 440 64 q 511 97 489 97 q 567 87 543 97 q 592 50 592 76 q 560 -24 592 15 q 685 -68 633 -28 q 736 -165 736 -108 q 706 -254 736 -215 q 626 -315 676 -293 q 517 -336 576 -336 z "},"Ț":{"ha":1051,"x_min":35,"x_max":1017,"o":"m 521 3 q 415 49 451 3 q 366 185 379 94 q 353 411 353 276 q 354 503 353 460 q 357 583 356 546 q 113 631 190 592 q 35 765 35 669 q 156 926 35 885 q 522 968 278 968 q 892 926 768 968 q 1017 765 1017 885 q 938 631 1017 671 q 694 583 860 592 q 699 503 697 546 q 700 411 700 460 q 663 101 700 199 q 521 3 625 3 m 457 -265 q 408 -244 426 -265 q 389 -200 389 -222 q 406 -153 389 -181 q 447 -99 422 -126 q 500 -54 472 -72 q 549 -36 528 -36 q 614 -65 592 -36 q 635 -121 636 -93 q 615 -165 635 -140 q 565 -212 594 -189 q 507 -250 536 -235 q 457 -265 478 -265 z "},"U":{"ha":1050,"x_min":35,"x_max":1015,"o":"m 525 0 q 311 42 403 0 q 158 156 219 83 q 65 320 96 228 q 35 514 35 413 q 39 634 35 571 q 56 757 43 697 q 92 865 68 817 q 156 943 117 914 q 253 972 194 972 q 369 941 328 972 q 426 863 410 910 q 443 765 443 815 q 438 669 443 708 q 426 594 432 631 q 421 503 421 557 q 430 428 421 467 q 461 363 439 389 q 525 338 483 338 q 590 363 568 338 q 621 428 613 389 q 629 503 629 467 q 624 594 629 557 q 613 669 618 631 q 607 765 607 708 q 624 863 607 815 q 682 941 640 910 q 797 972 724 972 q 894 943 856 972 q 958 865 933 914 q 994 757 982 817 q 1011 634 1007 697 q 1015 514 1015 571 q 985 320 1015 413 q 892 156 954 228 q 739 42 831 83 q 525 0 647 0 z "},"Ú":{"ha":1050,"x_min":35,"x_max":1015,"o":"m 525 0 q 311 42 403 0 q 158 156 219 83 q 65 320 96 228 q 35 514 35 413 q 39 634 35 571 q 56 757 43 697 q 92 865 68 817 q 156 943 117 914 q 253 972 194 972 q 369 941 328 972 q 426 863 410 910 q 443 765 443 815 q 438 669 443 708 q 426 594 432 631 q 421 503 421 557 q 430 428 421 467 q 461 363 439 389 q 525 338 483 338 q 590 363 568 338 q 621 428 613 389 q 629 503 629 467 q 624 594 629 557 q 613 669 618 631 q 607 765 607 708 q 624 863 607 815 q 682 941 640 910 q 797 972 724 972 q 894 943 856 972 q 958 865 933 914 q 994 757 982 817 q 1011 634 1007 697 q 1015 514 1015 571 q 985 320 1015 413 q 892 156 954 228 q 739 42 831 83 q 525 0 647 0 m 483 978 q 434 999 453 978 q 415 1043 415 1021 q 432 1090 415 1063 q 474 1144 449 1117 q 526 1189 499 1171 q 575 1207 554 1207 q 640 1178 618 1207 q 661 1122 663 1150 q 641 1078 661 1103 q 592 1031 621 1054 q 533 993 563 1008 q 483 978 504 978 z "},"Ŭ":{"ha":1050,"x_min":35,"x_max":1015,"o":"m 525 0 q 311 42 403 0 q 158 156 219 83 q 65 320 96 228 q 35 514 35 413 q 39 634 35 571 q 56 757 43 697 q 92 865 68 817 q 156 943 117 914 q 253 972 194 972 q 369 941 328 972 q 426 863 410 910 q 443 765 443 815 q 438 669 443 708 q 426 594 432 631 q 421 503 421 557 q 430 428 421 467 q 461 363 439 389 q 525 338 483 338 q 590 363 568 338 q 621 428 613 389 q 629 503 629 467 q 624 594 629 557 q 613 669 618 631 q 607 765 607 708 q 624 863 607 815 q 682 941 640 910 q 797 972 724 972 q 894 943 856 972 q 958 865 933 914 q 994 757 982 817 q 1011 634 1007 697 q 1015 514 1015 571 q 985 320 1015 413 q 892 156 954 228 q 739 42 831 83 q 525 0 647 0 m 524 972 q 423 997 465 972 q 358 1057 381 1021 q 335 1125 335 1093 q 350 1175 335 1150 q 401 1200 365 1200 q 451 1183 435 1200 q 482 1146 468 1165 q 525 1122 500 1122 q 568 1146 550 1121 q 597 1183 582 1165 q 650 1200 611 1200 q 701 1175 686 1200 q 717 1125 717 1150 q 693 1055 717 1090 q 626 996 669 1019 q 524 972 583 972 z "},"Û":{"ha":1050,"x_min":35,"x_max":1015,"o":"m 525 0 q 311 42 403 0 q 158 156 219 83 q 65 320 96 228 q 35 514 35 413 q 39 634 35 571 q 56 757 43 697 q 92 865 68 817 q 156 943 117 914 q 253 972 194 972 q 369 941 328 972 q 426 863 410 910 q 443 765 443 815 q 438 669 443 708 q 426 594 432 631 q 421 503 421 557 q 430 428 421 467 q 461 363 439 389 q 525 338 483 338 q 590 363 568 338 q 621 428 613 389 q 629 503 629 467 q 624 594 629 557 q 613 669 618 631 q 607 765 607 708 q 624 863 607 815 q 682 941 640 910 q 797 972 724 972 q 894 943 856 972 q 958 865 933 914 q 994 757 982 817 q 1011 634 1007 697 q 1015 514 1015 571 q 985 320 1015 413 q 892 156 954 228 q 739 42 831 83 q 525 0 647 0 m 407 996 q 349 1017 369 996 q 328 1072 328 1038 q 357 1143 328 1106 q 431 1208 386 1181 q 524 1235 476 1235 q 617 1208 571 1235 q 693 1144 663 1182 q 724 1072 724 1107 q 703 1017 724 1038 q 644 996 682 996 q 579 1017 610 996 q 526 1068 549 1039 q 473 1017 504 1039 q 407 996 442 996 z "},"Ȕ":{"ha":1050,"x_min":35,"x_max":1015,"o":"m 525 0 q 311 42 403 0 q 158 156 219 83 q 65 320 96 228 q 35 514 35 413 q 39 634 35 571 q 56 757 43 697 q 92 865 68 817 q 156 943 117 914 q 253 972 194 972 q 369 941 328 972 q 426 863 410 910 q 443 765 443 815 q 438 669 443 708 q 426 594 432 631 q 421 503 421 557 q 430 428 421 467 q 461 363 439 389 q 525 338 483 338 q 590 363 568 338 q 621 428 613 389 q 629 503 629 467 q 624 594 629 557 q 613 669 618 631 q 607 765 607 708 q 624 863 607 815 q 682 941 640 910 q 797 972 724 972 q 894 943 856 972 q 958 865 933 914 q 994 757 982 817 q 1011 634 1007 697 q 1015 514 1015 571 q 985 320 1015 413 q 892 156 954 228 q 739 42 831 83 q 525 0 647 0 m 674 1007 q 628 1022 653 1007 q 579 1059 603 1036 q 540 1106 556 1082 q 524 1150 524 1131 q 544 1207 522 1178 q 610 1236 567 1236 q 654 1218 631 1236 q 697 1173 678 1200 q 729 1119 717 1146 q 742 1072 742 1092 q 724 1028 742 1050 q 674 1007 706 1007 m 446 1006 q 398 1021 425 1006 q 344 1059 371 1036 q 300 1106 318 1082 q 282 1150 282 1131 q 303 1206 281 1178 q 368 1235 325 1235 q 415 1217 389 1235 q 463 1172 440 1199 q 499 1117 485 1144 q 514 1071 514 1090 q 496 1027 514 1049 q 446 1006 478 1006 z "},"Ü":{"ha":1050,"x_min":35,"x_max":1015,"o":"m 525 0 q 311 42 403 0 q 158 156 219 83 q 65 320 96 228 q 35 514 35 413 q 39 634 35 571 q 56 757 43 697 q 92 865 68 817 q 156 943 117 914 q 253 972 194 972 q 369 941 328 972 q 426 863 410 910 q 443 765 443 815 q 438 669 443 708 q 426 594 432 631 q 421 503 421 557 q 430 428 421 467 q 461 363 439 389 q 525 338 483 338 q 590 363 568 338 q 621 428 613 389 q 629 503 629 467 q 624 594 629 557 q 613 669 618 631 q 607 765 607 708 q 624 863 607 815 q 682 941 640 910 q 797 972 724 972 q 894 943 856 972 q 958 865 933 914 q 994 757 982 817 q 1011 634 1007 697 q 1015 514 1015 571 q 985 320 1015 413 q 892 156 954 228 q 739 42 831 83 q 525 0 647 0 m 663 1008 q 587 1040 618 1008 q 556 1115 556 1072 q 587 1191 556 1160 q 663 1222 618 1222 q 738 1191 707 1222 q 769 1115 769 1160 q 738 1040 769 1072 q 663 1008 707 1008 m 390 1007 q 314 1038 346 1007 q 282 1114 282 1069 q 314 1190 282 1158 q 390 1221 346 1221 q 465 1190 435 1221 q 496 1114 496 1158 q 465 1038 496 1069 q 390 1007 435 1007 z "},"Ụ":{"ha":1050,"x_min":35,"x_max":1015,"o":"m 525 0 q 311 42 403 0 q 158 156 219 83 q 65 320 96 228 q 35 514 35 413 q 39 634 35 571 q 56 757 43 697 q 92 865 68 817 q 156 943 117 914 q 253 972 194 972 q 369 941 328 972 q 426 863 410 910 q 443 765 443 815 q 438 669 443 708 q 426 594 432 631 q 421 503 421 557 q 430 428 421 467 q 461 363 439 389 q 525 338 483 338 q 590 363 568 338 q 621 428 613 389 q 629 503 629 467 q 624 594 629 557 q 613 669 618 631 q 607 765 607 708 q 624 863 607 815 q 682 941 640 910 q 797 972 724 972 q 894 943 856 972 q 958 865 933 914 q 994 757 982 817 q 1011 634 1007 697 q 1015 514 1015 571 q 985 320 1015 413 q 892 156 954 228 q 739 42 831 83 q 525 0 647 0 m 525 1018 q 456 1047 485 1018 q 428 1115 428 1076 q 456 1184 428 1156 q 525 1213 485 1213 q 594 1184 565 1213 q 622 1115 622 1156 q 594 1047 622 1076 q 525 1018 565 1018 z "},"Ù":{"ha":1050,"x_min":35,"x_max":1015,"o":"m 525 0 q 311 42 403 0 q 158 156 219 83 q 65 320 96 228 q 35 514 35 413 q 39 634 35 571 q 56 757 43 697 q 92 865 68 817 q 156 943 117 914 q 253 972 194 972 q 369 941 328 972 q 426 863 410 910 q 443 765 443 815 q 438 669 443 708 q 426 594 432 631 q 421 503 421 557 q 430 428 421 467 q 461 363 439 389 q 525 338 483 338 q 590 363 568 338 q 621 428 613 389 q 629 503 629 467 q 624 594 629 557 q 613 669 618 631 q 607 765 607 708 q 624 863 607 815 q 682 941 640 910 q 797 972 724 972 q 894 943 856 972 q 958 865 933 914 q 994 757 982 817 q 1011 634 1007 697 q 1015 514 1015 571 q 985 320 1015 413 q 892 156 954 228 q 739 42 831 83 q 525 0 647 0 m 567 978 q 517 993 546 978 q 458 1031 488 1008 q 409 1078 429 1054 q 389 1122 389 1103 q 410 1178 388 1150 q 475 1207 432 1207 q 524 1189 496 1207 q 576 1144 551 1171 q 618 1090 601 1117 q 635 1043 635 1063 q 617 999 635 1021 q 567 978 599 978 z "},"Ủ":{"ha":1050,"x_min":35,"x_max":1015,"o":"m 525 0 q 311 42 403 0 q 158 156 219 83 q 65 320 96 228 q 35 514 35 413 q 39 634 35 571 q 56 757 43 697 q 92 865 68 817 q 156 943 117 914 q 253 972 194 972 q 369 941 328 972 q 426 863 410 910 q 443 765 443 815 q 438 669 443 708 q 426 594 432 631 q 421 503 421 557 q 430 428 421 467 q 461 363 439 389 q 525 338 483 338 q 590 363 568 338 q 621 428 613 389 q 629 503 629 467 q 624 594 629 557 q 613 669 618 631 q 607 765 607 708 q 624 863 607 815 q 682 941 640 910 q 797 972 724 972 q 894 943 856 972 q 958 865 933 914 q 994 757 982 817 q 1011 634 1007 697 q 1015 514 1015 571 q 985 320 1015 413 q 892 156 954 228 q 739 42 831 83 q 525 0 647 0 m 529 956 q 483 969 504 956 q 463 1008 463 982 q 475 1040 463 1032 q 499 1052 488 1047 q 511 1069 511 1057 q 494 1087 511 1086 q 456 1088 476 1088 q 410 1099 431 1088 q 390 1146 390 1111 q 410 1190 390 1174 q 458 1213 431 1206 q 503 1219 485 1219 q 617 1183 575 1219 q 660 1088 660 1147 q 640 1014 660 1043 q 590 970 619 985 q 529 956 560 956 z "},"Ư":{"ha":1090,"x_min":35,"x_max":1125,"o":"m 525 0 q 311 42 403 0 q 158 156 219 83 q 65 320 96 228 q 35 514 35 413 q 39 634 35 571 q 56 757 43 697 q 92 865 68 817 q 156 943 117 914 q 253 972 194 972 q 369 941 328 972 q 426 863 410 910 q 443 765 443 815 q 438 669 443 708 q 426 594 432 631 q 421 503 421 557 q 430 428 421 467 q 461 363 439 389 q 525 338 483 338 q 590 363 568 338 q 621 428 613 389 q 629 503 629 467 q 624 594 629 557 q 613 669 618 631 q 607 765 607 708 q 624 863 607 815 q 682 941 640 910 q 797 972 724 972 q 894 943 856 972 q 958 865 933 914 q 994 757 982 817 q 1011 634 1007 697 q 1015 514 1015 571 q 985 320 1015 413 q 892 156 954 228 q 739 42 831 83 q 525 0 647 0 m 917 789 q 763 809 819 789 q 706 878 706 829 q 728 944 706 919 q 800 971 750 969 q 878 974 846 974 q 928 990 911 975 q 944 1047 944 1004 q 952 1099 944 1072 q 981 1143 960 1125 q 1039 1161 1001 1161 q 1090 1142 1072 1161 q 1116 1094 1108 1124 q 1124 1035 1124 1065 q 1125 981 1125 1004 q 1101 888 1125 932 q 1030 817 1076 844 q 917 789 983 789 z "},"Ứ":{"ha":1090,"x_min":35,"x_max":1125,"o":"m 525 0 q 311 42 403 0 q 158 156 219 83 q 65 320 96 228 q 35 514 35 413 q 39 634 35 571 q 56 757 43 697 q 92 865 68 817 q 156 943 117 914 q 253 972 194 972 q 369 941 328 972 q 426 863 410 910 q 443 765 443 815 q 438 669 443 708 q 426 594 432 631 q 421 503 421 557 q 430 428 421 467 q 461 363 439 389 q 525 338 483 338 q 590 363 568 338 q 621 428 613 389 q 629 503 629 467 q 624 594 629 557 q 613 669 618 631 q 607 765 607 708 q 624 863 607 815 q 682 941 640 910 q 797 972 724 972 q 894 943 856 972 q 958 865 933 914 q 994 757 982 817 q 1011 634 1007 697 q 1015 514 1015 571 q 985 320 1015 413 q 892 156 954 228 q 739 42 831 83 q 525 0 647 0 m 917 789 q 763 809 819 789 q 706 878 706 829 q 728 944 706 919 q 800 971 750 969 q 878 974 846 974 q 928 990 911 975 q 944 1047 944 1004 q 952 1099 944 1072 q 981 1143 960 1125 q 1039 1161 1001 1161 q 1090 1142 1072 1161 q 1116 1094 1108 1124 q 1124 1035 1124 1065 q 1125 981 1125 1004 q 1101 888 1125 932 q 1030 817 1076 844 q 917 789 983 789 m 525 978 q 476 999 494 978 q 457 1043 457 1021 q 474 1090 457 1063 q 515 1144 490 1117 q 568 1189 540 1171 q 617 1207 596 1207 q 682 1178 660 1207 q 703 1122 704 1150 q 683 1078 703 1103 q 633 1031 663 1054 q 575 993 604 1008 q 525 978 546 978 z "},"Ự":{"ha":1090,"x_min":35,"x_max":1125,"o":"m 525 0 q 311 42 403 0 q 158 156 219 83 q 65 320 96 228 q 35 514 35 413 q 39 634 35 571 q 56 757 43 697 q 92 865 68 817 q 156 943 117 914 q 253 972 194 972 q 369 941 328 972 q 426 863 410 910 q 443 765 443 815 q 438 669 443 708 q 426 594 432 631 q 421 503 421 557 q 430 428 421 467 q 461 363 439 389 q 525 338 483 338 q 590 363 568 338 q 621 428 613 389 q 629 503 629 467 q 624 594 629 557 q 613 669 618 631 q 607 765 607 708 q 624 863 607 815 q 682 941 640 910 q 797 972 724 972 q 894 943 856 972 q 958 865 933 914 q 994 757 982 817 q 1011 634 1007 697 q 1015 514 1015 571 q 985 320 1015 413 q 892 156 954 228 q 739 42 831 83 q 525 0 647 0 m 917 789 q 763 809 819 789 q 706 878 706 829 q 728 944 706 919 q 800 971 750 969 q 878 974 846 974 q 928 990 911 975 q 944 1047 944 1004 q 952 1099 944 1072 q 981 1143 960 1125 q 1039 1161 1001 1161 q 1090 1142 1072 1161 q 1116 1094 1108 1124 q 1124 1035 1124 1065 q 1125 981 1125 1004 q 1101 888 1125 932 q 1030 817 1076 844 q 917 789 983 789 m 531 -251 q 462 -222 490 -251 q 433 -154 433 -193 q 462 -85 433 -114 q 531 -57 490 -57 q 599 -85 571 -57 q 628 -154 628 -114 q 599 -222 628 -193 q 531 -251 571 -251 z "},"Ừ":{"ha":1090,"x_min":35,"x_max":1125,"o":"m 525 0 q 311 42 403 0 q 158 156 219 83 q 65 320 96 228 q 35 514 35 413 q 39 634 35 571 q 56 757 43 697 q 92 865 68 817 q 156 943 117 914 q 253 972 194 972 q 369 941 328 972 q 426 863 410 910 q 443 765 443 815 q 438 669 443 708 q 426 594 432 631 q 421 503 421 557 q 430 428 421 467 q 461 363 439 389 q 525 338 483 338 q 590 363 568 338 q 621 428 613 389 q 629 503 629 467 q 624 594 629 557 q 613 669 618 631 q 607 765 607 708 q 624 863 607 815 q 682 941 640 910 q 797 972 724 972 q 894 943 856 972 q 958 865 933 914 q 994 757 982 817 q 1011 634 1007 697 q 1015 514 1015 571 q 985 320 1015 413 q 892 156 954 228 q 739 42 831 83 q 525 0 647 0 m 917 789 q 763 809 819 789 q 706 878 706 829 q 728 944 706 919 q 800 971 750 969 q 878 974 846 974 q 928 990 911 975 q 944 1047 944 1004 q 952 1099 944 1072 q 981 1143 960 1125 q 1039 1161 1001 1161 q 1090 1142 1072 1161 q 1116 1094 1108 1124 q 1124 1035 1124 1065 q 1125 981 1125 1004 q 1101 888 1125 932 q 1030 817 1076 844 q 917 789 983 789 m 567 978 q 517 993 546 978 q 458 1031 488 1008 q 409 1078 429 1054 q 389 1122 389 1103 q 410 1178 388 1150 q 475 1207 432 1207 q 524 1189 496 1207 q 576 1144 551 1171 q 618 1090 601 1117 q 635 1043 635 1063 q 617 999 635 1021 q 567 978 599 978 z "},"Ử":{"ha":1090,"x_min":35,"x_max":1125,"o":"m 525 0 q 311 42 403 0 q 158 156 219 83 q 65 320 96 228 q 35 514 35 413 q 39 634 35 571 q 56 757 43 697 q 92 865 68 817 q 156 943 117 914 q 253 972 194 972 q 369 941 328 972 q 426 863 410 910 q 443 765 443 815 q 438 669 443 708 q 426 594 432 631 q 421 503 421 557 q 430 428 421 467 q 461 363 439 389 q 525 338 483 338 q 590 363 568 338 q 621 428 613 389 q 629 503 629 467 q 624 594 629 557 q 613 669 618 631 q 607 765 607 708 q 624 863 607 815 q 682 941 640 910 q 797 972 724 972 q 894 943 856 972 q 958 865 933 914 q 994 757 982 817 q 1011 634 1007 697 q 1015 514 1015 571 q 985 320 1015 413 q 892 156 954 228 q 739 42 831 83 q 525 0 647 0 m 917 789 q 763 809 819 789 q 706 878 706 829 q 728 944 706 919 q 800 971 750 969 q 878 974 846 974 q 928 990 911 975 q 944 1047 944 1004 q 952 1099 944 1072 q 981 1143 960 1125 q 1039 1161 1001 1161 q 1090 1142 1072 1161 q 1116 1094 1108 1124 q 1124 1035 1124 1065 q 1125 981 1125 1004 q 1101 888 1125 932 q 1030 817 1076 844 q 917 789 983 789 m 514 956 q 468 969 489 956 q 447 1008 447 982 q 460 1040 447 1032 q 484 1052 472 1047 q 496 1069 496 1057 q 478 1087 496 1086 q 440 1088 461 1088 q 395 1099 415 1088 q 375 1146 375 1111 q 395 1190 375 1174 q 442 1213 415 1206 q 488 1219 469 1219 q 602 1183 560 1219 q 644 1088 644 1147 q 624 1014 644 1043 q 574 970 604 985 q 514 956 544 956 z "},"Ữ":{"ha":1090,"x_min":35,"x_max":1125,"o":"m 525 0 q 311 42 403 0 q 158 156 219 83 q 65 320 96 228 q 35 514 35 413 q 39 634 35 571 q 56 757 43 697 q 92 865 68 817 q 156 943 117 914 q 253 972 194 972 q 369 941 328 972 q 426 863 410 910 q 443 765 443 815 q 438 669 443 708 q 426 594 432 631 q 421 503 421 557 q 430 428 421 467 q 461 363 439 389 q 525 338 483 338 q 590 363 568 338 q 621 428 613 389 q 629 503 629 467 q 624 594 629 557 q 613 669 618 631 q 607 765 607 708 q 624 863 607 815 q 682 941 640 910 q 797 972 724 972 q 894 943 856 972 q 958 865 933 914 q 994 757 982 817 q 1011 634 1007 697 q 1015 514 1015 571 q 985 320 1015 413 q 892 156 954 228 q 739 42 831 83 q 525 0 647 0 m 917 789 q 763 809 819 789 q 706 878 706 829 q 728 944 706 919 q 800 971 750 969 q 878 974 846 974 q 928 990 911 975 q 944 1047 944 1004 q 952 1099 944 1072 q 981 1143 960 1125 q 1039 1161 1001 1161 q 1090 1142 1072 1161 q 1116 1094 1108 1124 q 1124 1035 1124 1065 q 1125 981 1125 1004 q 1101 888 1125 932 q 1030 817 1076 844 q 917 789 983 789 m 350 1007 q 288 1029 314 1007 q 263 1094 263 1051 q 284 1154 263 1125 q 341 1203 306 1183 q 418 1224 376 1224 q 498 1213 472 1224 q 540 1190 524 1201 q 581 1178 556 1178 q 628 1189 614 1178 q 656 1210 643 1200 q 699 1221 669 1221 q 760 1199 735 1221 q 786 1133 786 1176 q 765 1074 786 1104 q 708 1024 743 1044 q 631 1004 674 1004 q 551 1015 578 1004 q 509 1038 525 1026 q 468 1049 493 1049 q 420 1038 435 1049 q 393 1017 406 1028 q 350 1007 381 1007 z "},"Ű":{"ha":1050,"x_min":35,"x_max":1015,"o":"m 525 0 q 311 42 403 0 q 158 156 219 83 q 65 320 96 228 q 35 514 35 413 q 39 634 35 571 q 56 757 43 697 q 92 865 68 817 q 156 943 117 914 q 253 972 194 972 q 369 941 328 972 q 426 863 410 910 q 443 765 443 815 q 438 669 443 708 q 426 594 432 631 q 421 503 421 557 q 430 428 421 467 q 461 363 439 389 q 525 338 483 338 q 590 363 568 338 q 621 428 613 389 q 629 503 629 467 q 624 594 629 557 q 613 669 618 631 q 607 765 607 708 q 624 863 607 815 q 682 941 640 910 q 797 972 724 972 q 894 943 856 972 q 958 865 933 914 q 994 757 982 817 q 1011 634 1007 697 q 1015 514 1015 571 q 985 320 1015 413 q 892 156 954 228 q 739 42 831 83 q 525 0 647 0 m 376 1007 q 327 1028 346 1007 q 308 1072 308 1050 q 321 1119 308 1092 q 353 1173 333 1146 q 396 1218 372 1200 q 440 1236 419 1236 q 506 1207 483 1236 q 526 1150 528 1178 q 510 1106 526 1131 q 471 1059 494 1082 q 422 1022 447 1036 q 376 1007 397 1007 m 604 1006 q 555 1027 574 1006 q 536 1071 536 1049 q 551 1117 536 1090 q 588 1172 565 1144 q 635 1217 610 1199 q 682 1235 661 1235 q 747 1206 725 1235 q 768 1150 769 1178 q 750 1106 768 1131 q 706 1059 732 1082 q 652 1021 679 1036 q 604 1006 625 1006 z "},"Ȗ":{"ha":1050,"x_min":35,"x_max":1015,"o":"m 525 0 q 311 42 403 0 q 158 156 219 83 q 65 320 96 228 q 35 514 35 413 q 39 634 35 571 q 56 757 43 697 q 92 865 68 817 q 156 943 117 914 q 253 972 194 972 q 369 941 328 972 q 426 863 410 910 q 443 765 443 815 q 438 669 443 708 q 426 594 432 631 q 421 503 421 557 q 430 428 421 467 q 461 363 439 389 q 525 338 483 338 q 590 363 568 338 q 621 428 613 389 q 629 503 629 467 q 624 594 629 557 q 613 669 618 631 q 607 765 607 708 q 624 863 607 815 q 682 941 640 910 q 797 972 724 972 q 894 943 856 972 q 958 865 933 914 q 994 757 982 817 q 1011 634 1007 697 q 1015 514 1015 571 q 985 320 1015 413 q 892 156 954 228 q 739 42 831 83 q 525 0 647 0 m 524 1226 q 626 1203 583 1226 q 693 1144 669 1179 q 717 1074 717 1108 q 701 1024 717 1049 q 650 999 686 999 q 597 1017 611 999 q 568 1053 582 1035 q 525 1077 550 1078 q 482 1053 500 1076 q 451 1017 468 1035 q 401 999 435 999 q 350 1024 365 999 q 335 1074 335 1049 q 358 1142 335 1107 q 423 1202 381 1178 q 524 1226 465 1226 z "},"Ū":{"ha":1050,"x_min":35,"x_max":1015,"o":"m 525 0 q 311 42 403 0 q 158 156 219 83 q 65 320 96 228 q 35 514 35 413 q 39 634 35 571 q 56 757 43 697 q 92 865 68 817 q 156 943 117 914 q 253 972 194 972 q 369 941 328 972 q 426 863 410 910 q 443 765 443 815 q 438 669 443 708 q 426 594 432 631 q 421 503 421 557 q 430 428 421 467 q 461 363 439 389 q 525 338 483 338 q 590 363 568 338 q 621 428 613 389 q 629 503 629 467 q 624 594 629 557 q 613 669 618 631 q 607 765 607 708 q 624 863 607 815 q 682 941 640 910 q 797 972 724 972 q 894 943 856 972 q 958 865 933 914 q 994 757 982 817 q 1011 634 1007 697 q 1015 514 1015 571 q 985 320 1015 413 q 892 156 954 228 q 739 42 831 83 q 525 0 647 0 m 525 1035 q 438 1035 483 1035 q 356 1042 393 1035 q 294 1067 318 1049 q 271 1124 271 1086 q 294 1179 271 1160 q 356 1207 318 1199 q 438 1217 393 1215 q 525 1218 483 1218 q 613 1217 568 1218 q 695 1207 657 1215 q 757 1179 733 1199 q 781 1124 781 1160 q 757 1067 781 1086 q 695 1042 733 1049 q 613 1035 657 1035 q 525 1035 568 1035 z "},"Ų":{"ha":1050,"x_min":35,"x_max":1015,"o":"m 525 0 q 311 42 403 0 q 158 156 219 83 q 65 320 96 228 q 35 514 35 413 q 39 634 35 571 q 56 757 43 697 q 92 865 68 817 q 156 943 117 914 q 253 972 194 972 q 369 941 328 972 q 426 863 410 910 q 443 765 443 815 q 438 669 443 708 q 426 594 432 631 q 421 503 421 557 q 430 428 421 467 q 461 363 439 389 q 525 338 483 338 q 590 363 568 338 q 621 428 613 389 q 629 503 629 467 q 624 594 629 557 q 613 669 618 631 q 607 765 607 708 q 624 863 607 815 q 682 941 640 910 q 797 972 724 972 q 894 943 856 972 q 958 865 933 914 q 994 757 982 817 q 1011 634 1007 697 q 1015 514 1015 571 q 985 320 1015 413 q 892 156 954 228 q 739 42 831 83 q 525 0 647 0 m 549 -308 q 418 -267 468 -308 q 368 -136 368 -225 q 388 -55 368 -92 q 437 10 407 -18 q 498 54 467 39 q 554 69 529 69 l 676 69 q 706 46 721 69 q 626 -35 692 22 q 582 -74 604 -54 q 560 -119 560 -93 q 577 -151 560 -144 q 610 -158 594 -158 q 656 -174 636 -158 q 676 -229 676 -190 q 647 -285 676 -262 q 549 -308 618 -308 z "},"Ů":{"ha":1050,"x_min":35,"x_max":1015,"o":"m 525 0 q 311 42 403 0 q 158 156 219 83 q 65 320 96 228 q 35 514 35 413 q 39 634 35 571 q 56 757 43 697 q 92 865 68 817 q 156 943 117 914 q 253 972 194 972 q 369 941 328 972 q 426 863 410 910 q 443 765 443 815 q 438 669 443 708 q 426 594 432 631 q 421 503 421 557 q 430 428 421 467 q 461 363 439 389 q 525 338 483 338 q 590 363 568 338 q 621 428 613 389 q 629 503 629 467 q 624 594 629 557 q 613 669 618 631 q 607 765 607 708 q 624 863 607 815 q 682 941 640 910 q 797 972 724 972 q 894 943 856 972 q 958 865 933 914 q 994 757 982 817 q 1011 634 1007 697 q 1015 514 1015 571 q 985 320 1015 413 q 892 156 954 228 q 739 42 831 83 q 525 0 647 0 m 525 940 q 439 964 478 940 q 376 1026 400 988 q 351 1113 351 1065 q 376 1198 351 1158 q 439 1261 400 1238 q 525 1285 478 1285 q 610 1261 571 1285 q 673 1198 649 1238 q 697 1113 697 1158 q 673 1026 697 1065 q 610 964 649 988 q 525 940 571 940 m 525 1063 q 557 1077 543 1063 q 571 1110 571 1092 q 557 1142 571 1128 q 525 1157 543 1157 q 491 1142 506 1157 q 476 1110 476 1128 q 491 1077 476 1092 q 525 1063 506 1063 z "},"Ũ":{"ha":1050,"x_min":35,"x_max":1015,"o":"m 525 0 q 311 42 403 0 q 158 156 219 83 q 65 320 96 228 q 35 514 35 413 q 39 634 35 571 q 56 757 43 697 q 92 865 68 817 q 156 943 117 914 q 253 972 194 972 q 369 941 328 972 q 426 863 410 910 q 443 765 443 815 q 438 669 443 708 q 426 594 432 631 q 421 503 421 557 q 430 428 421 467 q 461 363 439 389 q 525 338 483 338 q 590 363 568 338 q 621 428 613 389 q 629 503 629 467 q 624 594 629 557 q 613 669 618 631 q 607 765 607 708 q 624 863 607 815 q 682 941 640 910 q 797 972 724 972 q 894 943 856 972 q 958 865 933 914 q 994 757 982 817 q 1011 634 1007 697 q 1015 514 1015 571 q 985 320 1015 413 q 892 156 954 228 q 739 42 831 83 q 525 0 647 0 m 351 1021 q 290 1043 315 1021 q 264 1108 264 1065 q 285 1168 264 1139 q 342 1217 307 1197 q 419 1238 378 1238 q 499 1226 474 1238 q 541 1203 525 1215 q 582 1192 557 1192 q 630 1203 615 1192 q 658 1224 644 1214 q 700 1235 671 1235 q 762 1213 736 1235 q 788 1147 788 1190 q 766 1088 788 1118 q 710 1038 744 1058 q 632 1018 675 1018 q 553 1029 579 1018 q 510 1051 526 1040 q 469 1063 494 1063 q 422 1052 436 1063 q 394 1031 407 1042 q 351 1021 382 1021 z "},"V":{"ha":1065,"x_min":35,"x_max":1031,"o":"m 535 0 q 374 47 450 0 q 236 173 299 94 q 128 347 174 251 q 59 542 83 443 q 35 726 35 640 q 55 849 35 794 q 117 938 75 904 q 222 971 158 971 q 331 930 288 971 q 404 822 375 889 q 454 673 433 754 q 494 510 475 592 q 535 361 513 429 q 583 510 563 429 q 624 673 603 592 q 672 822 644 754 q 741 930 700 889 q 843 971 782 971 q 985 901 940 971 q 1031 726 1031 832 q 1006 542 1031 640 q 938 347 982 443 q 831 173 893 251 q 694 47 769 94 q 535 0 619 0 z "},"W":{"ha":1256,"x_min":35,"x_max":1221,"o":"m 400 0 q 206 61 289 0 q 79 234 124 122 q 35 500 35 346 q 51 637 35 563 q 99 778 67 711 q 176 889 131 846 q 282 932 222 932 q 384 888 344 932 q 424 778 424 843 q 406 692 424 744 q 369 581 388 640 q 351 467 351 522 q 371 376 351 401 q 414 350 390 350 q 463 385 449 350 q 478 517 478 419 q 477 626 478 568 q 487 737 476 685 q 528 822 497 789 q 622 856 560 856 q 717 824 685 856 q 761 741 750 792 q 773 633 772 690 q 774 525 774 576 q 792 380 774 421 q 847 339 810 339 q 890 370 875 339 q 903 467 906 401 q 882 577 900 522 q 847 683 864 632 q 829 778 829 735 q 872 888 829 846 q 971 929 915 929 q 1083 886 1036 929 q 1161 776 1131 843 q 1206 636 1192 710 q 1221 500 1221 563 q 1176 234 1221 346 q 1050 62 1132 122 q 856 1 968 1 q 738 28 796 1 q 628 113 679 56 q 517 28 576 56 q 400 0 458 0 z "},"Ẃ":{"ha":1256,"x_min":35,"x_max":1221,"o":"m 400 0 q 206 61 289 0 q 79 234 124 122 q 35 500 35 346 q 51 637 35 563 q 99 778 67 711 q 176 889 131 846 q 282 932 222 932 q 384 888 344 932 q 424 778 424 843 q 406 692 424 744 q 369 581 388 640 q 351 467 351 522 q 371 376 351 401 q 414 350 390 350 q 463 385 449 350 q 478 517 478 419 q 477 626 478 568 q 487 737 476 685 q 528 822 497 789 q 622 856 560 856 q 717 824 685 856 q 761 741 750 792 q 773 633 772 690 q 774 525 774 576 q 792 380 774 421 q 847 339 810 339 q 890 370 875 339 q 903 467 906 401 q 882 577 900 522 q 847 683 864 632 q 829 778 829 735 q 872 888 829 846 q 971 929 915 929 q 1083 886 1036 929 q 1161 776 1131 843 q 1206 636 1192 710 q 1221 500 1221 563 q 1176 234 1221 346 q 1050 62 1132 122 q 856 1 968 1 q 738 28 796 1 q 628 113 679 56 q 517 28 576 56 q 400 0 458 0 m 572 936 q 523 958 542 936 q 504 1001 504 979 q 521 1048 504 1021 q 563 1102 538 1075 q 615 1147 588 1129 q 664 1165 643 1165 q 729 1137 707 1165 q 750 1081 751 1108 q 730 1037 750 1061 q 681 990 710 1013 q 622 951 651 967 q 572 936 593 936 z "},"Ŵ":{"ha":1256,"x_min":35,"x_max":1221,"o":"m 400 0 q 206 61 289 0 q 79 234 124 122 q 35 500 35 346 q 51 637 35 563 q 99 778 67 711 q 176 889 131 846 q 282 932 222 932 q 384 888 344 932 q 424 778 424 843 q 406 692 424 744 q 369 581 388 640 q 351 467 351 522 q 371 376 351 401 q 414 350 390 350 q 463 385 449 350 q 478 517 478 419 q 477 626 478 568 q 487 737 476 685 q 528 822 497 789 q 622 856 560 856 q 717 824 685 856 q 761 741 750 792 q 773 633 772 690 q 774 525 774 576 q 792 380 774 421 q 847 339 810 339 q 890 370 875 339 q 903 467 906 401 q 882 577 900 522 q 847 683 864 632 q 829 778 829 735 q 872 888 829 846 q 971 929 915 929 q 1083 886 1036 929 q 1161 776 1131 843 q 1206 636 1192 710 q 1221 500 1221 563 q 1176 234 1221 346 q 1050 62 1132 122 q 856 1 968 1 q 738 28 796 1 q 628 113 679 56 q 517 28 576 56 q 400 0 458 0 m 510 954 q 451 975 472 954 q 431 1031 431 996 q 460 1101 431 1064 q 534 1166 489 1139 q 626 1193 579 1193 q 719 1167 674 1193 q 796 1103 765 1140 q 826 1031 826 1065 q 806 975 826 996 q 747 954 785 954 q 682 976 713 954 q 629 1026 651 997 q 576 976 607 997 q 510 954 544 954 z "},"Ẅ":{"ha":1256,"x_min":35,"x_max":1221,"o":"m 400 0 q 206 61 289 0 q 79 234 124 122 q 35 500 35 346 q 51 637 35 563 q 99 778 67 711 q 176 889 131 846 q 282 932 222 932 q 384 888 344 932 q 424 778 424 843 q 406 692 424 744 q 369 581 388 640 q 351 467 351 522 q 371 376 351 401 q 414 350 390 350 q 463 385 449 350 q 478 517 478 419 q 477 626 478 568 q 487 737 476 685 q 528 822 497 789 q 622 856 560 856 q 717 824 685 856 q 761 741 750 792 q 773 633 772 690 q 774 525 774 576 q 792 380 774 421 q 847 339 810 339 q 890 370 875 339 q 903 467 906 401 q 882 577 900 522 q 847 683 864 632 q 829 778 829 735 q 872 888 829 846 q 971 929 915 929 q 1083 886 1036 929 q 1161 776 1131 843 q 1206 636 1192 710 q 1221 500 1221 563 q 1176 234 1221 346 q 1050 62 1132 122 q 856 1 968 1 q 738 28 796 1 q 628 113 679 56 q 517 28 576 56 q 400 0 458 0 m 765 953 q 690 985 721 953 q 658 1060 658 1017 q 690 1135 658 1104 q 765 1167 721 1167 q 841 1135 810 1167 q 872 1060 872 1104 q 841 985 872 1017 q 765 953 810 953 m 493 951 q 417 983 449 951 q 385 1058 385 1014 q 417 1134 385 1103 q 493 1165 449 1165 q 568 1134 538 1165 q 599 1058 599 1103 q 568 983 599 1014 q 493 951 538 951 z "},"Ẁ":{"ha":1256,"x_min":35,"x_max":1221,"o":"m 400 0 q 206 61 289 0 q 79 234 124 122 q 35 500 35 346 q 51 637 35 563 q 99 778 67 711 q 176 889 131 846 q 282 932 222 932 q 384 888 344 932 q 424 778 424 843 q 406 692 424 744 q 369 581 388 640 q 351 467 351 522 q 371 376 351 401 q 414 350 390 350 q 463 385 449 350 q 478 517 478 419 q 477 626 478 568 q 487 737 476 685 q 528 822 497 789 q 622 856 560 856 q 717 824 685 856 q 761 741 750 792 q 773 633 772 690 q 774 525 774 576 q 792 380 774 421 q 847 339 810 339 q 890 370 875 339 q 903 467 906 401 q 882 577 900 522 q 847 683 864 632 q 829 778 829 735 q 872 888 829 846 q 971 929 915 929 q 1083 886 1036 929 q 1161 776 1131 843 q 1206 636 1192 710 q 1221 500 1221 563 q 1176 234 1221 346 q 1050 62 1132 122 q 856 1 968 1 q 738 28 796 1 q 628 113 679 56 q 517 28 576 56 q 400 0 458 0 m 683 936 q 633 951 663 936 q 575 990 604 967 q 526 1037 546 1013 q 506 1081 506 1061 q 526 1137 504 1108 q 592 1165 549 1165 q 640 1147 613 1165 q 693 1102 668 1129 q 735 1048 718 1075 q 751 1001 751 1021 q 733 958 751 979 q 683 936 715 936 z "},"X":{"ha":1007,"x_min":24,"x_max":986,"o":"m 186 0 q 72 49 108 0 q 35 164 35 99 q 84 306 35 224 q 208 478 133 389 q 99 611 139 556 q 41 710 58 667 q 24 796 24 754 q 51 893 24 854 q 120 952 78 932 q 208 972 163 972 q 272 965 243 972 q 331 939 300 958 q 402 883 363 919 q 500 788 442 846 q 629 905 579 865 q 717 958 679 944 q 800 972 756 972 q 890 951 847 972 q 959 892 932 931 q 986 796 986 853 q 967 710 986 754 q 903 611 947 667 q 789 478 860 556 q 912 308 863 389 q 961 167 961 226 q 947 89 961 126 q 899 27 932 51 q 810 3 865 3 q 719 27 771 3 q 611 93 668 51 q 497 183 554 135 q 384 92 440 133 q 276 25 328 50 q 186 0 225 0 z "},"Y":{"ha":996,"x_min":35,"x_max":961,"o":"m 497 0 q 417 19 456 0 q 355 74 379 38 q 331 163 331 110 q 332 225 331 197 q 117 356 200 260 q 35 615 35 453 q 89 873 35 776 q 254 969 143 969 q 377 924 331 969 q 424 794 424 878 q 417 703 424 749 q 411 629 411 657 q 431 542 411 574 q 497 510 450 510 q 565 542 546 510 q 583 629 583 574 q 577 705 583 657 q 571 796 571 753 q 618 924 571 878 q 742 969 665 969 q 865 926 817 969 q 938 807 914 883 q 961 632 961 731 q 874 353 961 453 q 649 222 788 254 q 650 163 650 196 q 628 72 650 108 q 571 18 606 36 q 497 0 536 0 z "},"Ý":{"ha":996,"x_min":35,"x_max":961,"o":"m 497 0 q 417 19 456 0 q 355 74 379 38 q 331 163 331 110 q 332 225 331 197 q 117 356 200 260 q 35 615 35 453 q 89 873 35 776 q 254 969 143 969 q 377 924 331 969 q 424 794 424 878 q 417 703 424 749 q 411 629 411 657 q 431 542 411 574 q 497 510 450 510 q 565 542 546 510 q 583 629 583 574 q 577 705 583 657 q 571 796 571 753 q 618 924 571 878 q 742 969 665 969 q 865 926 817 969 q 938 807 914 883 q 961 632 961 731 q 874 353 961 453 q 649 222 788 254 q 650 163 650 196 q 628 72 650 108 q 571 18 606 36 q 497 0 536 0 m 457 978 q 408 999 426 978 q 389 1043 389 1021 q 406 1090 389 1063 q 447 1144 422 1117 q 500 1189 472 1171 q 549 1207 528 1207 q 614 1178 592 1207 q 635 1122 636 1150 q 615 1078 635 1103 q 565 1031 594 1054 q 507 993 536 1008 q 457 978 478 978 z "},"Ŷ":{"ha":996,"x_min":35,"x_max":961,"o":"m 497 0 q 417 19 456 0 q 355 74 379 38 q 331 163 331 110 q 332 225 331 197 q 117 356 200 260 q 35 615 35 453 q 89 873 35 776 q 254 969 143 969 q 377 924 331 969 q 424 794 424 878 q 417 703 424 749 q 411 629 411 657 q 431 542 411 574 q 497 510 450 510 q 565 542 546 510 q 583 629 583 574 q 577 705 583 657 q 571 796 571 753 q 618 924 571 878 q 742 969 665 969 q 865 926 817 969 q 938 807 914 883 q 961 632 961 731 q 874 353 961 453 q 649 222 788 254 q 650 163 650 196 q 628 72 650 108 q 571 18 606 36 q 497 0 536 0 m 379 996 q 321 1017 342 996 q 300 1072 300 1038 q 329 1143 300 1106 q 403 1208 358 1181 q 496 1235 449 1235 q 589 1208 543 1235 q 665 1144 635 1182 q 696 1072 696 1107 q 675 1017 696 1038 q 617 996 654 996 q 551 1017 582 996 q 499 1068 521 1039 q 445 1017 476 1039 q 379 996 414 996 z "},"Ÿ":{"ha":996,"x_min":35,"x_max":961,"o":"m 497 0 q 417 19 456 0 q 355 74 379 38 q 331 163 331 110 q 332 225 331 197 q 117 356 200 260 q 35 615 35 453 q 89 873 35 776 q 254 969 143 969 q 377 924 331 969 q 424 794 424 878 q 417 703 424 749 q 411 629 411 657 q 431 542 411 574 q 497 510 450 510 q 565 542 546 510 q 583 629 583 574 q 577 705 583 657 q 571 796 571 753 q 618 924 571 878 q 742 969 665 969 q 865 926 817 969 q 938 807 914 883 q 961 632 961 731 q 874 353 961 453 q 649 222 788 254 q 650 163 650 196 q 628 72 650 108 q 571 18 606 36 q 497 0 536 0 m 635 1008 q 559 1040 590 1008 q 528 1115 528 1072 q 559 1191 528 1160 q 635 1222 590 1222 q 710 1191 679 1222 q 742 1115 742 1160 q 710 1040 742 1072 q 635 1008 679 1008 m 363 1007 q 286 1038 318 1007 q 254 1114 254 1069 q 286 1190 254 1158 q 363 1221 318 1221 q 438 1190 407 1221 q 468 1114 468 1158 q 438 1038 468 1069 q 363 1007 407 1007 z "},"Ỵ":{"ha":996,"x_min":35,"x_max":961,"o":"m 497 0 q 417 19 456 0 q 355 74 379 38 q 331 163 331 110 q 332 225 331 197 q 117 356 200 260 q 35 615 35 453 q 89 873 35 776 q 254 969 143 969 q 377 924 331 969 q 424 794 424 878 q 417 703 424 749 q 411 629 411 657 q 431 542 411 574 q 497 510 450 510 q 565 542 546 510 q 583 629 583 574 q 577 705 583 657 q 571 796 571 753 q 618 924 571 878 q 742 969 665 969 q 865 926 817 969 q 938 807 914 883 q 961 632 961 731 q 874 353 961 453 q 649 222 788 254 q 650 163 650 196 q 628 72 650 108 q 571 18 606 36 q 497 0 536 0 m 499 -240 q 430 -211 458 -240 q 401 -143 401 -182 q 430 -74 401 -103 q 499 -46 458 -46 q 567 -74 539 -46 q 596 -143 596 -103 q 567 -211 596 -182 q 499 -240 539 -240 z "},"Ỳ":{"ha":996,"x_min":35,"x_max":961,"o":"m 497 0 q 417 19 456 0 q 355 74 379 38 q 331 163 331 110 q 332 225 331 197 q 117 356 200 260 q 35 615 35 453 q 89 873 35 776 q 254 969 143 969 q 377 924 331 969 q 424 794 424 878 q 417 703 424 749 q 411 629 411 657 q 431 542 411 574 q 497 510 450 510 q 565 542 546 510 q 583 629 583 574 q 577 705 583 657 q 571 796 571 753 q 618 924 571 878 q 742 969 665 969 q 865 926 817 969 q 938 807 914 883 q 961 632 961 731 q 874 353 961 453 q 649 222 788 254 q 650 163 650 196 q 628 72 650 108 q 571 18 606 36 q 497 0 536 0 m 539 978 q 489 993 518 978 q 431 1031 460 1008 q 381 1078 401 1054 q 361 1122 361 1103 q 382 1178 360 1150 q 447 1207 404 1207 q 496 1189 468 1207 q 549 1144 524 1171 q 590 1090 574 1117 q 607 1043 607 1063 q 589 999 607 1021 q 539 978 571 978 z "},"Ỷ":{"ha":996,"x_min":35,"x_max":961,"o":"m 497 0 q 417 19 456 0 q 355 74 379 38 q 331 163 331 110 q 332 225 331 197 q 117 356 200 260 q 35 615 35 453 q 89 873 35 776 q 254 969 143 969 q 377 924 331 969 q 424 794 424 878 q 417 703 424 749 q 411 629 411 657 q 431 542 411 574 q 497 510 450 510 q 565 542 546 510 q 583 629 583 574 q 577 705 583 657 q 571 796 571 753 q 618 924 571 878 q 742 969 665 969 q 865 926 817 969 q 938 807 914 883 q 961 632 961 731 q 874 353 961 453 q 649 222 788 254 q 650 163 650 196 q 628 72 650 108 q 571 18 606 36 q 497 0 536 0 m 503 956 q 457 969 478 956 q 436 1008 436 982 q 449 1040 436 1032 q 473 1052 461 1047 q 485 1069 485 1057 q 467 1087 485 1086 q 429 1088 450 1088 q 384 1099 404 1088 q 364 1146 364 1111 q 384 1190 364 1174 q 431 1213 404 1206 q 476 1219 458 1219 q 591 1183 549 1219 q 633 1088 633 1147 q 613 1014 633 1043 q 563 970 593 985 q 503 956 533 956 z "},"Ȳ":{"ha":996,"x_min":35,"x_max":961,"o":"m 497 0 q 417 19 456 0 q 355 74 379 38 q 331 163 331 110 q 332 225 331 197 q 117 356 200 260 q 35 615 35 453 q 89 873 35 776 q 254 969 143 969 q 377 924 331 969 q 424 794 424 878 q 417 703 424 749 q 411 629 411 657 q 431 542 411 574 q 497 510 450 510 q 565 542 546 510 q 583 629 583 574 q 577 705 583 657 q 571 796 571 753 q 618 924 571 878 q 742 969 665 969 q 865 926 817 969 q 938 807 914 883 q 961 632 961 731 q 874 353 961 453 q 649 222 788 254 q 650 163 650 196 q 628 72 650 108 q 571 18 606 36 q 497 0 536 0 m 497 1021 q 410 1021 456 1021 q 328 1028 365 1021 q 267 1053 290 1035 q 243 1110 243 1072 q 267 1165 243 1146 q 328 1193 290 1185 q 410 1203 365 1201 q 497 1204 456 1204 q 585 1203 540 1204 q 667 1193 629 1201 q 729 1165 706 1185 q 753 1110 753 1146 q 729 1053 753 1072 q 667 1028 706 1035 q 585 1021 629 1021 q 497 1021 540 1021 z "},"Ỹ":{"ha":996,"x_min":35,"x_max":961,"o":"m 497 0 q 417 19 456 0 q 355 74 379 38 q 331 163 331 110 q 332 225 331 197 q 117 356 200 260 q 35 615 35 453 q 89 873 35 776 q 254 969 143 969 q 377 924 331 969 q 424 794 424 878 q 417 703 424 749 q 411 629 411 657 q 431 542 411 574 q 497 510 450 510 q 565 542 546 510 q 583 629 583 574 q 577 705 583 657 q 571 796 571 753 q 618 924 571 878 q 742 969 665 969 q 865 926 817 969 q 938 807 914 883 q 961 632 961 731 q 874 353 961 453 q 649 222 788 254 q 650 163 650 196 q 628 72 650 108 q 571 18 606 36 q 497 0 536 0 m 324 1021 q 262 1043 288 1021 q 236 1108 236 1065 q 258 1168 236 1139 q 315 1217 279 1197 q 392 1238 350 1238 q 472 1226 446 1238 q 513 1203 497 1215 q 554 1192 529 1192 q 602 1203 588 1192 q 630 1224 617 1214 q 672 1235 643 1235 q 734 1213 708 1235 q 760 1147 760 1190 q 738 1088 760 1118 q 682 1038 717 1058 q 604 1018 647 1018 q 525 1029 551 1018 q 483 1051 499 1040 q 442 1063 467 1063 q 394 1052 408 1063 q 367 1031 379 1042 q 324 1021 354 1021 z "},"Z":{"ha":903,"x_min":35,"x_max":868,"o":"m 457 0 q 317 5 388 0 q 190 30 247 10 q 97 93 132 50 q 63 211 63 136 q 97 310 63 260 q 185 410 132 361 q 300 504 239 460 q 413 585 361 549 q 292 582 357 579 q 168 603 226 585 q 72 658 110 621 q 35 758 35 696 q 83 881 35 835 q 215 947 132 926 q 397 968 297 968 q 572 959 488 968 q 722 924 656 950 q 828 848 789 899 q 868 714 868 797 q 840 596 868 651 q 764 492 811 540 q 659 402 717 443 q 543 328 601 361 q 664 321 606 326 q 767 299 722 315 q 839 251 813 283 q 865 165 865 219 q 826 69 865 103 q 724 20 786 35 q 590 3 661 6 q 457 0 519 0 z "},"Ź":{"ha":903,"x_min":35,"x_max":868,"o":"m 457 0 q 317 5 388 0 q 190 30 247 10 q 97 93 132 50 q 63 211 63 136 q 97 310 63 260 q 185 410 132 361 q 300 504 239 460 q 413 585 361 549 q 292 582 357 579 q 168 603 226 585 q 72 658 110 621 q 35 758 35 696 q 83 881 35 835 q 215 947 132 926 q 397 968 297 968 q 572 959 488 968 q 722 924 656 950 q 828 848 789 899 q 868 714 868 797 q 840 596 868 651 q 764 492 811 540 q 659 402 717 443 q 543 328 601 361 q 664 321 606 326 q 767 299 722 315 q 839 251 813 283 q 865 165 865 219 q 826 69 865 103 q 724 20 786 35 q 590 3 661 6 q 457 0 519 0 m 396 1006 q 347 1027 365 1006 q 328 1071 328 1049 q 344 1117 328 1090 q 386 1172 361 1144 q 439 1217 411 1199 q 488 1235 467 1235 q 553 1206 531 1235 q 574 1150 575 1178 q 553 1106 574 1131 q 504 1059 533 1082 q 446 1021 475 1036 q 396 1006 417 1006 z "},"Ž":{"ha":903,"x_min":35,"x_max":868,"o":"m 457 0 q 317 5 388 0 q 190 30 247 10 q 97 93 132 50 q 63 211 63 136 q 97 310 63 260 q 185 410 132 361 q 300 504 239 460 q 413 585 361 549 q 292 582 357 579 q 168 603 226 585 q 72 658 110 621 q 35 758 35 696 q 83 881 35 835 q 215 947 132 926 q 397 968 297 968 q 572 959 488 968 q 722 924 656 950 q 828 848 789 899 q 868 714 868 797 q 840 596 868 651 q 764 492 811 540 q 659 402 717 443 q 543 328 601 361 q 664 321 606 326 q 767 299 722 315 q 839 251 813 283 q 865 165 865 219 q 826 69 865 103 q 724 20 786 35 q 590 3 661 6 q 457 0 519 0 m 333 1239 q 399 1217 368 1239 q 453 1167 431 1196 q 506 1217 475 1196 q 571 1239 536 1239 q 629 1219 608 1239 q 650 1163 650 1199 q 619 1090 650 1128 q 543 1026 589 1053 q 450 1000 497 1000 q 358 1027 403 1000 q 283 1092 313 1054 q 254 1163 254 1131 q 275 1219 254 1199 q 333 1239 296 1239 z "},"Ż":{"ha":903,"x_min":35,"x_max":868,"o":"m 457 0 q 317 5 388 0 q 190 30 247 10 q 97 93 132 50 q 63 211 63 136 q 97 310 63 260 q 185 410 132 361 q 300 504 239 460 q 413 585 361 549 q 292 582 357 579 q 168 603 226 585 q 72 658 110 621 q 35 758 35 696 q 83 881 35 835 q 215 947 132 926 q 397 968 297 968 q 572 959 488 968 q 722 924 656 950 q 828 848 789 899 q 868 714 868 797 q 840 596 868 651 q 764 492 811 540 q 659 402 717 443 q 543 328 601 361 q 664 321 606 326 q 767 299 722 315 q 839 251 813 283 q 865 165 865 219 q 826 69 865 103 q 724 20 786 35 q 590 3 661 6 q 457 0 519 0 m 451 1018 q 383 1047 411 1018 q 354 1115 354 1076 q 383 1184 354 1156 q 451 1213 411 1213 q 520 1184 492 1213 q 549 1115 549 1156 q 520 1047 549 1076 q 451 1018 492 1018 z "},"Ａ":{"ha":971,"x_min":25,"x_max":947,"o":"m 251 -3 q 101 90 156 -3 q 36 335 46 183 q 77 666 25 522 q 235 890 129 810 q 486 971 340 971 q 738 890 633 971 q 895 667 843 810 q 935 335 947 524 q 870 89 925 179 q 719 -1 815 -1 q 636 19 665 -1 q 595 70 607 39 q 583 134 583 101 q 588 190 583 167 q 483 188 543 189 q 383 190 424 188 q 388 134 388 167 q 376 70 388 101 q 335 18 364 39 q 251 -3 306 -3 m 374 438 q 593 438 483 442 q 592 531 600 486 q 557 603 583 575 q 482 631 531 631 q 408 603 433 631 q 374 531 382 575 q 374 438 367 488 z "},"Ｂ":{"ha":906,"x_min":35,"x_max":876,"o":"m 494 1 q 243 50 346 3 q 88 202 140 97 q 35 481 35 307 q 84 742 35 632 q 228 912 133 851 q 460 972 322 972 q 671 938 581 972 q 813 838 761 903 q 871 685 865 774 q 842 538 876 600 q 742 426 808 475 q 830 372 790 418 q 869 261 869 326 q 851 171 869 217 q 791 86 833 125 q 676 24 749 47 q 494 1 603 1 m 399 519 q 468 508 428 507 q 540 529 508 508 q 571 593 571 550 q 552 644 571 625 q 506 672 533 664 q 449 678 478 679 q 399 665 419 676 q 363 622 372 653 q 363 562 354 592 q 399 519 372 532 m 399 194 q 468 184 428 183 q 540 203 508 185 q 571 258 571 221 q 552 303 571 286 q 506 328 533 321 q 449 333 478 335 q 399 322 419 331 q 363 285 372 311 q 363 232 354 258 q 399 194 372 206 z "},"Ｃ":{"ha":933,"x_min":35,"x_max":899,"o":"m 511 3 q 271 56 379 3 q 99 218 163 110 q 35 489 35 326 q 68 672 35 585 q 162 826 101 758 q 304 933 222 894 q 485 972 386 972 q 701 927 608 972 q 847 804 794 882 q 899 631 899 726 q 884 559 899 593 q 840 503 869 525 q 763 481 810 481 q 692 494 718 481 q 649 528 667 508 q 614 569 632 549 q 569 604 596 590 q 497 618 543 618 q 418 596 454 618 q 360 535 382 574 q 339 449 339 497 q 377 322 339 376 q 486 268 415 268 q 574 285 542 268 q 630 323 607 301 q 680 361 653 344 q 750 378 707 378 q 842 338 811 378 q 868 239 874 297 q 816 125 863 179 q 691 37 769 71 q 511 3 613 3 z "},"Ｄ":{"ha":938,"x_min":35,"x_max":903,"o":"m 425 0 q 211 24 290 0 q 94 103 132 49 q 46 249 57 157 q 35 475 35 340 q 45 705 35 610 q 92 859 56 800 q 208 945 129 918 q 421 972 286 972 q 543 956 478 972 q 672 906 608 940 q 788 813 736 871 q 872 671 840 754 q 903 474 903 588 q 870 284 903 364 q 785 149 838 204 q 669 62 733 94 q 542 15 606 29 q 425 0 478 0 m 339 244 q 538 278 467 225 q 610 438 610 331 q 538 581 610 535 q 339 608 467 628 l 339 244 z "},"Ｅ":{"ha":840,"x_min":35,"x_max":806,"o":"m 510 0 q 388 8 453 0 q 261 43 324 17 q 147 121 199 69 q 65 258 96 172 q 35 469 35 343 q 82 722 35 608 q 225 904 129 836 q 465 972 321 972 q 635 954 569 972 q 739 907 701 936 q 791 843 776 878 q 806 774 806 808 q 787 704 806 738 q 728 651 768 671 q 647 635 689 633 q 572 638 606 638 q 459 612 500 638 q 401 533 418 586 q 451 535 424 535 q 507 536 478 536 q 616 534 564 536 q 689 528 668 532 q 763 490 738 518 q 788 425 788 461 q 764 363 788 390 q 688 324 740 335 q 613 317 668 319 q 499 315 558 315 q 453 316 475 315 q 413 317 431 317 q 472 249 432 274 q 574 225 511 225 q 642 230 597 225 q 728 222 686 235 q 794 135 794 201 q 770 67 794 99 q 684 18 746 36 q 510 0 622 0 z "},"Ｆ":{"ha":858,"x_min":35,"x_max":824,"o":"m 251 1 q 138 48 188 1 q 62 197 89 94 q 35 465 35 300 q 71 671 35 578 q 171 831 107 764 q 319 935 235 899 q 500 972 404 972 q 742 917 661 972 q 824 767 824 863 q 790 660 824 694 q 694 615 756 626 q 549 604 632 604 q 458 591 501 604 q 388 552 415 578 q 357 489 361 526 q 356 476 357 482 q 406 478 381 478 q 456 478 431 478 q 576 477 517 478 q 683 467 635 476 q 761 433 732 458 q 790 360 790 408 q 761 281 790 307 q 683 247 732 256 q 576 240 635 239 q 456 240 517 240 q 412 240 433 240 q 368 239 390 239 q 372 199 371 219 q 374 156 374 178 q 363 81 374 117 q 326 24 353 46 q 251 1 300 1 z "},"Ｇ":{"ha":938,"x_min":35,"x_max":903,"o":"m 526 1 q 260 58 371 1 q 92 217 150 114 q 35 461 35 321 q 78 692 35 596 q 194 851 122 789 q 354 942 267 913 q 531 972 442 972 q 731 938 647 972 q 858 850 814 904 q 903 738 903 796 q 880 640 903 675 q 822 592 857 606 q 749 578 786 578 q 674 588 701 578 q 619 608 647 599 q 544 618 592 618 q 401 564 454 618 q 347 408 347 510 q 372 310 347 349 q 438 251 397 271 q 526 232 479 232 q 605 244 574 232 q 651 269 636 256 q 667 290 667 283 q 517 312 574 290 q 460 396 460 333 q 497 484 460 449 q 636 519 535 519 q 791 497 735 519 q 870 425 847 474 q 893 299 893 376 q 843 147 893 215 q 710 40 793 79 q 526 1 626 0 z "},"Ｈ":{"ha":1028,"x_min":35,"x_max":993,"o":"m 226 1 q 104 56 146 1 q 49 218 63 111 q 35 483 35 325 q 49 750 35 642 q 104 913 63 858 q 226 968 146 968 q 335 924 297 968 q 390 797 374 881 q 408 597 406 714 q 457 597 432 597 q 507 597 482 597 q 565 597 536 597 q 619 596 593 597 q 638 797 622 714 q 691 925 653 881 q 800 969 729 969 q 922 914 881 969 q 978 750 964 858 q 993 483 993 642 q 978 218 993 325 q 922 57 964 111 q 800 3 881 3 q 664 89 700 3 q 621 333 628 175 q 553 332 589 332 q 479 332 517 332 q 443 332 461 332 q 407 332 425 332 q 363 88 400 175 q 226 1 326 1 z "},"Ｉ":{"ha":696,"x_min":35,"x_max":661,"o":"m 349 4 q 250 6 300 4 q 158 19 200 8 q 91 57 117 31 q 65 131 65 83 q 107 217 65 192 q 208 251 149 243 q 203 358 204 300 q 201 482 201 415 q 203 598 201 543 q 207 699 204 653 q 85 735 136 707 q 35 833 35 763 q 63 915 35 886 q 137 955 90 943 q 238 969 183 967 q 347 972 293 972 q 457 969 401 972 q 558 955 513 967 q 633 915 604 943 q 661 833 661 886 q 638 758 661 786 q 574 717 614 731 q 486 699 533 704 q 492 599 490 653 q 493 482 493 544 q 491 358 493 415 q 485 251 489 300 q 591 219 547 244 q 635 131 635 193 q 609 57 635 83 q 541 19 583 31 q 449 6 499 8 q 349 4 399 4 z "},"Ｊ":{"ha":944,"x_min":35,"x_max":910,"o":"m 357 0 q 188 39 260 0 q 75 141 115 78 q 35 276 35 204 q 75 386 35 350 q 163 422 115 422 q 235 403 211 422 q 270 360 258 385 q 297 317 282 336 q 342 299 311 299 q 406 365 397 299 q 414 558 415 432 q 414 643 414 606 q 282 661 342 646 q 188 710 222 676 q 153 807 153 744 q 184 899 153 865 q 269 949 215 933 q 392 968 324 964 q 532 972 460 972 q 673 968 606 972 q 794 949 740 964 q 878 899 847 933 q 910 807 910 865 q 860 697 910 732 q 732 650 810 663 q 735 569 735 614 q 736 472 736 525 q 644 119 736 239 q 357 0 551 0 z "},"Ｋ":{"ha":886,"x_min":35,"x_max":851,"o":"m 190 0 q 100 34 132 0 q 54 124 68 68 q 38 249 40 181 q 35 385 35 317 q 35 472 35 418 q 37 581 36 525 q 39 681 38 638 q 42 742 40 725 q 83 907 44 842 q 199 972 122 972 q 319 897 286 972 q 351 679 351 821 q 351 638 351 664 q 416 743 378 686 q 500 851 454 800 q 597 935 546 903 q 701 968 649 968 q 809 919 767 968 q 851 797 851 869 q 813 670 851 732 q 708 558 775 608 q 553 476 642 508 q 657 420 604 453 q 753 348 710 388 q 824 263 797 308 q 850 164 850 217 q 827 69 850 106 q 768 17 804 33 q 692 0 732 0 q 560 46 621 0 q 447 165 499 92 q 350 319 394 239 q 345 201 350 258 q 325 99 340 144 q 278 26 310 53 q 190 0 246 0 z "},"Ｌ":{"ha":854,"x_min":35,"x_max":819,"o":"m 421 0 q 187 56 286 0 q 56 231 88 111 q 38 359 42 283 q 35 519 35 435 q 42 683 35 603 q 72 829 50 764 q 140 933 94 894 q 260 972 185 972 q 358 944 318 972 q 418 871 397 917 q 439 769 439 825 q 419 546 439 665 q 381 321 400 426 q 483 342 425 335 q 599 348 540 350 q 708 328 658 346 q 789 276 758 311 q 819 183 819 240 q 785 77 819 115 q 692 23 750 39 q 563 3 633 7 q 421 0 492 0 z "},"Ｍ":{"ha":1151,"x_min":35,"x_max":1117,"o":"m 572 0 q 492 26 524 0 q 450 90 461 51 q 436 177 439 129 q 434 274 433 225 q 433 365 435 324 q 425 432 432 407 q 399 457 418 457 q 360 434 371 457 q 349 373 349 411 q 353 290 349 335 q 364 202 358 246 q 369 125 369 158 q 338 29 369 56 q 253 3 307 3 q 158 48 199 3 q 90 165 117 93 q 49 319 63 236 q 35 478 35 403 q 55 656 35 569 q 116 810 75 742 q 218 918 157 878 q 363 958 279 958 q 471 930 428 958 q 540 858 514 901 q 575 771 565 815 q 610 858 585 815 q 678 930 635 901 q 785 958 721 958 q 965 893 890 958 q 1078 713 1039 828 q 1117 447 1117 599 q 1101 298 1117 376 q 1058 152 1086 219 q 989 42 1029 85 q 897 0 949 0 q 810 28 842 0 q 778 125 778 56 q 783 202 778 158 q 794 290 789 246 q 800 373 800 335 q 790 434 800 411 q 751 457 779 457 q 724 432 732 457 q 715 366 717 407 q 713 276 713 325 q 710 178 713 226 q 697 90 708 129 q 656 26 688 51 q 572 0 624 0 z "},"Ｎ":{"ha":990,"x_min":35,"x_max":956,"o":"m 224 0 q 148 35 181 0 q 94 126 115 69 q 59 251 72 183 q 40 388 46 319 q 35 513 35 457 q 46 663 35 583 q 85 812 57 742 q 161 926 113 882 q 286 971 210 971 q 378 937 339 971 q 450 842 418 903 q 511 704 482 782 q 574 539 540 626 q 581 756 568 658 q 636 913 594 854 q 754 971 678 971 q 859 926 819 971 q 919 812 899 882 q 948 663 940 742 q 956 513 956 583 q 947 388 956 456 q 919 251 939 319 q 867 126 900 183 q 785 35 833 69 q 671 0 738 0 q 569 38 611 0 q 494 140 526 76 q 433 279 461 203 q 375 432 406 356 q 375 256 376 336 q 360 119 374 176 q 315 31 347 63 q 224 0 283 0 z "},"Ｏ":{"ha":1017,"x_min":33,"x_max":985,"o":"m 508 -1 q 328 33 413 -3 q 178 136 243 69 q 75 292 113 203 q 35 485 38 381 q 69 672 33 585 q 171 826 106 760 q 322 931 236 893 q 508 969 408 969 q 689 935 604 971 q 839 833 774 899 q 942 678 904 767 q 982 485 981 589 q 948 297 985 385 q 846 144 911 210 q 694 40 781 78 q 508 -1 607 1 m 513 269 q 620 314 574 269 q 665 435 667 358 q 619 557 665 513 q 513 601 574 601 q 406 557 451 601 q 360 435 360 513 q 406 314 360 358 q 513 269 451 269 z "}}}
